<?xml version="1.0" encoding="UTF-8" standalone="no"?>
<!DOCTYPE svg PUBLIC "-//W3C//DTD SVG 1.1//EN"
 "http://www.w3.org/Graphics/SVG/1.1/DTD/svg11.dtd">
<!-- Generated by graphviz version 2.47.3 (20210619.1520)
 -->
<!-- Title: dependencies Pages: 1 -->
<svg width="504pt" height="174pt"
 viewBox="0.00 0.00 504.00 173.80" xmlns="http://www.w3.org/2000/svg" xmlns:xlink="http://www.w3.org/1999/xlink">
<g id="graph0" class="graph" transform="scale(1 1) rotate(0) translate(4 169.8)">
<title>dependencies</title>
<polygon fill="white" stroke="transparent" points="-4,4 -4,-169.8 500,-169.8 500,4 -4,4"/>
<text text-anchor="middle" x="248" y="-8.2" font-family="sans-serif" font-size="14.00">dependencies</text>
<g id="clust1" class="cluster">
<title>cluster_DocModule</title>
<polygon fill="none" stroke="black" stroke-dasharray="1,5" points="8,-32.8 8,-157.8 488,-157.8 488,-32.8 8,-32.8"/>
</g>
<g id="clust4" class="cluster">
<title>cluster_DocModule_imports</title>
<polygon fill="none" stroke="black" points="144,-40.8 144,-92.8 480,-92.8 480,-40.8 144,-40.8"/>
</g>
<g id="clust2" class="cluster">
<title>cluster_DocModule_declarations</title>
<polygon fill="none" stroke="black" points="16,-40.8 16,-92.8 136,-92.8 136,-40.8 16,-40.8"/>
</g>
<!-- DocComponent -->
<g id="node1" class="node">
<title>DocComponent</title>
<polygon fill="#ffffb3" stroke="black" points="128.15,-84.8 23.85,-84.8 23.85,-48.8 128.15,-48.8 128.15,-84.8"/>
<text text-anchor="middle" x="76" y="-62.6" font-family="Times,serif" font-size="14.00">DocComponent</text>
</g>
<!-- DocModule -->
<g id="node2" class="node">
<title>DocModule</title>
<polygon fill="#8dd3c7" stroke="black" points="302.37,-149.8 299.37,-153.8 278.37,-153.8 275.37,-149.8 219.63,-149.8 219.63,-113.8 302.37,-113.8 302.37,-149.8"/>
<text text-anchor="middle" x="261" y="-127.6" font-family="Times,serif" font-size="14.00">DocModule</text>
</g>
<!-- DocComponent&#45;&gt;DocModule -->
<g id="edge1" class="edge">
<title>DocComponent&#45;&gt;DocModule</title>
<path fill="none" stroke="black" d="M76,-84.91C76,-104.14 76,-131.8 76,-131.8 76,-131.8 209.48,-131.8 209.48,-131.8"/>
<polygon fill="black" stroke="black" points="209.48,-135.3 219.48,-131.8 209.48,-128.3 209.48,-135.3"/>
</g>
<!-- ChartModule -->
<g id="node3" class="node">
<title>ChartModule</title>
<polygon fill="#8dd3c7" stroke="black" points="472.15,-84.8 469.15,-88.8 448.15,-88.8 445.15,-84.8 381.85,-84.8 381.85,-48.8 472.15,-48.8 472.15,-84.8"/>
<text text-anchor="middle" x="427" y="-62.6" font-family="Times,serif" font-size="14.00">ChartModule</text>
</g>
<!-- ChartModule&#45;&gt;DocModule -->
<g id="edge2" class="edge">
<title>ChartModule&#45;&gt;DocModule</title>
<path fill="none" stroke="black" d="M427,-84.91C427,-104.14 427,-131.8 427,-131.8 427,-131.8 312.46,-131.8 312.46,-131.8"/>
<polygon fill="black" stroke="black" points="312.46,-128.3 302.46,-131.8 312.46,-135.3 312.46,-128.3"/>
</g>
<!-- FormModule -->
<g id="node4" class="node">
<title>FormModule</title>
<polygon fill="#8dd3c7" stroke="black" points="363.88,-84.8 360.88,-88.8 339.88,-88.8 336.88,-84.8 274.12,-84.8 274.12,-48.8 363.88,-48.8 363.88,-84.8"/>
<text text-anchor="middle" x="319" y="-62.6" font-family="Times,serif" font-size="14.00">FormModule</text>
</g>
<!-- FormModule&#45;&gt;DocModule -->
<g id="edge3" class="edge">
<title>FormModule&#45;&gt;DocModule</title>
<path fill="none" stroke="black" d="M288.25,-84.91C288.25,-84.91 288.25,-103.79 288.25,-103.79"/>
<polygon fill="black" stroke="black" points="284.75,-103.79 288.25,-113.79 291.75,-103.79 284.75,-103.79"/>
</g>
<!-- SidenavModule -->
<g id="node5" class="node">
<title>SidenavModule</title>
<polygon fill="#8dd3c7" stroke="black" points="256.15,-84.8 253.15,-88.8 232.15,-88.8 229.15,-84.8 151.85,-84.8 151.85,-48.8 256.15,-48.8 256.15,-84.8"/>
<text text-anchor="middle" x="204" y="-62.6" font-family="Times,serif" font-size="14.00">SidenavModule</text>
</g>
<!-- SidenavModule&#45;&gt;DocModule -->
<g id="edge4" class="edge">
<title>SidenavModule&#45;&gt;DocModule</title>
<path fill="none" stroke="black" d="M237.95,-84.91C237.95,-84.91 237.95,-103.79 237.95,-103.79"/>
<polygon fill="black" stroke="black" points="234.45,-103.79 237.95,-113.79 241.45,-103.79 234.45,-103.79"/>
</g>
</g>
</svg>
