<?xml version="1.0" encoding="UTF-8" standalone="no"?>
<!DOCTYPE svg PUBLIC "-//W3C//DTD SVG 1.1//EN"
 "http://www.w3.org/Graphics/SVG/1.1/DTD/svg11.dtd">
<!-- Generated by graphviz version 2.47.3 (20210619.1520)
 -->
<!-- Title: dependencies Pages: 1 -->
<svg width="448pt" height="247pt"
 viewBox="0.00 0.00 448.00 246.80" xmlns="http://www.w3.org/2000/svg" xmlns:xlink="http://www.w3.org/1999/xlink">
<g id="graph0" class="graph" transform="scale(1 1) rotate(0) translate(4 242.8)">
<title>dependencies</title>
<polygon fill="white" stroke="transparent" points="-4,4 -4,-242.8 444,-242.8 444,4 -4,4"/>
<text text-anchor="middle" x="220" y="-8.2" font-family="sans-serif" font-size="14.00">dependencies</text>
<g id="clust1" class="cluster">
<title>cluster_TableModule</title>
<polygon fill="none" stroke="black" stroke-dasharray="1,5" points="8,-32.8 8,-230.8 432,-230.8 432,-32.8 8,-32.8"/>
</g>
<g id="clust7" class="cluster">
<title>cluster_TableModule_exports</title>
<polygon fill="none" stroke="black" points="16,-170.8 16,-222.8 424,-222.8 424,-170.8 16,-170.8"/>
</g>
<g id="clust2" class="cluster">
<title>cluster_TableModule_declarations</title>
<polygon fill="none" stroke="black" points="20,-40.8 20,-92.8 420,-92.8 420,-40.8 20,-40.8"/>
</g>
<!-- ColumnNamePipe -->
<g id="node1" class="node">
<title>ColumnNamePipe</title>
<polygon fill="#ffffb3" stroke="black" points="411.93,-84.8 292.07,-84.8 292.07,-48.8 411.93,-48.8 411.93,-84.8"/>
<text text-anchor="middle" x="352" y="-62.6" font-family="Times,serif" font-size="14.00">ColumnNamePipe</text>
</g>
<!-- TableModule -->
<g id="node4" class="node">
<title>TableModule</title>
<polygon fill="#8dd3c7" stroke="black" points="262.92,-149.8 259.92,-153.8 238.92,-153.8 235.92,-149.8 171.08,-149.8 171.08,-113.8 262.92,-113.8 262.92,-149.8"/>
<text text-anchor="middle" x="217" y="-127.6" font-family="Times,serif" font-size="14.00">TableModule</text>
</g>
<!-- ColumnNamePipe&#45;&gt;TableModule -->
<g id="edge1" class="edge">
<title>ColumnNamePipe&#45;&gt;TableModule</title>
<path fill="none" stroke="black" d="M372.32,-84.82C372.32,-102.17 372.32,-125.8 372.32,-125.8 372.32,-125.8 272.76,-125.8 272.76,-125.8"/>
<polygon fill="black" stroke="black" points="272.76,-122.3 262.76,-125.8 272.76,-129.3 272.76,-122.3"/>
</g>
<!-- MenuComponent -->
<g id="node2" class="node">
<title>MenuComponent</title>
<polygon fill="#ffffb3" stroke="black" points="273.99,-84.8 160.01,-84.8 160.01,-48.8 273.99,-48.8 273.99,-84.8"/>
<text text-anchor="middle" x="217" y="-62.6" font-family="Times,serif" font-size="14.00">MenuComponent</text>
</g>
<!-- MenuComponent&#45;&gt;TableModule -->
<g id="edge2" class="edge">
<title>MenuComponent&#45;&gt;TableModule</title>
<path fill="none" stroke="black" d="M217,-84.91C217,-84.91 217,-103.79 217,-103.79"/>
<polygon fill="black" stroke="black" points="213.5,-103.79 217,-113.79 220.5,-103.79 213.5,-103.79"/>
</g>
<!-- TableComponent -->
<g id="node3" class="node">
<title>TableComponent</title>
<polygon fill="#ffffb3" stroke="black" points="141.7,-84.8 28.3,-84.8 28.3,-48.8 141.7,-48.8 141.7,-84.8"/>
<text text-anchor="middle" x="85" y="-62.6" font-family="Times,serif" font-size="14.00">TableComponent</text>
</g>
<!-- TableComponent&#45;&gt;TableModule -->
<g id="edge3" class="edge">
<title>TableComponent&#45;&gt;TableModule</title>
<path fill="none" stroke="black" d="M103.03,-84.82C103.03,-102.17 103.03,-125.8 103.03,-125.8 103.03,-125.8 160.97,-125.8 160.97,-125.8"/>
<polygon fill="black" stroke="black" points="160.97,-129.3 170.97,-125.8 160.97,-122.3 160.97,-129.3"/>
</g>
<!-- ColumnNamePipe  -->
<g id="node5" class="node">
<title>ColumnNamePipe </title>
<polygon fill="#fb8072" stroke="black" points="416.43,-214.8 293.57,-214.8 293.57,-178.8 416.43,-178.8 416.43,-214.8"/>
<text text-anchor="middle" x="355" y="-192.6" font-family="Times,serif" font-size="14.00">ColumnNamePipe </text>
</g>
<!-- TableModule&#45;&gt;ColumnNamePipe  -->
<g id="edge4" class="edge">
<title>TableModule&#45;&gt;ColumnNamePipe </title>
<path fill="none" stroke="black" stroke-dasharray="5,2" d="M262.82,-137.8C295.22,-137.8 332.93,-137.8 332.93,-137.8 332.93,-137.8 332.93,-168.78 332.93,-168.78"/>
<polygon fill="black" stroke="black" points="329.43,-168.78 332.93,-178.78 336.43,-168.78 329.43,-168.78"/>
</g>
<!-- MenuComponent  -->
<g id="node6" class="node">
<title>MenuComponent </title>
<polygon fill="#fb8072" stroke="black" points="275.99,-214.8 158.01,-214.8 158.01,-178.8 275.99,-178.8 275.99,-214.8"/>
<text text-anchor="middle" x="217" y="-192.6" font-family="Times,serif" font-size="14.00">MenuComponent </text>
</g>
<!-- TableModule&#45;&gt;MenuComponent  -->
<g id="edge5" class="edge">
<title>TableModule&#45;&gt;MenuComponent </title>
<path fill="none" stroke="black" stroke-dasharray="5,2" d="M217,-149.91C217,-149.91 217,-168.79 217,-168.79"/>
<polygon fill="black" stroke="black" points="213.5,-168.79 217,-178.79 220.5,-168.79 213.5,-168.79"/>
</g>
<!-- TableComponent  -->
<g id="node7" class="node">
<title>TableComponent </title>
<polygon fill="#fb8072" stroke="black" points="140.21,-214.8 23.79,-214.8 23.79,-178.8 140.21,-178.8 140.21,-214.8"/>
<text text-anchor="middle" x="82" y="-192.6" font-family="Times,serif" font-size="14.00">TableComponent </text>
</g>
<!-- TableModule&#45;&gt;TableComponent  -->
<g id="edge6" class="edge">
<title>TableModule&#45;&gt;TableComponent </title>
<path fill="none" stroke="black" stroke-dasharray="5,2" d="M171.2,-137.8C126.67,-137.8 65.72,-137.8 65.72,-137.8 65.72,-137.8 65.72,-168.78 65.72,-168.78"/>
<polygon fill="black" stroke="black" points="62.22,-168.78 65.72,-178.78 69.22,-168.78 62.22,-168.78"/>
</g>
</g>
</svg>
