<?xml version="1.0" encoding="UTF-8" standalone="no"?>
<!DOCTYPE svg PUBLIC "-//W3C//DTD SVG 1.1//EN"
 "http://www.w3.org/Graphics/SVG/1.1/DTD/svg11.dtd">
<!-- Generated by graphviz version 2.47.3 (20210619.1520)
 -->
<!-- Title: dependencies Pages: 1 -->
<svg width="402pt" height="247pt"
 viewBox="0.00 0.00 402.00 246.80" xmlns="http://www.w3.org/2000/svg" xmlns:xlink="http://www.w3.org/1999/xlink">
<g id="graph0" class="graph" transform="scale(1 1) rotate(0) translate(4 242.8)">
<title>dependencies</title>
<polygon fill="white" stroke="transparent" points="-4,4 -4,-242.8 398,-242.8 398,4 -4,4"/>
<text text-anchor="middle" x="197" y="-8.2" font-family="sans-serif" font-size="14.00">dependencies</text>
<g id="clust1" class="cluster">
<title>cluster_TypingModule</title>
<polygon fill="none" stroke="black" stroke-dasharray="1,5" points="8,-32.8 8,-230.8 386,-230.8 386,-32.8 8,-32.8"/>
</g>
<g id="clust2" class="cluster">
<title>cluster_TypingModule_declarations</title>
<polygon fill="none" stroke="black" points="240,-40.8 240,-92.8 378,-92.8 378,-40.8 240,-40.8"/>
</g>
<g id="clust4" class="cluster">
<title>cluster_TypingModule_imports</title>
<polygon fill="none" stroke="black" points="16,-40.8 16,-92.8 232,-92.8 232,-40.8 16,-40.8"/>
</g>
<g id="clust5" class="cluster">
<title>cluster_TypingModule_exports</title>
<polygon fill="none" stroke="black" points="108,-170.8 108,-222.8 250,-222.8 250,-170.8 108,-170.8"/>
</g>
<!-- TypingComponent -->
<g id="node1" class="node">
<title>TypingComponent</title>
<polygon fill="#ffffb3" stroke="black" points="369.78,-84.8 248.22,-84.8 248.22,-48.8 369.78,-48.8 369.78,-84.8"/>
<text text-anchor="middle" x="309" y="-62.6" font-family="Times,serif" font-size="14.00">TypingComponent</text>
</g>
<!-- TypingModule -->
<g id="node2" class="node">
<title>TypingModule</title>
<polygon fill="#8dd3c7" stroke="black" points="228.99,-149.8 225.99,-153.8 204.99,-153.8 201.99,-149.8 129.01,-149.8 129.01,-113.8 228.99,-113.8 228.99,-149.8"/>
<text text-anchor="middle" x="179" y="-127.6" font-family="Times,serif" font-size="14.00">TypingModule</text>
</g>
<!-- TypingComponent&#45;&gt;TypingModule -->
<g id="edge1" class="edge">
<title>TypingComponent&#45;&gt;TypingModule</title>
<path fill="none" stroke="black" d="M309,-84.91C309,-104.14 309,-131.8 309,-131.8 309,-131.8 239.26,-131.8 239.26,-131.8"/>
<polygon fill="black" stroke="black" points="239.26,-128.3 229.26,-131.8 239.26,-135.3 239.26,-128.3"/>
</g>
<!-- TypingComponent  -->
<g id="node5" class="node">
<title>TypingComponent </title>
<polygon fill="#fb8072" stroke="black" points="241.78,-214.8 116.22,-214.8 116.22,-178.8 241.78,-178.8 241.78,-214.8"/>
<text text-anchor="middle" x="179" y="-192.6" font-family="Times,serif" font-size="14.00">TypingComponent </text>
</g>
<!-- TypingModule&#45;&gt;TypingComponent  -->
<g id="edge4" class="edge">
<title>TypingModule&#45;&gt;TypingComponent </title>
<path fill="none" stroke="black" stroke-dasharray="5,2" d="M179,-149.91C179,-149.91 179,-168.79 179,-168.79"/>
<polygon fill="black" stroke="black" points="175.5,-168.79 179,-178.79 182.5,-168.79 175.5,-168.79"/>
</g>
<!-- ChartModule -->
<g id="node3" class="node">
<title>ChartModule</title>
<polygon fill="#8dd3c7" stroke="black" points="224.15,-84.8 221.15,-88.8 200.15,-88.8 197.15,-84.8 133.85,-84.8 133.85,-48.8 224.15,-48.8 224.15,-84.8"/>
<text text-anchor="middle" x="179" y="-62.6" font-family="Times,serif" font-size="14.00">ChartModule</text>
</g>
<!-- ChartModule&#45;&gt;TypingModule -->
<g id="edge2" class="edge">
<title>ChartModule&#45;&gt;TypingModule</title>
<path fill="none" stroke="black" d="M179,-84.91C179,-84.91 179,-103.79 179,-103.79"/>
<polygon fill="black" stroke="black" points="175.5,-103.79 179,-113.79 182.5,-103.79 175.5,-103.79"/>
</g>
<!-- TableModule -->
<g id="node4" class="node">
<title>TableModule</title>
<polygon fill="#8dd3c7" stroke="black" points="115.92,-84.8 112.92,-88.8 91.92,-88.8 88.92,-84.8 24.08,-84.8 24.08,-48.8 115.92,-48.8 115.92,-84.8"/>
<text text-anchor="middle" x="70" y="-62.6" font-family="Times,serif" font-size="14.00">TableModule</text>
</g>
<!-- TableModule&#45;&gt;TypingModule -->
<g id="edge3" class="edge">
<title>TableModule&#45;&gt;TypingModule</title>
<path fill="none" stroke="black" d="M70,-84.91C70,-104.14 70,-131.8 70,-131.8 70,-131.8 118.97,-131.8 118.97,-131.8"/>
<polygon fill="black" stroke="black" points="118.97,-135.3 128.97,-131.8 118.97,-128.3 118.97,-135.3"/>
</g>
</g>
</svg>
