<?xml version="1.0" encoding="UTF-8" standalone="no"?>
<!DOCTYPE svg PUBLIC "-//W3C//DTD SVG 1.1//EN"
 "http://www.w3.org/Graphics/SVG/1.1/DTD/svg11.dtd">
<!-- Generated by graphviz version 2.47.3 (20210619.1520)
 -->
<!-- Title: dependencies Pages: 1 -->
<svg width="402pt" height="247pt"
 viewBox="0.00 0.00 402.00 246.80" xmlns="http://www.w3.org/2000/svg" xmlns:xlink="http://www.w3.org/1999/xlink">
<g id="graph0" class="graph" transform="scale(1 1) rotate(0) translate(4 242.8)">
<title>dependencies</title>
<polygon fill="white" stroke="transparent" points="-4,4 -4,-242.8 398,-242.8 398,4 -4,4"/>
<text text-anchor="middle" x="197" y="-8.2" font-family="sans-serif" font-size="14.00">dependencies</text>
<g id="clust1" class="cluster">
<title>cluster_TypingModule</title>
<polygon fill="none" stroke="black" stroke-dasharray="1,5" points="8,-32.8 8,-230.8 386,-230.8 386,-32.8 8,-32.8"/>
</g>
<g id="clust5" class="cluster">
<title>cluster_TypingModule_exports</title>
<polygon fill="none" stroke="black" points="145,-170.8 145,-222.8 287,-222.8 287,-170.8 145,-170.8"/>
</g>
<g id="clust4" class="cluster">
<title>cluster_TypingModule_imports</title>
<polygon fill="none" stroke="black" points="162,-40.8 162,-92.8 378,-92.8 378,-40.8 162,-40.8"/>
</g>
<g id="clust2" class="cluster">
<title>cluster_TypingModule_declarations</title>
<polygon fill="none" stroke="black" points="16,-40.8 16,-92.8 154,-92.8 154,-40.8 16,-40.8"/>
</g>
<!-- TypingComponent -->
<g id="node1" class="node">
<title>TypingComponent</title>
<polygon fill="#ffffb3" stroke="black" points="145.78,-84.8 24.22,-84.8 24.22,-48.8 145.78,-48.8 145.78,-84.8"/>
<text text-anchor="middle" x="85" y="-62.6" font-family="Times,serif" font-size="14.00">TypingComponent</text>
</g>
<!-- TypingModule -->
<g id="node2" class="node">
<title>TypingModule</title>
<polygon fill="#8dd3c7" stroke="black" points="265.99,-149.8 262.99,-153.8 241.99,-153.8 238.99,-149.8 166.01,-149.8 166.01,-113.8 265.99,-113.8 265.99,-149.8"/>
<text text-anchor="middle" x="216" y="-127.6" font-family="Times,serif" font-size="14.00">TypingModule</text>
</g>
<!-- TypingComponent&#45;&gt;TypingModule -->
<g id="edge1" class="edge">
<title>TypingComponent&#45;&gt;TypingModule</title>
<path fill="none" stroke="black" d="M85,-84.91C85,-104.14 85,-131.8 85,-131.8 85,-131.8 155.73,-131.8 155.73,-131.8"/>
<polygon fill="black" stroke="black" points="155.73,-135.3 165.73,-131.8 155.73,-128.3 155.73,-135.3"/>
</g>
<!-- TypingComponent  -->
<g id="node5" class="node">
<title>TypingComponent </title>
<polygon fill="#fb8072" stroke="black" points="278.78,-214.8 153.22,-214.8 153.22,-178.8 278.78,-178.8 278.78,-214.8"/>
<text text-anchor="middle" x="216" y="-192.6" font-family="Times,serif" font-size="14.00">TypingComponent </text>
</g>
<!-- TypingModule&#45;&gt;TypingComponent  -->
<g id="edge4" class="edge">
<title>TypingModule&#45;&gt;TypingComponent </title>
<path fill="none" stroke="black" stroke-dasharray="5,2" d="M216,-149.91C216,-149.91 216,-168.79 216,-168.79"/>
<polygon fill="black" stroke="black" points="212.5,-168.79 216,-178.79 219.5,-168.79 212.5,-168.79"/>
</g>
<!-- ChartModule -->
<g id="node3" class="node">
<title>ChartModule</title>
<polygon fill="#8dd3c7" stroke="black" points="370.15,-84.8 367.15,-88.8 346.15,-88.8 343.15,-84.8 279.85,-84.8 279.85,-48.8 370.15,-48.8 370.15,-84.8"/>
<text text-anchor="middle" x="325" y="-62.6" font-family="Times,serif" font-size="14.00">ChartModule</text>
</g>
<!-- ChartModule&#45;&gt;TypingModule -->
<g id="edge2" class="edge">
<title>ChartModule&#45;&gt;TypingModule</title>
<path fill="none" stroke="black" d="M325,-84.91C325,-104.14 325,-131.8 325,-131.8 325,-131.8 276.03,-131.8 276.03,-131.8"/>
<polygon fill="black" stroke="black" points="276.03,-128.3 266.03,-131.8 276.03,-135.3 276.03,-128.3"/>
</g>
<!-- TableModule -->
<g id="node4" class="node">
<title>TableModule</title>
<polygon fill="#8dd3c7" stroke="black" points="261.92,-84.8 258.92,-88.8 237.92,-88.8 234.92,-84.8 170.08,-84.8 170.08,-48.8 261.92,-48.8 261.92,-84.8"/>
<text text-anchor="middle" x="216" y="-62.6" font-family="Times,serif" font-size="14.00">TableModule</text>
</g>
<!-- TableModule&#45;&gt;TypingModule -->
<g id="edge3" class="edge">
<title>TableModule&#45;&gt;TypingModule</title>
<path fill="none" stroke="black" d="M216,-84.91C216,-84.91 216,-103.79 216,-103.79"/>
<polygon fill="black" stroke="black" points="212.5,-103.79 216,-113.79 219.5,-103.79 212.5,-103.79"/>
</g>
</g>
</svg>
