<?xml version="1.0" encoding="UTF-8" standalone="no"?>
<!DOCTYPE svg PUBLIC "-//W3C//DTD SVG 1.1//EN"
 "http://www.w3.org/Graphics/SVG/1.1/DTD/svg11.dtd">
<!-- Generated by graphviz version 2.47.3 (20210619.1520)
 -->
<!-- Title: dependencies Pages: 1 -->
<svg width="222pt" height="247pt"
 viewBox="0.00 0.00 222.00 246.80" xmlns="http://www.w3.org/2000/svg" xmlns:xlink="http://www.w3.org/1999/xlink">
<g id="graph0" class="graph" transform="scale(1 1) rotate(0) translate(4 242.8)">
<title>dependencies</title>
<polygon fill="white" stroke="transparent" points="-4,4 -4,-242.8 218,-242.8 218,4 -4,4"/>
<text text-anchor="middle" x="107" y="-8.2" font-family="sans-serif" font-size="14.00">dependencies</text>
<g id="clust1" class="cluster">
<title>cluster_PermissionModule</title>
<polygon fill="none" stroke="black" stroke-dasharray="1,5" points="8,-32.8 8,-230.8 206,-230.8 206,-32.8 8,-32.8"/>
</g>
<g id="clust4" class="cluster">
<title>cluster_PermissionModule_exports</title>
<polygon fill="none" stroke="black" points="37,-170.8 37,-222.8 177,-222.8 177,-170.8 37,-170.8"/>
</g>
<g id="clust6" class="cluster">
<title>cluster_PermissionModule_providers</title>
<polygon fill="none" stroke="black" points="16,-40.8 16,-92.8 198,-92.8 198,-40.8 16,-40.8"/>
</g>
<!-- PermissionService  -->
<g id="node1" class="node">
<title>PermissionService </title>
<polygon fill="#fb8072" stroke="black" points="168.7,-214.8 45.3,-214.8 45.3,-178.8 168.7,-178.8 168.7,-214.8"/>
<text text-anchor="middle" x="107" y="-192.6" font-family="Times,serif" font-size="14.00">PermissionService </text>
</g>
<!-- PermissionModule -->
<g id="node2" class="node">
<title>PermissionModule</title>
<polygon fill="#8dd3c7" stroke="black" points="167.77,-149.8 164.77,-153.8 143.77,-153.8 140.77,-149.8 46.23,-149.8 46.23,-113.8 167.77,-113.8 167.77,-149.8"/>
<text text-anchor="middle" x="107" y="-127.6" font-family="Times,serif" font-size="14.00">PermissionModule</text>
</g>
<!-- PermissionModule&#45;&gt;PermissionService  -->
<g id="edge1" class="edge">
<title>PermissionModule&#45;&gt;PermissionService </title>
<path fill="none" stroke="black" stroke-dasharray="5,2" d="M107,-149.91C107,-149.91 107,-168.79 107,-168.79"/>
<polygon fill="black" stroke="black" points="103.5,-168.79 107,-178.79 110.5,-168.79 103.5,-168.79"/>
</g>
<!-- PermissionService -->
<g id="node3" class="node">
<title>PermissionService</title>
<ellipse fill="#fdb462" stroke="black" cx="107" cy="-66.8" rx="82.82" ry="18"/>
<text text-anchor="middle" x="107" y="-62.6" font-family="Times,serif" font-size="14.00">PermissionService</text>
</g>
<!-- PermissionService&#45;&gt;PermissionModule -->
<g id="edge2" class="edge">
<title>PermissionService&#45;&gt;PermissionModule</title>
<path fill="none" stroke="black" d="M107,-84.91C107,-84.91 107,-103.79 107,-103.79"/>
<polygon fill="black" stroke="black" points="103.5,-103.79 107,-113.79 110.5,-103.79 103.5,-103.79"/>
</g>
</g>
</svg>
