<?xml version="1.0" encoding="UTF-8" standalone="no"?>
<!DOCTYPE svg PUBLIC "-//W3C//DTD SVG 1.1//EN"
 "http://www.w3.org/Graphics/SVG/1.1/DTD/svg11.dtd">
<!-- Generated by graphviz version 2.47.3 (20210619.1520)
 -->
<!-- Title: dependencies Pages: 1 -->
<svg width="1396pt" height="247pt"
 viewBox="0.00 0.00 1396.00 246.80" xmlns="http://www.w3.org/2000/svg" xmlns:xlink="http://www.w3.org/1999/xlink">
<g id="graph0" class="graph" transform="scale(1 1) rotate(0) translate(4 242.8)">
<title>dependencies</title>
<polygon fill="white" stroke="transparent" points="-4,4 -4,-242.8 1392,-242.8 1392,4 -4,4"/>
<text text-anchor="middle" x="694" y="-8.2" font-family="sans-serif" font-size="14.00">dependencies</text>
<g id="clust1" class="cluster">
<title>cluster_FormModule</title>
<polygon fill="none" stroke="black" stroke-dasharray="1,5" points="8,-32.8 8,-230.8 1380,-230.8 1380,-32.8 8,-32.8"/>
</g>
<g id="clust11" class="cluster">
<title>cluster_FormModule_exports</title>
<polygon fill="none" stroke="black" points="534,-170.8 534,-222.8 828,-222.8 828,-170.8 534,-170.8"/>
</g>
<g id="clust2" class="cluster">
<title>cluster_FormModule_declarations</title>
<polygon fill="none" stroke="black" points="306,-40.8 306,-92.8 1372,-92.8 1372,-40.8 306,-40.8"/>
</g>
<g id="clust10" class="cluster">
<title>cluster_FormModule_imports</title>
<polygon fill="none" stroke="black" points="16,-40.8 16,-92.8 298,-92.8 298,-40.8 16,-40.8"/>
</g>
<!-- DateFieldComponent -->
<g id="node1" class="node">
<title>DateFieldComponent</title>
<polygon fill="#ffffb3" stroke="black" points="1364.04,-84.8 1227.96,-84.8 1227.96,-48.8 1364.04,-48.8 1364.04,-84.8"/>
<text text-anchor="middle" x="1296" y="-62.6" font-family="Times,serif" font-size="14.00">DateFieldComponent</text>
</g>
<!-- FormModule -->
<g id="node8" class="node">
<title>FormModule</title>
<polygon fill="#8dd3c7" stroke="black" points="732.88,-149.8 729.88,-153.8 708.88,-153.8 705.88,-149.8 643.12,-149.8 643.12,-113.8 732.88,-113.8 732.88,-149.8"/>
<text text-anchor="middle" x="688" y="-127.6" font-family="Times,serif" font-size="14.00">FormModule</text>
</g>
<!-- DateFieldComponent&#45;&gt;FormModule -->
<g id="edge1" class="edge">
<title>DateFieldComponent&#45;&gt;FormModule</title>
<path fill="none" stroke="black" d="M1296,-84.81C1296,-107.29 1296,-142.8 1296,-142.8 1296,-142.8 743.2,-142.8 743.2,-142.8"/>
<polygon fill="black" stroke="black" points="743.2,-139.3 733.2,-142.8 743.2,-146.3 743.2,-139.3"/>
</g>
<!-- FieldStatusComponent -->
<g id="node2" class="node">
<title>FieldStatusComponent</title>
<polygon fill="#ffffb3" stroke="black" points="1210.33,-84.8 1065.67,-84.8 1065.67,-48.8 1210.33,-48.8 1210.33,-84.8"/>
<text text-anchor="middle" x="1138" y="-62.6" font-family="Times,serif" font-size="14.00">FieldStatusComponent</text>
</g>
<!-- FieldStatusComponent&#45;&gt;FormModule -->
<g id="edge2" class="edge">
<title>FieldStatusComponent&#45;&gt;FormModule</title>
<path fill="none" stroke="black" d="M1138,-84.93C1138,-105.37 1138,-135.8 1138,-135.8 1138,-135.8 743.21,-135.8 743.21,-135.8"/>
<polygon fill="black" stroke="black" points="743.21,-132.3 733.21,-135.8 743.21,-139.3 743.21,-132.3"/>
</g>
<!-- FormComponent -->
<g id="node3" class="node">
<title>FormComponent</title>
<polygon fill="#ffffb3" stroke="black" points="1047.67,-84.8 936.33,-84.8 936.33,-48.8 1047.67,-48.8 1047.67,-84.8"/>
<text text-anchor="middle" x="992" y="-62.6" font-family="Times,serif" font-size="14.00">FormComponent</text>
</g>
<!-- FormComponent&#45;&gt;FormModule -->
<g id="edge3" class="edge">
<title>FormComponent&#45;&gt;FormModule</title>
<path fill="none" stroke="black" d="M992,-85.07C992,-103.36 992,-128.8 992,-128.8 992,-128.8 743.18,-128.8 743.18,-128.8"/>
<polygon fill="black" stroke="black" points="743.18,-125.3 733.18,-128.8 743.18,-132.3 743.18,-125.3"/>
</g>
<!-- FormFieldComponent -->
<g id="node4" class="node">
<title>FormFieldComponent</title>
<polygon fill="#ffffb3" stroke="black" points="918.45,-84.8 777.55,-84.8 777.55,-48.8 918.45,-48.8 918.45,-84.8"/>
<text text-anchor="middle" x="848" y="-62.6" font-family="Times,serif" font-size="14.00">FormFieldComponent</text>
</g>
<!-- FormFieldComponent&#45;&gt;FormModule -->
<g id="edge4" class="edge">
<title>FormFieldComponent&#45;&gt;FormModule</title>
<path fill="none" stroke="black" d="M798.68,-84.81C798.68,-100.85 798.68,-121.8 798.68,-121.8 798.68,-121.8 743.02,-121.8 743.02,-121.8"/>
<polygon fill="black" stroke="black" points="743.02,-118.3 733.02,-121.8 743.02,-125.3 743.02,-118.3"/>
</g>
<!-- SelectFieldComponent -->
<g id="node5" class="node">
<title>SelectFieldComponent</title>
<polygon fill="#ffffb3" stroke="black" points="760.32,-84.8 615.68,-84.8 615.68,-48.8 760.32,-48.8 760.32,-84.8"/>
<text text-anchor="middle" x="688" y="-62.6" font-family="Times,serif" font-size="14.00">SelectFieldComponent</text>
</g>
<!-- SelectFieldComponent&#45;&gt;FormModule -->
<g id="edge5" class="edge">
<title>SelectFieldComponent&#45;&gt;FormModule</title>
<path fill="none" stroke="black" d="M688,-84.91C688,-84.91 688,-103.79 688,-103.79"/>
<polygon fill="black" stroke="black" points="684.5,-103.79 688,-113.79 691.5,-103.79 684.5,-103.79"/>
</g>
<!-- TextFieldComponent -->
<g id="node6" class="node">
<title>TextFieldComponent</title>
<polygon fill="#ffffb3" stroke="black" points="597.77,-84.8 462.23,-84.8 462.23,-48.8 597.77,-48.8 597.77,-84.8"/>
<text text-anchor="middle" x="530" y="-62.6" font-family="Times,serif" font-size="14.00">TextFieldComponent</text>
</g>
<!-- TextFieldComponent&#45;&gt;FormModule -->
<g id="edge6" class="edge">
<title>TextFieldComponent&#45;&gt;FormModule</title>
<path fill="none" stroke="black" d="M569.96,-84.81C569.96,-100.85 569.96,-121.8 569.96,-121.8 569.96,-121.8 633.04,-121.8 633.04,-121.8"/>
<polygon fill="black" stroke="black" points="633.04,-125.3 643.04,-121.8 633.04,-118.3 633.04,-125.3"/>
</g>
<!-- ValidationErrorPipe -->
<g id="node7" class="node">
<title>ValidationErrorPipe</title>
<polygon fill="#ffffb3" stroke="black" points="443.52,-84.8 314.48,-84.8 314.48,-48.8 443.52,-48.8 443.52,-84.8"/>
<text text-anchor="middle" x="379" y="-62.6" font-family="Times,serif" font-size="14.00">ValidationErrorPipe</text>
</g>
<!-- ValidationErrorPipe&#45;&gt;FormModule -->
<g id="edge7" class="edge">
<title>ValidationErrorPipe&#45;&gt;FormModule</title>
<path fill="none" stroke="black" d="M379,-85.07C379,-103.36 379,-128.8 379,-128.8 379,-128.8 633.07,-128.8 633.07,-128.8"/>
<polygon fill="black" stroke="black" points="633.07,-132.3 643.07,-128.8 633.07,-125.3 633.07,-132.3"/>
</g>
<!-- FormComponent  -->
<g id="node11" class="node">
<title>FormComponent </title>
<polygon fill="#fb8072" stroke="black" points="819.67,-214.8 704.33,-214.8 704.33,-178.8 819.67,-178.8 819.67,-214.8"/>
<text text-anchor="middle" x="762" y="-192.6" font-family="Times,serif" font-size="14.00">FormComponent </text>
</g>
<!-- FormModule&#45;&gt;FormComponent  -->
<g id="edge10" class="edge">
<title>FormModule&#45;&gt;FormComponent </title>
<path fill="none" stroke="black" stroke-dasharray="5,2" d="M718.68,-149.91C718.68,-149.91 718.68,-168.79 718.68,-168.79"/>
<polygon fill="black" stroke="black" points="715.18,-168.79 718.68,-178.79 722.18,-168.79 715.18,-168.79"/>
</g>
<!-- FormFieldComponent  -->
<g id="node12" class="node">
<title>FormFieldComponent </title>
<polygon fill="#fb8072" stroke="black" points="685.94,-214.8 542.06,-214.8 542.06,-178.8 685.94,-178.8 685.94,-214.8"/>
<text text-anchor="middle" x="614" y="-192.6" font-family="Times,serif" font-size="14.00">FormFieldComponent </text>
</g>
<!-- FormModule&#45;&gt;FormFieldComponent  -->
<g id="edge11" class="edge">
<title>FormModule&#45;&gt;FormFieldComponent </title>
<path fill="none" stroke="black" stroke-dasharray="5,2" d="M664.52,-149.91C664.52,-149.91 664.52,-168.79 664.52,-168.79"/>
<polygon fill="black" stroke="black" points="661.02,-168.79 664.52,-178.79 668.02,-168.79 661.02,-168.79"/>
</g>
<!-- FormStoreModule -->
<g id="node9" class="node">
<title>FormStoreModule</title>
<polygon fill="#8dd3c7" stroke="black" points="289.93,-84.8 286.93,-88.8 265.93,-88.8 262.93,-84.8 170.07,-84.8 170.07,-48.8 289.93,-48.8 289.93,-84.8"/>
<text text-anchor="middle" x="230" y="-62.6" font-family="Times,serif" font-size="14.00">FormStoreModule</text>
</g>
<!-- FormStoreModule&#45;&gt;FormModule -->
<g id="edge8" class="edge">
<title>FormStoreModule&#45;&gt;FormModule</title>
<path fill="none" stroke="black" d="M230,-84.93C230,-105.37 230,-135.8 230,-135.8 230,-135.8 632.83,-135.8 632.83,-135.8"/>
<polygon fill="black" stroke="black" points="632.83,-139.3 642.83,-135.8 632.83,-132.3 632.83,-139.3"/>
</g>
<!-- SetAttributeModule -->
<g id="node10" class="node">
<title>SetAttributeModule</title>
<polygon fill="#8dd3c7" stroke="black" points="151.98,-84.8 148.98,-88.8 127.98,-88.8 124.98,-84.8 24.02,-84.8 24.02,-48.8 151.98,-48.8 151.98,-84.8"/>
<text text-anchor="middle" x="88" y="-62.6" font-family="Times,serif" font-size="14.00">SetAttributeModule</text>
</g>
<!-- SetAttributeModule&#45;&gt;FormModule -->
<g id="edge9" class="edge">
<title>SetAttributeModule&#45;&gt;FormModule</title>
<path fill="none" stroke="black" d="M88,-84.81C88,-107.29 88,-142.8 88,-142.8 88,-142.8 632.9,-142.8 632.9,-142.8"/>
<polygon fill="black" stroke="black" points="632.9,-146.3 642.9,-142.8 632.9,-139.3 632.9,-146.3"/>
</g>
</g>
</svg>
