<?xml version="1.0" encoding="UTF-8" standalone="no"?>
<!DOCTYPE svg PUBLIC "-//W3C//DTD SVG 1.1//EN"
 "http://www.w3.org/Graphics/SVG/1.1/DTD/svg11.dtd">
<!-- Generated by graphviz version 2.47.3 (20210619.1520)
 -->
<!-- Title: dependencies Pages: 1 -->
<svg width="1396pt" height="247pt"
 viewBox="0.00 0.00 1396.00 246.80" xmlns="http://www.w3.org/2000/svg" xmlns:xlink="http://www.w3.org/1999/xlink">
<g id="graph0" class="graph" transform="scale(1 1) rotate(0) translate(4 242.8)">
<title>dependencies</title>
<polygon fill="white" stroke="transparent" points="-4,4 -4,-242.8 1392,-242.8 1392,4 -4,4"/>
<text text-anchor="middle" x="694" y="-8.2" font-family="sans-serif" font-size="14.00">dependencies</text>
<g id="clust1" class="cluster">
<title>cluster_FormModule</title>
<polygon fill="none" stroke="black" stroke-dasharray="1,5" points="8,-32.8 8,-230.8 1380,-230.8 1380,-32.8 8,-32.8"/>
</g>
<g id="clust11" class="cluster">
<title>cluster_FormModule_exports</title>
<polygon fill="none" stroke="black" points="548,-170.8 548,-222.8 842,-222.8 842,-170.8 548,-170.8"/>
</g>
<g id="clust10" class="cluster">
<title>cluster_FormModule_imports</title>
<polygon fill="none" stroke="black" points="1090,-40.8 1090,-92.8 1372,-92.8 1372,-40.8 1090,-40.8"/>
</g>
<g id="clust2" class="cluster">
<title>cluster_FormModule_declarations</title>
<polygon fill="none" stroke="black" points="16,-40.8 16,-92.8 1082,-92.8 1082,-40.8 16,-40.8"/>
</g>
<!-- DateFieldComponent -->
<g id="node1" class="node">
<title>DateFieldComponent</title>
<polygon fill="#ffffb3" stroke="black" points="1074.04,-84.8 937.96,-84.8 937.96,-48.8 1074.04,-48.8 1074.04,-84.8"/>
<text text-anchor="middle" x="1006" y="-62.6" font-family="Times,serif" font-size="14.00">DateFieldComponent</text>
</g>
<!-- FormModule -->
<g id="node8" class="node">
<title>FormModule</title>
<polygon fill="#8dd3c7" stroke="black" points="746.88,-149.8 743.88,-153.8 722.88,-153.8 719.88,-149.8 657.12,-149.8 657.12,-113.8 746.88,-113.8 746.88,-149.8"/>
<text text-anchor="middle" x="702" y="-127.6" font-family="Times,serif" font-size="14.00">FormModule</text>
</g>
<!-- DateFieldComponent&#45;&gt;FormModule -->
<g id="edge1" class="edge">
<title>DateFieldComponent&#45;&gt;FormModule</title>
<path fill="none" stroke="black" d="M1006,-85.07C1006,-103.36 1006,-128.8 1006,-128.8 1006,-128.8 757.18,-128.8 757.18,-128.8"/>
<polygon fill="black" stroke="black" points="757.18,-125.3 747.18,-128.8 757.18,-132.3 757.18,-125.3"/>
</g>
<!-- FieldStatusComponent -->
<g id="node2" class="node">
<title>FieldStatusComponent</title>
<polygon fill="#ffffb3" stroke="black" points="920.33,-84.8 775.67,-84.8 775.67,-48.8 920.33,-48.8 920.33,-84.8"/>
<text text-anchor="middle" x="848" y="-62.6" font-family="Times,serif" font-size="14.00">FieldStatusComponent</text>
</g>
<!-- FieldStatusComponent&#45;&gt;FormModule -->
<g id="edge2" class="edge">
<title>FieldStatusComponent&#45;&gt;FormModule</title>
<path fill="none" stroke="black" d="M804.71,-84.81C804.71,-100.85 804.71,-121.8 804.71,-121.8 804.71,-121.8 757.05,-121.8 757.05,-121.8"/>
<polygon fill="black" stroke="black" points="757.05,-118.3 747.05,-121.8 757.05,-125.3 757.05,-118.3"/>
</g>
<!-- FormComponent -->
<g id="node3" class="node">
<title>FormComponent</title>
<polygon fill="#ffffb3" stroke="black" points="757.67,-84.8 646.33,-84.8 646.33,-48.8 757.67,-48.8 757.67,-84.8"/>
<text text-anchor="middle" x="702" y="-62.6" font-family="Times,serif" font-size="14.00">FormComponent</text>
</g>
<!-- FormComponent&#45;&gt;FormModule -->
<g id="edge3" class="edge">
<title>FormComponent&#45;&gt;FormModule</title>
<path fill="none" stroke="black" d="M702,-84.91C702,-84.91 702,-103.79 702,-103.79"/>
<polygon fill="black" stroke="black" points="698.5,-103.79 702,-113.79 705.5,-103.79 698.5,-103.79"/>
</g>
<!-- FormFieldComponent -->
<g id="node4" class="node">
<title>FormFieldComponent</title>
<polygon fill="#ffffb3" stroke="black" points="628.45,-84.8 487.55,-84.8 487.55,-48.8 628.45,-48.8 628.45,-84.8"/>
<text text-anchor="middle" x="558" y="-62.6" font-family="Times,serif" font-size="14.00">FormFieldComponent</text>
</g>
<!-- FormFieldComponent&#45;&gt;FormModule -->
<g id="edge4" class="edge">
<title>FormFieldComponent&#45;&gt;FormModule</title>
<path fill="none" stroke="black" d="M592.12,-84.81C592.12,-100.85 592.12,-121.8 592.12,-121.8 592.12,-121.8 646.99,-121.8 646.99,-121.8"/>
<polygon fill="black" stroke="black" points="646.99,-125.3 656.99,-121.8 646.99,-118.3 646.99,-125.3"/>
</g>
<!-- SelectFieldComponent -->
<g id="node5" class="node">
<title>SelectFieldComponent</title>
<polygon fill="#ffffb3" stroke="black" points="470.32,-84.8 325.68,-84.8 325.68,-48.8 470.32,-48.8 470.32,-84.8"/>
<text text-anchor="middle" x="398" y="-62.6" font-family="Times,serif" font-size="14.00">SelectFieldComponent</text>
</g>
<!-- SelectFieldComponent&#45;&gt;FormModule -->
<g id="edge5" class="edge">
<title>SelectFieldComponent&#45;&gt;FormModule</title>
<path fill="none" stroke="black" d="M398,-85.07C398,-103.36 398,-128.8 398,-128.8 398,-128.8 646.82,-128.8 646.82,-128.8"/>
<polygon fill="black" stroke="black" points="646.82,-132.3 656.82,-128.8 646.82,-125.3 646.82,-132.3"/>
</g>
<!-- TextFieldComponent -->
<g id="node6" class="node">
<title>TextFieldComponent</title>
<polygon fill="#ffffb3" stroke="black" points="307.77,-84.8 172.23,-84.8 172.23,-48.8 307.77,-48.8 307.77,-84.8"/>
<text text-anchor="middle" x="240" y="-62.6" font-family="Times,serif" font-size="14.00">TextFieldComponent</text>
</g>
<!-- TextFieldComponent&#45;&gt;FormModule -->
<g id="edge6" class="edge">
<title>TextFieldComponent&#45;&gt;FormModule</title>
<path fill="none" stroke="black" d="M240,-84.93C240,-105.37 240,-135.8 240,-135.8 240,-135.8 646.86,-135.8 646.86,-135.8"/>
<polygon fill="black" stroke="black" points="646.86,-139.3 656.86,-135.8 646.86,-132.3 646.86,-139.3"/>
</g>
<!-- ValidationErrorPipe -->
<g id="node7" class="node">
<title>ValidationErrorPipe</title>
<polygon fill="#ffffb3" stroke="black" points="153.52,-84.8 24.48,-84.8 24.48,-48.8 153.52,-48.8 153.52,-84.8"/>
<text text-anchor="middle" x="89" y="-62.6" font-family="Times,serif" font-size="14.00">ValidationErrorPipe</text>
</g>
<!-- ValidationErrorPipe&#45;&gt;FormModule -->
<g id="edge7" class="edge">
<title>ValidationErrorPipe&#45;&gt;FormModule</title>
<path fill="none" stroke="black" d="M89,-84.81C89,-107.29 89,-142.8 89,-142.8 89,-142.8 646.92,-142.8 646.92,-142.8"/>
<polygon fill="black" stroke="black" points="646.92,-146.3 656.92,-142.8 646.92,-139.3 646.92,-146.3"/>
</g>
<!-- FormComponent  -->
<g id="node11" class="node">
<title>FormComponent </title>
<polygon fill="#fb8072" stroke="black" points="833.67,-214.8 718.33,-214.8 718.33,-178.8 833.67,-178.8 833.67,-214.8"/>
<text text-anchor="middle" x="776" y="-192.6" font-family="Times,serif" font-size="14.00">FormComponent </text>
</g>
<!-- FormModule&#45;&gt;FormComponent  -->
<g id="edge10" class="edge">
<title>FormModule&#45;&gt;FormComponent </title>
<path fill="none" stroke="black" stroke-dasharray="5,2" d="M732.68,-149.91C732.68,-149.91 732.68,-168.79 732.68,-168.79"/>
<polygon fill="black" stroke="black" points="729.18,-168.79 732.68,-178.79 736.18,-168.79 729.18,-168.79"/>
</g>
<!-- FormFieldComponent  -->
<g id="node12" class="node">
<title>FormFieldComponent </title>
<polygon fill="#fb8072" stroke="black" points="699.94,-214.8 556.06,-214.8 556.06,-178.8 699.94,-178.8 699.94,-214.8"/>
<text text-anchor="middle" x="628" y="-192.6" font-family="Times,serif" font-size="14.00">FormFieldComponent </text>
</g>
<!-- FormModule&#45;&gt;FormFieldComponent  -->
<g id="edge11" class="edge">
<title>FormModule&#45;&gt;FormFieldComponent </title>
<path fill="none" stroke="black" stroke-dasharray="5,2" d="M678.52,-149.91C678.52,-149.91 678.52,-168.79 678.52,-168.79"/>
<polygon fill="black" stroke="black" points="675.02,-168.79 678.52,-178.79 682.02,-168.79 675.02,-168.79"/>
</g>
<!-- FormStoreModule -->
<g id="node9" class="node">
<title>FormStoreModule</title>
<polygon fill="#8dd3c7" stroke="black" points="1363.93,-84.8 1360.93,-88.8 1339.93,-88.8 1336.93,-84.8 1244.07,-84.8 1244.07,-48.8 1363.93,-48.8 1363.93,-84.8"/>
<text text-anchor="middle" x="1304" y="-62.6" font-family="Times,serif" font-size="14.00">FormStoreModule</text>
</g>
<!-- FormStoreModule&#45;&gt;FormModule -->
<g id="edge8" class="edge">
<title>FormStoreModule&#45;&gt;FormModule</title>
<path fill="none" stroke="black" d="M1304,-84.81C1304,-107.29 1304,-142.8 1304,-142.8 1304,-142.8 757.25,-142.8 757.25,-142.8"/>
<polygon fill="black" stroke="black" points="757.25,-139.3 747.25,-142.8 757.25,-146.3 757.25,-139.3"/>
</g>
<!-- SetAttributeModule -->
<g id="node10" class="node">
<title>SetAttributeModule</title>
<polygon fill="#8dd3c7" stroke="black" points="1225.98,-84.8 1222.98,-88.8 1201.98,-88.8 1198.98,-84.8 1098.02,-84.8 1098.02,-48.8 1225.98,-48.8 1225.98,-84.8"/>
<text text-anchor="middle" x="1162" y="-62.6" font-family="Times,serif" font-size="14.00">SetAttributeModule</text>
</g>
<!-- SetAttributeModule&#45;&gt;FormModule -->
<g id="edge9" class="edge">
<title>SetAttributeModule&#45;&gt;FormModule</title>
<path fill="none" stroke="black" d="M1162,-84.93C1162,-105.37 1162,-135.8 1162,-135.8 1162,-135.8 756.94,-135.8 756.94,-135.8"/>
<polygon fill="black" stroke="black" points="756.94,-132.3 746.94,-135.8 756.94,-139.3 756.94,-132.3"/>
</g>
</g>
</svg>
