<?xml version="1.0" encoding="UTF-8" standalone="no"?>
<!DOCTYPE svg PUBLIC "-//W3C//DTD SVG 1.1//EN"
 "http://www.w3.org/Graphics/SVG/1.1/DTD/svg11.dtd">
<!-- Generated by graphviz version 2.47.3 (20210619.1520)
 -->
<!-- Title: dependencies Pages: 1 -->
<svg width="803pt" height="174pt"
 viewBox="0.00 0.00 803.00 173.80" xmlns="http://www.w3.org/2000/svg" xmlns:xlink="http://www.w3.org/1999/xlink">
<g id="graph0" class="graph" transform="scale(1 1) rotate(0) translate(4 169.8)">
<title>dependencies</title>
<polygon fill="white" stroke="transparent" points="-4,4 -4,-169.8 799,-169.8 799,4 -4,4"/>
<text text-anchor="middle" x="397.5" y="-8.2" font-family="sans-serif" font-size="14.00">dependencies</text>
<g id="clust1" class="cluster">
<title>cluster_MaterialDocModule</title>
<polygon fill="none" stroke="black" stroke-dasharray="1,5" points="8,-32.8 8,-157.8 787,-157.8 787,-32.8 8,-32.8"/>
</g>
<g id="clust2" class="cluster">
<title>cluster_MaterialDocModule_declarations</title>
<polygon fill="none" stroke="black" points="271,-40.8 271,-92.8 779,-92.8 779,-40.8 271,-40.8"/>
</g>
<g id="clust6" class="cluster">
<title>cluster_MaterialDocModule_imports</title>
<polygon fill="none" stroke="black" points="16,-40.8 16,-92.8 263,-92.8 263,-40.8 16,-40.8"/>
</g>
<!-- GreetingDocComponent -->
<g id="node1" class="node">
<title>GreetingDocComponent</title>
<polygon fill="#ffffb3" stroke="black" points="770.63,-84.8 617.37,-84.8 617.37,-48.8 770.63,-48.8 770.63,-84.8"/>
<text text-anchor="middle" x="694" y="-62.6" font-family="Times,serif" font-size="14.00">GreetingDocComponent</text>
</g>
<!-- MaterialDocModule -->
<g id="node4" class="node">
<title>MaterialDocModule</title>
<polygon fill="#8dd3c7" stroke="black" points="419.29,-149.8 416.29,-153.8 395.29,-153.8 392.29,-149.8 288.71,-149.8 288.71,-113.8 419.29,-113.8 419.29,-149.8"/>
<text text-anchor="middle" x="354" y="-127.6" font-family="Times,serif" font-size="14.00">MaterialDocModule</text>
</g>
<!-- GreetingDocComponent&#45;&gt;MaterialDocModule -->
<g id="edge1" class="edge">
<title>GreetingDocComponent&#45;&gt;MaterialDocModule</title>
<path fill="none" stroke="black" d="M694,-85.08C694,-106.12 694,-137.8 694,-137.8 694,-137.8 429.15,-137.8 429.15,-137.8"/>
<polygon fill="black" stroke="black" points="429.15,-134.3 419.15,-137.8 429.15,-141.3 429.15,-134.3"/>
</g>
<!-- MaterialDocComponent -->
<g id="node2" class="node">
<title>MaterialDocComponent</title>
<polygon fill="#ffffb3" stroke="black" points="599.07,-84.8 446.93,-84.8 446.93,-48.8 599.07,-48.8 599.07,-84.8"/>
<text text-anchor="middle" x="523" y="-62.6" font-family="Times,serif" font-size="14.00">MaterialDocComponent</text>
</g>
<!-- MaterialDocComponent&#45;&gt;MaterialDocModule -->
<g id="edge2" class="edge">
<title>MaterialDocComponent&#45;&gt;MaterialDocModule</title>
<path fill="none" stroke="black" d="M523,-84.82C523,-102.17 523,-125.8 523,-125.8 523,-125.8 429.34,-125.8 429.34,-125.8"/>
<polygon fill="black" stroke="black" points="429.34,-122.3 419.34,-125.8 429.34,-129.3 429.34,-122.3"/>
</g>
<!-- SidenavDocComponent -->
<g id="node3" class="node">
<title>SidenavDocComponent</title>
<polygon fill="#ffffb3" stroke="black" points="428.76,-84.8 279.24,-84.8 279.24,-48.8 428.76,-48.8 428.76,-84.8"/>
<text text-anchor="middle" x="354" y="-62.6" font-family="Times,serif" font-size="14.00">SidenavDocComponent</text>
</g>
<!-- SidenavDocComponent&#45;&gt;MaterialDocModule -->
<g id="edge3" class="edge">
<title>SidenavDocComponent&#45;&gt;MaterialDocModule</title>
<path fill="none" stroke="black" d="M354,-84.91C354,-84.91 354,-103.79 354,-103.79"/>
<polygon fill="black" stroke="black" points="350.5,-103.79 354,-113.79 357.5,-103.79 350.5,-103.79"/>
</g>
<!-- GreetingModule -->
<g id="node5" class="node">
<title>GreetingModule</title>
<polygon fill="#8dd3c7" stroke="black" points="255.03,-84.8 252.03,-88.8 231.03,-88.8 228.03,-84.8 146.97,-84.8 146.97,-48.8 255.03,-48.8 255.03,-84.8"/>
<text text-anchor="middle" x="201" y="-62.6" font-family="Times,serif" font-size="14.00">GreetingModule</text>
</g>
<!-- GreetingModule&#45;&gt;MaterialDocModule -->
<g id="edge4" class="edge">
<title>GreetingModule&#45;&gt;MaterialDocModule</title>
<path fill="none" stroke="black" d="M201,-84.82C201,-102.17 201,-125.8 201,-125.8 201,-125.8 278.67,-125.8 278.67,-125.8"/>
<polygon fill="black" stroke="black" points="278.67,-129.3 288.67,-125.8 278.67,-122.3 278.67,-129.3"/>
</g>
<!-- SidenavModule -->
<g id="node6" class="node">
<title>SidenavModule</title>
<polygon fill="#8dd3c7" stroke="black" points="128.15,-84.8 125.15,-88.8 104.15,-88.8 101.15,-84.8 23.85,-84.8 23.85,-48.8 128.15,-48.8 128.15,-84.8"/>
<text text-anchor="middle" x="76" y="-62.6" font-family="Times,serif" font-size="14.00">SidenavModule</text>
</g>
<!-- SidenavModule&#45;&gt;MaterialDocModule -->
<g id="edge5" class="edge">
<title>SidenavModule&#45;&gt;MaterialDocModule</title>
<path fill="none" stroke="black" d="M76,-85.08C76,-106.12 76,-137.8 76,-137.8 76,-137.8 278.82,-137.8 278.82,-137.8"/>
<polygon fill="black" stroke="black" points="278.82,-141.3 288.82,-137.8 278.82,-134.3 278.82,-141.3"/>
</g>
</g>
</svg>
