<?xml version="1.0" encoding="UTF-8" standalone="no"?>
<!DOCTYPE svg PUBLIC "-//W3C//DTD SVG 1.1//EN"
 "http://www.w3.org/Graphics/SVG/1.1/DTD/svg11.dtd">
<!-- Generated by graphviz version 2.47.3 (20210619.1520)
 -->
<!-- Title: dependencies Pages: 1 -->
<svg width="1988pt" height="174pt"
 viewBox="0.00 0.00 1988.00 173.80" xmlns="http://www.w3.org/2000/svg" xmlns:xlink="http://www.w3.org/1999/xlink">
<g id="graph0" class="graph" transform="scale(1 1) rotate(0) translate(4 169.8)">
<title>dependencies</title>
<polygon fill="white" stroke="transparent" points="-4,4 -4,-169.8 1984,-169.8 1984,4 -4,4"/>
<text text-anchor="middle" x="990" y="-8.2" font-family="sans-serif" font-size="14.00">dependencies</text>
<g id="clust1" class="cluster">
<title>cluster_MaterialDocModule</title>
<polygon fill="none" stroke="black" stroke-dasharray="1,5" points="8,-32.8 8,-157.8 1972,-157.8 1972,-32.8 8,-32.8"/>
</g>
<g id="clust10" class="cluster">
<title>cluster_MaterialDocModule_imports</title>
<polygon fill="none" stroke="black" points="1153,-40.8 1153,-92.8 1964,-92.8 1964,-40.8 1153,-40.8"/>
</g>
<g id="clust2" class="cluster">
<title>cluster_MaterialDocModule_declarations</title>
<polygon fill="none" stroke="black" points="16,-40.8 16,-92.8 1145,-92.8 1145,-40.8 16,-40.8"/>
</g>
<!-- CarouselDocComponent -->
<g id="node1" class="node">
<title>CarouselDocComponent</title>
<polygon fill="#ffffb3" stroke="black" points="1137.42,-84.8 982.58,-84.8 982.58,-48.8 1137.42,-48.8 1137.42,-84.8"/>
<text text-anchor="middle" x="1060" y="-62.6" font-family="Times,serif" font-size="14.00">CarouselDocComponent</text>
</g>
<!-- MaterialDocModule -->
<g id="node8" class="node">
<title>MaterialDocModule</title>
<polygon fill="#8dd3c7" stroke="black" points="1200.29,-149.8 1197.29,-153.8 1176.29,-153.8 1173.29,-149.8 1069.71,-149.8 1069.71,-113.8 1200.29,-113.8 1200.29,-149.8"/>
<text text-anchor="middle" x="1135" y="-127.6" font-family="Times,serif" font-size="14.00">MaterialDocModule</text>
</g>
<!-- CarouselDocComponent&#45;&gt;MaterialDocModule -->
<g id="edge1" class="edge">
<title>CarouselDocComponent&#45;&gt;MaterialDocModule</title>
<path fill="none" stroke="black" d="M1103.53,-84.91C1103.53,-84.91 1103.53,-103.79 1103.53,-103.79"/>
<polygon fill="black" stroke="black" points="1100.03,-103.79 1103.53,-113.79 1107.03,-103.79 1100.03,-103.79"/>
</g>
<!-- ChartDocComponent -->
<g id="node2" class="node">
<title>ChartDocComponent</title>
<polygon fill="#ffffb3" stroke="black" points="964.76,-84.8 829.24,-84.8 829.24,-48.8 964.76,-48.8 964.76,-84.8"/>
<text text-anchor="middle" x="897" y="-62.6" font-family="Times,serif" font-size="14.00">ChartDocComponent</text>
</g>
<!-- ChartDocComponent&#45;&gt;MaterialDocModule -->
<g id="edge2" class="edge">
<title>ChartDocComponent&#45;&gt;MaterialDocModule</title>
<path fill="none" stroke="black" d="M897,-85.04C897,-100.37 897,-119.8 897,-119.8 897,-119.8 1059.65,-119.8 1059.65,-119.8"/>
<polygon fill="black" stroke="black" points="1059.65,-123.3 1069.65,-119.8 1059.65,-116.3 1059.65,-123.3"/>
</g>
<!-- FormDocComponent -->
<g id="node3" class="node">
<title>FormDocComponent</title>
<polygon fill="#ffffb3" stroke="black" points="811.49,-84.8 676.51,-84.8 676.51,-48.8 811.49,-48.8 811.49,-84.8"/>
<text text-anchor="middle" x="744" y="-62.6" font-family="Times,serif" font-size="14.00">FormDocComponent</text>
</g>
<!-- FormDocComponent&#45;&gt;MaterialDocModule -->
<g id="edge3" class="edge">
<title>FormDocComponent&#45;&gt;MaterialDocModule</title>
<path fill="none" stroke="black" d="M744,-84.83C744,-101.86 744,-124.8 744,-124.8 744,-124.8 1059.56,-124.8 1059.56,-124.8"/>
<polygon fill="black" stroke="black" points="1059.56,-128.3 1069.56,-124.8 1059.56,-121.3 1059.56,-128.3"/>
</g>
<!-- MaterialDocComponent -->
<g id="node4" class="node">
<title>MaterialDocComponent</title>
<polygon fill="#ffffb3" stroke="black" points="658.07,-84.8 505.93,-84.8 505.93,-48.8 658.07,-48.8 658.07,-84.8"/>
<text text-anchor="middle" x="582" y="-62.6" font-family="Times,serif" font-size="14.00">MaterialDocComponent</text>
</g>
<!-- MaterialDocComponent&#45;&gt;MaterialDocModule -->
<g id="edge4" class="edge">
<title>MaterialDocComponent&#45;&gt;MaterialDocModule</title>
<path fill="none" stroke="black" d="M582,-85.02C582,-103.63 582,-129.8 582,-129.8 582,-129.8 1059.67,-129.8 1059.67,-129.8"/>
<polygon fill="black" stroke="black" points="1059.67,-133.3 1069.67,-129.8 1059.67,-126.3 1059.67,-133.3"/>
</g>
<!-- NavbarDocComponent -->
<g id="node5" class="node">
<title>NavbarDocComponent</title>
<polygon fill="#ffffb3" stroke="black" points="487.85,-84.8 342.15,-84.8 342.15,-48.8 487.85,-48.8 487.85,-84.8"/>
<text text-anchor="middle" x="415" y="-62.6" font-family="Times,serif" font-size="14.00">NavbarDocComponent</text>
</g>
<!-- NavbarDocComponent&#45;&gt;MaterialDocModule -->
<g id="edge5" class="edge">
<title>NavbarDocComponent&#45;&gt;MaterialDocModule</title>
<path fill="none" stroke="black" d="M415,-85.02C415,-105.17 415,-134.8 415,-134.8 415,-134.8 1059.83,-134.8 1059.83,-134.8"/>
<polygon fill="black" stroke="black" points="1059.83,-138.3 1069.83,-134.8 1059.83,-131.3 1059.83,-138.3"/>
</g>
<!-- TableDocComponent -->
<g id="node6" class="node">
<title>TableDocComponent</title>
<polygon fill="#ffffb3" stroke="black" points="324.03,-84.8 187.97,-84.8 187.97,-48.8 324.03,-48.8 324.03,-84.8"/>
<text text-anchor="middle" x="256" y="-62.6" font-family="Times,serif" font-size="14.00">TableDocComponent</text>
</g>
<!-- TableDocComponent&#45;&gt;MaterialDocModule -->
<g id="edge6" class="edge">
<title>TableDocComponent&#45;&gt;MaterialDocModule</title>
<path fill="none" stroke="black" d="M256,-84.84C256,-106.46 256,-139.8 256,-139.8 256,-139.8 1059.65,-139.8 1059.65,-139.8"/>
<polygon fill="black" stroke="black" points="1059.65,-143.3 1069.65,-139.8 1059.65,-136.3 1059.65,-143.3"/>
</g>
<!-- TypingDocComponent -->
<g id="node7" class="node">
<title>TypingDocComponent</title>
<polygon fill="#ffffb3" stroke="black" points="169.6,-84.8 24.4,-84.8 24.4,-48.8 169.6,-48.8 169.6,-84.8"/>
<text text-anchor="middle" x="97" y="-62.6" font-family="Times,serif" font-size="14.00">TypingDocComponent</text>
</g>
<!-- TypingDocComponent&#45;&gt;MaterialDocModule -->
<g id="edge7" class="edge">
<title>TypingDocComponent&#45;&gt;MaterialDocModule</title>
<path fill="none" stroke="black" d="M97,-84.89C97,-107.93 97,-144.8 97,-144.8 97,-144.8 1059.68,-144.8 1059.68,-144.8"/>
<polygon fill="black" stroke="black" points="1059.68,-148.3 1069.68,-144.8 1059.68,-141.3 1059.68,-148.3"/>
</g>
<!-- CarouselModule -->
<g id="node9" class="node">
<title>CarouselModule</title>
<polygon fill="#8dd3c7" stroke="black" points="1955.81,-84.8 1952.81,-88.8 1931.81,-88.8 1928.81,-84.8 1846.19,-84.8 1846.19,-48.8 1955.81,-48.8 1955.81,-84.8"/>
<text text-anchor="middle" x="1901" y="-62.6" font-family="Times,serif" font-size="14.00">CarouselModule</text>
</g>
<!-- CarouselModule&#45;&gt;MaterialDocModule -->
<g id="edge8" class="edge">
<title>CarouselModule&#45;&gt;MaterialDocModule</title>
<path fill="none" stroke="black" d="M1901,-84.89C1901,-107.93 1901,-144.8 1901,-144.8 1901,-144.8 1210.31,-144.8 1210.31,-144.8"/>
<polygon fill="black" stroke="black" points="1210.31,-141.3 1200.31,-144.8 1210.31,-148.3 1210.31,-141.3"/>
</g>
<!-- ChartModule -->
<g id="node10" class="node">
<title>ChartModule</title>
<polygon fill="#8dd3c7" stroke="black" points="1828.15,-84.8 1825.15,-88.8 1804.15,-88.8 1801.15,-84.8 1737.85,-84.8 1737.85,-48.8 1828.15,-48.8 1828.15,-84.8"/>
<text text-anchor="middle" x="1783" y="-62.6" font-family="Times,serif" font-size="14.00">ChartModule</text>
</g>
<!-- ChartModule&#45;&gt;MaterialDocModule -->
<g id="edge9" class="edge">
<title>ChartModule&#45;&gt;MaterialDocModule</title>
<path fill="none" stroke="black" d="M1783,-84.84C1783,-106.46 1783,-139.8 1783,-139.8 1783,-139.8 1210.4,-139.8 1210.4,-139.8"/>
<polygon fill="black" stroke="black" points="1210.4,-136.3 1200.4,-139.8 1210.4,-143.3 1210.4,-136.3"/>
</g>
<!-- FormModule -->
<g id="node11" class="node">
<title>FormModule</title>
<polygon fill="#8dd3c7" stroke="black" points="1719.88,-84.8 1716.88,-88.8 1695.88,-88.8 1692.88,-84.8 1630.12,-84.8 1630.12,-48.8 1719.88,-48.8 1719.88,-84.8"/>
<text text-anchor="middle" x="1675" y="-62.6" font-family="Times,serif" font-size="14.00">FormModule</text>
</g>
<!-- FormModule&#45;&gt;MaterialDocModule -->
<g id="edge10" class="edge">
<title>FormModule&#45;&gt;MaterialDocModule</title>
<path fill="none" stroke="black" d="M1675,-85.02C1675,-105.17 1675,-134.8 1675,-134.8 1675,-134.8 1210.41,-134.8 1210.41,-134.8"/>
<polygon fill="black" stroke="black" points="1210.41,-131.3 1200.41,-134.8 1210.41,-138.3 1210.41,-131.3"/>
</g>
<!-- NavbarModule -->
<g id="node12" class="node">
<title>NavbarModule</title>
<polygon fill="#8dd3c7" stroke="black" points="1612.25,-84.8 1609.25,-88.8 1588.25,-88.8 1585.25,-84.8 1511.75,-84.8 1511.75,-48.8 1612.25,-48.8 1612.25,-84.8"/>
<text text-anchor="middle" x="1562" y="-62.6" font-family="Times,serif" font-size="14.00">NavbarModule</text>
</g>
<!-- NavbarModule&#45;&gt;MaterialDocModule -->
<g id="edge11" class="edge">
<title>NavbarModule&#45;&gt;MaterialDocModule</title>
<path fill="none" stroke="black" d="M1562,-85.02C1562,-103.63 1562,-129.8 1562,-129.8 1562,-129.8 1210.32,-129.8 1210.32,-129.8"/>
<polygon fill="black" stroke="black" points="1210.32,-126.3 1200.32,-129.8 1210.32,-133.3 1210.32,-126.3"/>
</g>
<!-- SidenavModule -->
<g id="node13" class="node">
<title>SidenavModule</title>
<polygon fill="#8dd3c7" stroke="black" points="1493.15,-84.8 1490.15,-88.8 1469.15,-88.8 1466.15,-84.8 1388.85,-84.8 1388.85,-48.8 1493.15,-48.8 1493.15,-84.8"/>
<text text-anchor="middle" x="1441" y="-62.6" font-family="Times,serif" font-size="14.00">SidenavModule</text>
</g>
<!-- SidenavModule&#45;&gt;MaterialDocModule -->
<g id="edge12" class="edge">
<title>SidenavModule&#45;&gt;MaterialDocModule</title>
<path fill="none" stroke="black" d="M1441,-84.83C1441,-101.86 1441,-124.8 1441,-124.8 1441,-124.8 1210.27,-124.8 1210.27,-124.8"/>
<polygon fill="black" stroke="black" points="1210.27,-121.3 1200.27,-124.8 1210.27,-128.3 1210.27,-121.3"/>
</g>
<!-- TableModule -->
<g id="node14" class="node">
<title>TableModule</title>
<polygon fill="#8dd3c7" stroke="black" points="1370.92,-84.8 1367.92,-88.8 1346.92,-88.8 1343.92,-84.8 1279.08,-84.8 1279.08,-48.8 1370.92,-48.8 1370.92,-84.8"/>
<text text-anchor="middle" x="1325" y="-62.6" font-family="Times,serif" font-size="14.00">TableModule</text>
</g>
<!-- TableModule&#45;&gt;MaterialDocModule -->
<g id="edge13" class="edge">
<title>TableModule&#45;&gt;MaterialDocModule</title>
<path fill="none" stroke="black" d="M1325,-85.04C1325,-100.37 1325,-119.8 1325,-119.8 1325,-119.8 1210.39,-119.8 1210.39,-119.8"/>
<polygon fill="black" stroke="black" points="1210.39,-116.3 1200.39,-119.8 1210.39,-123.3 1210.39,-116.3"/>
</g>
<!-- TypingModule -->
<g id="node15" class="node">
<title>TypingModule</title>
<polygon fill="#8dd3c7" stroke="black" points="1260.99,-84.8 1257.99,-88.8 1236.99,-88.8 1233.99,-84.8 1161.01,-84.8 1161.01,-48.8 1260.99,-48.8 1260.99,-84.8"/>
<text text-anchor="middle" x="1211" y="-62.6" font-family="Times,serif" font-size="14.00">TypingModule</text>
</g>
<!-- TypingModule&#45;&gt;MaterialDocModule -->
<g id="edge14" class="edge">
<title>TypingModule&#45;&gt;MaterialDocModule</title>
<path fill="none" stroke="black" d="M1180.57,-84.91C1180.57,-84.91 1180.57,-103.79 1180.57,-103.79"/>
<polygon fill="black" stroke="black" points="1177.07,-103.79 1180.57,-113.79 1184.07,-103.79 1177.07,-103.79"/>
</g>
</g>
</svg>
