<?xml version="1.0" encoding="UTF-8" standalone="no"?>
<!DOCTYPE svg PUBLIC "-//W3C//DTD SVG 1.1//EN"
 "http://www.w3.org/Graphics/SVG/1.1/DTD/svg11.dtd">
<!-- Generated by graphviz version 2.47.3 (20210619.1520)
 -->
<!-- Title: dependencies Pages: 1 -->
<svg width="512pt" height="174pt"
 viewBox="0.00 0.00 512.00 173.80" xmlns="http://www.w3.org/2000/svg" xmlns:xlink="http://www.w3.org/1999/xlink">
<g id="graph0" class="graph" transform="scale(1 1) rotate(0) translate(4 169.8)">
<title>dependencies</title>
<polygon fill="white" stroke="transparent" points="-4,4 -4,-169.8 508,-169.8 508,4 -4,4"/>
<text text-anchor="middle" x="252" y="-8.2" font-family="sans-serif" font-size="14.00">dependencies</text>
<g id="clust1" class="cluster">
<title>cluster_MaterialDocModule</title>
<polygon fill="none" stroke="black" stroke-dasharray="1,5" points="8,-32.8 8,-157.8 496,-157.8 496,-32.8 8,-32.8"/>
</g>
<g id="clust2" class="cluster">
<title>cluster_MaterialDocModule_declarations</title>
<polygon fill="none" stroke="black" points="148,-40.8 148,-92.8 488,-92.8 488,-40.8 148,-40.8"/>
</g>
<g id="clust5" class="cluster">
<title>cluster_MaterialDocModule_imports</title>
<polygon fill="none" stroke="black" points="16,-40.8 16,-92.8 140,-92.8 140,-40.8 16,-40.8"/>
</g>
<!-- GreetingDocComponent -->
<g id="node1" class="node">
<title>GreetingDocComponent</title>
<polygon fill="#ffffb3" stroke="black" points="479.63,-84.8 326.37,-84.8 326.37,-48.8 479.63,-48.8 479.63,-84.8"/>
<text text-anchor="middle" x="403" y="-62.6" font-family="Times,serif" font-size="14.00">GreetingDocComponent</text>
</g>
<!-- MaterialDocModule -->
<g id="node3" class="node">
<title>MaterialDocModule</title>
<polygon fill="#8dd3c7" stroke="black" points="297.29,-149.8 294.29,-153.8 273.29,-153.8 270.29,-149.8 166.71,-149.8 166.71,-113.8 297.29,-113.8 297.29,-149.8"/>
<text text-anchor="middle" x="232" y="-127.6" font-family="Times,serif" font-size="14.00">MaterialDocModule</text>
</g>
<!-- GreetingDocComponent&#45;&gt;MaterialDocModule -->
<g id="edge1" class="edge">
<title>GreetingDocComponent&#45;&gt;MaterialDocModule</title>
<path fill="none" stroke="black" d="M403,-84.91C403,-104.14 403,-131.8 403,-131.8 403,-131.8 307.62,-131.8 307.62,-131.8"/>
<polygon fill="black" stroke="black" points="307.62,-128.3 297.62,-131.8 307.62,-135.3 307.62,-128.3"/>
</g>
<!-- MaterialDocComponent -->
<g id="node2" class="node">
<title>MaterialDocComponent</title>
<polygon fill="#ffffb3" stroke="black" points="308.07,-84.8 155.93,-84.8 155.93,-48.8 308.07,-48.8 308.07,-84.8"/>
<text text-anchor="middle" x="232" y="-62.6" font-family="Times,serif" font-size="14.00">MaterialDocComponent</text>
</g>
<!-- MaterialDocComponent&#45;&gt;MaterialDocModule -->
<g id="edge2" class="edge">
<title>MaterialDocComponent&#45;&gt;MaterialDocModule</title>
<path fill="none" stroke="black" d="M232,-84.91C232,-84.91 232,-103.79 232,-103.79"/>
<polygon fill="black" stroke="black" points="228.5,-103.79 232,-113.79 235.5,-103.79 228.5,-103.79"/>
</g>
<!-- GreetingModule -->
<g id="node4" class="node">
<title>GreetingModule</title>
<polygon fill="#8dd3c7" stroke="black" points="132.03,-84.8 129.03,-88.8 108.03,-88.8 105.03,-84.8 23.97,-84.8 23.97,-48.8 132.03,-48.8 132.03,-84.8"/>
<text text-anchor="middle" x="78" y="-62.6" font-family="Times,serif" font-size="14.00">GreetingModule</text>
</g>
<!-- GreetingModule&#45;&gt;MaterialDocModule -->
<g id="edge3" class="edge">
<title>GreetingModule&#45;&gt;MaterialDocModule</title>
<path fill="none" stroke="black" d="M78,-84.91C78,-104.14 78,-131.8 78,-131.8 78,-131.8 156.69,-131.8 156.69,-131.8"/>
<polygon fill="black" stroke="black" points="156.69,-135.3 166.69,-131.8 156.69,-128.3 156.69,-135.3"/>
</g>
</g>
</svg>
