<?xml version="1.0" encoding="UTF-8" standalone="no"?>
<!DOCTYPE svg PUBLIC "-//W3C//DTD SVG 1.1//EN"
 "http://www.w3.org/Graphics/SVG/1.1/DTD/svg11.dtd">
<!-- Generated by graphviz version 2.47.3 (20210619.1520)
 -->
<!-- Title: dependencies Pages: 1 -->
<svg width="2555pt" height="174pt"
 viewBox="0.00 0.00 2555.00 173.80" xmlns="http://www.w3.org/2000/svg" xmlns:xlink="http://www.w3.org/1999/xlink">
<g id="graph0" class="graph" transform="scale(1 1) rotate(0) translate(4 169.8)">
<title>dependencies</title>
<polygon fill="white" stroke="transparent" points="-4,4 -4,-169.8 2551,-169.8 2551,4 -4,4"/>
<text text-anchor="middle" x="1273.5" y="-8.2" font-family="sans-serif" font-size="14.00">dependencies</text>
<g id="clust1" class="cluster">
<title>cluster_MaterialDocModule</title>
<polygon fill="none" stroke="black" stroke-dasharray="1,5" points="8,-32.8 8,-157.8 2539,-157.8 2539,-32.8 8,-32.8"/>
</g>
<g id="clust12" class="cluster">
<title>cluster_MaterialDocModule_imports</title>
<polygon fill="none" stroke="black" points="1481,-40.8 1481,-92.8 2531,-92.8 2531,-40.8 1481,-40.8"/>
</g>
<g id="clust2" class="cluster">
<title>cluster_MaterialDocModule_declarations</title>
<polygon fill="none" stroke="black" points="16,-40.8 16,-92.8 1473,-92.8 1473,-40.8 16,-40.8"/>
</g>
<!-- CarouselDocComponent -->
<g id="node1" class="node">
<title>CarouselDocComponent</title>
<polygon fill="#ffffb3" stroke="black" points="1465.42,-84.8 1310.58,-84.8 1310.58,-48.8 1465.42,-48.8 1465.42,-84.8"/>
<text text-anchor="middle" x="1388" y="-62.6" font-family="Times,serif" font-size="14.00">CarouselDocComponent</text>
</g>
<!-- MaterialDocModule -->
<g id="node10" class="node">
<title>MaterialDocModule</title>
<polygon fill="#8dd3c7" stroke="black" points="1528.29,-149.8 1525.29,-153.8 1504.29,-153.8 1501.29,-149.8 1397.71,-149.8 1397.71,-113.8 1528.29,-113.8 1528.29,-149.8"/>
<text text-anchor="middle" x="1463" y="-127.6" font-family="Times,serif" font-size="14.00">MaterialDocModule</text>
</g>
<!-- CarouselDocComponent&#45;&gt;MaterialDocModule -->
<g id="edge1" class="edge">
<title>CarouselDocComponent&#45;&gt;MaterialDocModule</title>
<path fill="none" stroke="black" d="M1431.53,-84.91C1431.53,-84.91 1431.53,-103.79 1431.53,-103.79"/>
<polygon fill="black" stroke="black" points="1428.03,-103.79 1431.53,-113.79 1435.03,-103.79 1428.03,-103.79"/>
</g>
<!-- ChartDocComponent -->
<g id="node2" class="node">
<title>ChartDocComponent</title>
<polygon fill="#ffffb3" stroke="black" points="1292.76,-84.8 1157.24,-84.8 1157.24,-48.8 1292.76,-48.8 1292.76,-84.8"/>
<text text-anchor="middle" x="1225" y="-62.6" font-family="Times,serif" font-size="14.00">ChartDocComponent</text>
</g>
<!-- ChartDocComponent&#45;&gt;MaterialDocModule -->
<g id="edge2" class="edge">
<title>ChartDocComponent&#45;&gt;MaterialDocModule</title>
<path fill="none" stroke="black" d="M1225,-84.92C1225,-99.58 1225,-117.8 1225,-117.8 1225,-117.8 1387.65,-117.8 1387.65,-117.8"/>
<polygon fill="black" stroke="black" points="1387.65,-121.3 1397.65,-117.8 1387.65,-114.3 1387.65,-121.3"/>
</g>
<!-- FormDocComponent -->
<g id="node3" class="node">
<title>FormDocComponent</title>
<polygon fill="#ffffb3" stroke="black" points="1139.49,-84.8 1004.51,-84.8 1004.51,-48.8 1139.49,-48.8 1139.49,-84.8"/>
<text text-anchor="middle" x="1072" y="-62.6" font-family="Times,serif" font-size="14.00">FormDocComponent</text>
</g>
<!-- FormDocComponent&#45;&gt;MaterialDocModule -->
<g id="edge3" class="edge">
<title>FormDocComponent&#45;&gt;MaterialDocModule</title>
<path fill="none" stroke="black" d="M1072,-84.81C1072,-100.85 1072,-121.8 1072,-121.8 1072,-121.8 1387.56,-121.8 1387.56,-121.8"/>
<polygon fill="black" stroke="black" points="1387.56,-125.3 1397.56,-121.8 1387.56,-118.3 1387.56,-125.3"/>
</g>
<!-- InvoiceDocComponent -->
<g id="node4" class="node">
<title>InvoiceDocComponent</title>
<polygon fill="#ffffb3" stroke="black" points="986.13,-84.8 839.87,-84.8 839.87,-48.8 986.13,-48.8 986.13,-84.8"/>
<text text-anchor="middle" x="913" y="-62.6" font-family="Times,serif" font-size="14.00">InvoiceDocComponent</text>
</g>
<!-- InvoiceDocComponent&#45;&gt;MaterialDocModule -->
<g id="edge4" class="edge">
<title>InvoiceDocComponent&#45;&gt;MaterialDocModule</title>
<path fill="none" stroke="black" d="M913,-84.82C913,-102.17 913,-125.8 913,-125.8 913,-125.8 1387.75,-125.8 1387.75,-125.8"/>
<polygon fill="black" stroke="black" points="1387.75,-129.3 1397.75,-125.8 1387.75,-122.3 1387.75,-129.3"/>
</g>
<!-- MaterialDocComponent -->
<g id="node5" class="node">
<title>MaterialDocComponent</title>
<polygon fill="#ffffb3" stroke="black" points="822.07,-84.8 669.93,-84.8 669.93,-48.8 822.07,-48.8 822.07,-84.8"/>
<text text-anchor="middle" x="746" y="-62.6" font-family="Times,serif" font-size="14.00">MaterialDocComponent</text>
</g>
<!-- MaterialDocComponent&#45;&gt;MaterialDocModule -->
<g id="edge5" class="edge">
<title>MaterialDocComponent&#45;&gt;MaterialDocModule</title>
<path fill="none" stroke="black" d="M746,-85.02C746,-103.63 746,-129.8 746,-129.8 746,-129.8 1387.79,-129.8 1387.79,-129.8"/>
<polygon fill="black" stroke="black" points="1387.79,-133.3 1397.79,-129.8 1387.79,-126.3 1387.79,-133.3"/>
</g>
<!-- NavbarDocComponent -->
<g id="node6" class="node">
<title>NavbarDocComponent</title>
<polygon fill="#ffffb3" stroke="black" points="651.85,-84.8 506.15,-84.8 506.15,-48.8 651.85,-48.8 651.85,-84.8"/>
<text text-anchor="middle" x="579" y="-62.6" font-family="Times,serif" font-size="14.00">NavbarDocComponent</text>
</g>
<!-- NavbarDocComponent&#45;&gt;MaterialDocModule -->
<g id="edge6" class="edge">
<title>NavbarDocComponent&#45;&gt;MaterialDocModule</title>
<path fill="none" stroke="black" d="M579,-85.11C579,-104.95 579,-133.8 579,-133.8 579,-133.8 1387.64,-133.8 1387.64,-133.8"/>
<polygon fill="black" stroke="black" points="1387.64,-137.3 1397.64,-133.8 1387.64,-130.3 1387.64,-137.3"/>
</g>
<!-- QrcodeDocComponent -->
<g id="node7" class="node">
<title>QrcodeDocComponent</title>
<polygon fill="#ffffb3" stroke="black" points="487.85,-84.8 342.15,-84.8 342.15,-48.8 487.85,-48.8 487.85,-84.8"/>
<text text-anchor="middle" x="415" y="-62.6" font-family="Times,serif" font-size="14.00">QrcodeDocComponent</text>
</g>
<!-- QrcodeDocComponent&#45;&gt;MaterialDocModule -->
<g id="edge7" class="edge">
<title>QrcodeDocComponent&#45;&gt;MaterialDocModule</title>
<path fill="none" stroke="black" d="M415,-85.08C415,-106.12 415,-137.8 415,-137.8 415,-137.8 1387.84,-137.8 1387.84,-137.8"/>
<polygon fill="black" stroke="black" points="1387.84,-141.3 1397.84,-137.8 1387.84,-134.3 1387.84,-141.3"/>
</g>
<!-- TableDocComponent -->
<g id="node8" class="node">
<title>TableDocComponent</title>
<polygon fill="#ffffb3" stroke="black" points="324.03,-84.8 187.97,-84.8 187.97,-48.8 324.03,-48.8 324.03,-84.8"/>
<text text-anchor="middle" x="256" y="-62.6" font-family="Times,serif" font-size="14.00">TableDocComponent</text>
</g>
<!-- TableDocComponent&#45;&gt;MaterialDocModule -->
<g id="edge8" class="edge">
<title>TableDocComponent&#45;&gt;MaterialDocModule</title>
<path fill="none" stroke="black" d="M256,-84.96C256,-107.15 256,-141.8 256,-141.8 256,-141.8 1387.68,-141.8 1387.68,-141.8"/>
<polygon fill="black" stroke="black" points="1387.68,-145.3 1397.68,-141.8 1387.68,-138.3 1387.68,-145.3"/>
</g>
<!-- TypingDocComponent -->
<g id="node9" class="node">
<title>TypingDocComponent</title>
<polygon fill="#ffffb3" stroke="black" points="169.6,-84.8 24.4,-84.8 24.4,-48.8 169.6,-48.8 169.6,-84.8"/>
<text text-anchor="middle" x="97" y="-62.6" font-family="Times,serif" font-size="14.00">TypingDocComponent</text>
</g>
<!-- TypingDocComponent&#45;&gt;MaterialDocModule -->
<g id="edge9" class="edge">
<title>TypingDocComponent&#45;&gt;MaterialDocModule</title>
<path fill="none" stroke="black" d="M97,-85.12C97,-108.46 97,-145.8 97,-145.8 97,-145.8 1387.58,-145.8 1387.58,-145.8"/>
<polygon fill="black" stroke="black" points="1387.58,-149.3 1397.58,-145.8 1387.58,-142.3 1387.58,-149.3"/>
</g>
<!-- CarouselModule -->
<g id="node11" class="node">
<title>CarouselModule</title>
<polygon fill="#8dd3c7" stroke="black" points="2522.81,-84.8 2519.81,-88.8 2498.81,-88.8 2495.81,-84.8 2413.19,-84.8 2413.19,-48.8 2522.81,-48.8 2522.81,-84.8"/>
<text text-anchor="middle" x="2468" y="-62.6" font-family="Times,serif" font-size="14.00">CarouselModule</text>
</g>
<!-- CarouselModule&#45;&gt;MaterialDocModule -->
<g id="edge10" class="edge">
<title>CarouselModule&#45;&gt;MaterialDocModule</title>
<path fill="none" stroke="black" d="M2468,-85.12C2468,-108.46 2468,-145.8 2468,-145.8 2468,-145.8 1538.17,-145.8 1538.17,-145.8"/>
<polygon fill="black" stroke="black" points="1538.17,-142.3 1528.17,-145.8 1538.17,-149.3 1538.17,-142.3"/>
</g>
<!-- ChartModule -->
<g id="node12" class="node">
<title>ChartModule</title>
<polygon fill="#8dd3c7" stroke="black" points="2395.15,-84.8 2392.15,-88.8 2371.15,-88.8 2368.15,-84.8 2304.85,-84.8 2304.85,-48.8 2395.15,-48.8 2395.15,-84.8"/>
<text text-anchor="middle" x="2350" y="-62.6" font-family="Times,serif" font-size="14.00">ChartModule</text>
</g>
<!-- ChartModule&#45;&gt;MaterialDocModule -->
<g id="edge11" class="edge">
<title>ChartModule&#45;&gt;MaterialDocModule</title>
<path fill="none" stroke="black" d="M2350,-84.96C2350,-107.15 2350,-141.8 2350,-141.8 2350,-141.8 1538.22,-141.8 1538.22,-141.8"/>
<polygon fill="black" stroke="black" points="1538.22,-138.3 1528.22,-141.8 1538.22,-145.3 1538.22,-138.3"/>
</g>
<!-- FormModule -->
<g id="node13" class="node">
<title>FormModule</title>
<polygon fill="#8dd3c7" stroke="black" points="2286.88,-84.8 2283.88,-88.8 2262.88,-88.8 2259.88,-84.8 2197.12,-84.8 2197.12,-48.8 2286.88,-48.8 2286.88,-84.8"/>
<text text-anchor="middle" x="2242" y="-62.6" font-family="Times,serif" font-size="14.00">FormModule</text>
</g>
<!-- FormModule&#45;&gt;MaterialDocModule -->
<g id="edge12" class="edge">
<title>FormModule&#45;&gt;MaterialDocModule</title>
<path fill="none" stroke="black" d="M2242,-85.08C2242,-106.12 2242,-137.8 2242,-137.8 2242,-137.8 1538.41,-137.8 1538.41,-137.8"/>
<polygon fill="black" stroke="black" points="1538.41,-134.3 1528.41,-137.8 1538.41,-141.3 1538.41,-134.3"/>
</g>
<!-- InvoiceModule -->
<g id="node14" class="node">
<title>InvoiceModule</title>
<polygon fill="#8dd3c7" stroke="black" points="2178.53,-84.8 2175.53,-88.8 2154.53,-88.8 2151.53,-84.8 2077.47,-84.8 2077.47,-48.8 2178.53,-48.8 2178.53,-84.8"/>
<text text-anchor="middle" x="2128" y="-62.6" font-family="Times,serif" font-size="14.00">InvoiceModule</text>
</g>
<!-- InvoiceModule&#45;&gt;MaterialDocModule -->
<g id="edge13" class="edge">
<title>InvoiceModule&#45;&gt;MaterialDocModule</title>
<path fill="none" stroke="black" d="M2128,-85.11C2128,-104.95 2128,-133.8 2128,-133.8 2128,-133.8 1538.28,-133.8 1538.28,-133.8"/>
<polygon fill="black" stroke="black" points="1538.28,-130.3 1528.28,-133.8 1538.28,-137.3 1538.28,-130.3"/>
</g>
<!-- NavbarModule -->
<g id="node15" class="node">
<title>NavbarModule</title>
<polygon fill="#8dd3c7" stroke="black" points="2059.25,-84.8 2056.25,-88.8 2035.25,-88.8 2032.25,-84.8 1958.75,-84.8 1958.75,-48.8 2059.25,-48.8 2059.25,-84.8"/>
<text text-anchor="middle" x="2009" y="-62.6" font-family="Times,serif" font-size="14.00">NavbarModule</text>
</g>
<!-- NavbarModule&#45;&gt;MaterialDocModule -->
<g id="edge14" class="edge">
<title>NavbarModule&#45;&gt;MaterialDocModule</title>
<path fill="none" stroke="black" d="M2009,-85.02C2009,-103.63 2009,-129.8 2009,-129.8 2009,-129.8 1538.32,-129.8 1538.32,-129.8"/>
<polygon fill="black" stroke="black" points="1538.32,-126.3 1528.32,-129.8 1538.32,-133.3 1538.32,-126.3"/>
</g>
<!-- QrcodeModule -->
<g id="node16" class="node">
<title>QrcodeModule</title>
<polygon fill="#8dd3c7" stroke="black" points="1940.25,-84.8 1937.25,-88.8 1916.25,-88.8 1913.25,-84.8 1839.75,-84.8 1839.75,-48.8 1940.25,-48.8 1940.25,-84.8"/>
<text text-anchor="middle" x="1890" y="-62.6" font-family="Times,serif" font-size="14.00">QrcodeModule</text>
</g>
<!-- QrcodeModule&#45;&gt;MaterialDocModule -->
<g id="edge15" class="edge">
<title>QrcodeModule&#45;&gt;MaterialDocModule</title>
<path fill="none" stroke="black" d="M1890,-84.82C1890,-102.17 1890,-125.8 1890,-125.8 1890,-125.8 1538.32,-125.8 1538.32,-125.8"/>
<polygon fill="black" stroke="black" points="1538.32,-122.3 1528.32,-125.8 1538.32,-129.3 1538.32,-122.3"/>
</g>
<!-- SidenavModule -->
<g id="node17" class="node">
<title>SidenavModule</title>
<polygon fill="#8dd3c7" stroke="black" points="1821.15,-84.8 1818.15,-88.8 1797.15,-88.8 1794.15,-84.8 1716.85,-84.8 1716.85,-48.8 1821.15,-48.8 1821.15,-84.8"/>
<text text-anchor="middle" x="1769" y="-62.6" font-family="Times,serif" font-size="14.00">SidenavModule</text>
</g>
<!-- SidenavModule&#45;&gt;MaterialDocModule -->
<g id="edge16" class="edge">
<title>SidenavModule&#45;&gt;MaterialDocModule</title>
<path fill="none" stroke="black" d="M1769,-84.81C1769,-100.85 1769,-121.8 1769,-121.8 1769,-121.8 1538.27,-121.8 1538.27,-121.8"/>
<polygon fill="black" stroke="black" points="1538.27,-118.3 1528.27,-121.8 1538.27,-125.3 1538.27,-118.3"/>
</g>
<!-- TableModule -->
<g id="node18" class="node">
<title>TableModule</title>
<polygon fill="#8dd3c7" stroke="black" points="1698.92,-84.8 1695.92,-88.8 1674.92,-88.8 1671.92,-84.8 1607.08,-84.8 1607.08,-48.8 1698.92,-48.8 1698.92,-84.8"/>
<text text-anchor="middle" x="1653" y="-62.6" font-family="Times,serif" font-size="14.00">TableModule</text>
</g>
<!-- TableModule&#45;&gt;MaterialDocModule -->
<g id="edge17" class="edge">
<title>TableModule&#45;&gt;MaterialDocModule</title>
<path fill="none" stroke="black" d="M1653,-84.92C1653,-99.58 1653,-117.8 1653,-117.8 1653,-117.8 1538.39,-117.8 1538.39,-117.8"/>
<polygon fill="black" stroke="black" points="1538.39,-114.3 1528.39,-117.8 1538.39,-121.3 1538.39,-114.3"/>
</g>
<!-- TypingModule -->
<g id="node19" class="node">
<title>TypingModule</title>
<polygon fill="#8dd3c7" stroke="black" points="1588.99,-84.8 1585.99,-88.8 1564.99,-88.8 1561.99,-84.8 1489.01,-84.8 1489.01,-48.8 1588.99,-48.8 1588.99,-84.8"/>
<text text-anchor="middle" x="1539" y="-62.6" font-family="Times,serif" font-size="14.00">TypingModule</text>
</g>
<!-- TypingModule&#45;&gt;MaterialDocModule -->
<g id="edge18" class="edge">
<title>TypingModule&#45;&gt;MaterialDocModule</title>
<path fill="none" stroke="black" d="M1508.57,-84.91C1508.57,-84.91 1508.57,-103.79 1508.57,-103.79"/>
<polygon fill="black" stroke="black" points="1505.07,-103.79 1508.57,-113.79 1512.07,-103.79 1505.07,-103.79"/>
</g>
</g>
</svg>
