<?xml version="1.0" encoding="UTF-8" standalone="no"?>
<!DOCTYPE svg PUBLIC "-//W3C//DTD SVG 1.1//EN"
 "http://www.w3.org/Graphics/SVG/1.1/DTD/svg11.dtd">
<!-- Generated by graphviz version 2.47.3 (20210619.1520)
 -->
<!-- Title: dependencies Pages: 1 -->
<svg width="2271pt" height="174pt"
 viewBox="0.00 0.00 2271.00 173.80" xmlns="http://www.w3.org/2000/svg" xmlns:xlink="http://www.w3.org/1999/xlink">
<g id="graph0" class="graph" transform="scale(1 1) rotate(0) translate(4 169.8)">
<title>dependencies</title>
<polygon fill="white" stroke="transparent" points="-4,4 -4,-169.8 2267,-169.8 2267,4 -4,4"/>
<text text-anchor="middle" x="1131.5" y="-8.2" font-family="sans-serif" font-size="14.00">dependencies</text>
<g id="clust1" class="cluster">
<title>cluster_MaterialDocModule</title>
<polygon fill="none" stroke="black" stroke-dasharray="1,5" points="8,-32.8 8,-157.8 2255,-157.8 2255,-32.8 8,-32.8"/>
</g>
<g id="clust11" class="cluster">
<title>cluster_MaterialDocModule_imports</title>
<polygon fill="none" stroke="black" points="1317,-40.8 1317,-92.8 2247,-92.8 2247,-40.8 1317,-40.8"/>
</g>
<g id="clust2" class="cluster">
<title>cluster_MaterialDocModule_declarations</title>
<polygon fill="none" stroke="black" points="16,-40.8 16,-92.8 1309,-92.8 1309,-40.8 16,-40.8"/>
</g>
<!-- CarouselDocComponent -->
<g id="node1" class="node">
<title>CarouselDocComponent</title>
<polygon fill="#ffffb3" stroke="black" points="1301.42,-84.8 1146.58,-84.8 1146.58,-48.8 1301.42,-48.8 1301.42,-84.8"/>
<text text-anchor="middle" x="1224" y="-62.6" font-family="Times,serif" font-size="14.00">CarouselDocComponent</text>
</g>
<!-- MaterialDocModule -->
<g id="node9" class="node">
<title>MaterialDocModule</title>
<polygon fill="#8dd3c7" stroke="black" points="1364.29,-149.8 1361.29,-153.8 1340.29,-153.8 1337.29,-149.8 1233.71,-149.8 1233.71,-113.8 1364.29,-113.8 1364.29,-149.8"/>
<text text-anchor="middle" x="1299" y="-127.6" font-family="Times,serif" font-size="14.00">MaterialDocModule</text>
</g>
<!-- CarouselDocComponent&#45;&gt;MaterialDocModule -->
<g id="edge1" class="edge">
<title>CarouselDocComponent&#45;&gt;MaterialDocModule</title>
<path fill="none" stroke="black" d="M1267.53,-84.91C1267.53,-84.91 1267.53,-103.79 1267.53,-103.79"/>
<polygon fill="black" stroke="black" points="1264.03,-103.79 1267.53,-113.79 1271.03,-103.79 1264.03,-103.79"/>
</g>
<!-- ChartDocComponent -->
<g id="node2" class="node">
<title>ChartDocComponent</title>
<polygon fill="#ffffb3" stroke="black" points="1128.76,-84.8 993.24,-84.8 993.24,-48.8 1128.76,-48.8 1128.76,-84.8"/>
<text text-anchor="middle" x="1061" y="-62.6" font-family="Times,serif" font-size="14.00">ChartDocComponent</text>
</g>
<!-- ChartDocComponent&#45;&gt;MaterialDocModule -->
<g id="edge2" class="edge">
<title>ChartDocComponent&#45;&gt;MaterialDocModule</title>
<path fill="none" stroke="black" d="M1061,-84.99C1061,-99.98 1061,-118.8 1061,-118.8 1061,-118.8 1223.65,-118.8 1223.65,-118.8"/>
<polygon fill="black" stroke="black" points="1223.65,-122.3 1233.65,-118.8 1223.65,-115.3 1223.65,-122.3"/>
</g>
<!-- FormDocComponent -->
<g id="node3" class="node">
<title>FormDocComponent</title>
<polygon fill="#ffffb3" stroke="black" points="975.49,-84.8 840.51,-84.8 840.51,-48.8 975.49,-48.8 975.49,-84.8"/>
<text text-anchor="middle" x="908" y="-62.6" font-family="Times,serif" font-size="14.00">FormDocComponent</text>
</g>
<!-- FormDocComponent&#45;&gt;MaterialDocModule -->
<g id="edge3" class="edge">
<title>FormDocComponent&#45;&gt;MaterialDocModule</title>
<path fill="none" stroke="black" d="M908,-84.83C908,-101.2 908,-122.8 908,-122.8 908,-122.8 1223.56,-122.8 1223.56,-122.8"/>
<polygon fill="black" stroke="black" points="1223.56,-126.3 1233.56,-122.8 1223.56,-119.3 1223.56,-126.3"/>
</g>
<!-- MaterialDocComponent -->
<g id="node4" class="node">
<title>MaterialDocComponent</title>
<polygon fill="#ffffb3" stroke="black" points="822.07,-84.8 669.93,-84.8 669.93,-48.8 822.07,-48.8 822.07,-84.8"/>
<text text-anchor="middle" x="746" y="-62.6" font-family="Times,serif" font-size="14.00">MaterialDocComponent</text>
</g>
<!-- MaterialDocComponent&#45;&gt;MaterialDocModule -->
<g id="edge4" class="edge">
<title>MaterialDocComponent&#45;&gt;MaterialDocModule</title>
<path fill="none" stroke="black" d="M746,-85.1C746,-103.07 746,-127.8 746,-127.8 746,-127.8 1223.67,-127.8 1223.67,-127.8"/>
<polygon fill="black" stroke="black" points="1223.67,-131.3 1233.67,-127.8 1223.67,-124.3 1223.67,-131.3"/>
</g>
<!-- NavbarDocComponent -->
<g id="node5" class="node">
<title>NavbarDocComponent</title>
<polygon fill="#ffffb3" stroke="black" points="651.85,-84.8 506.15,-84.8 506.15,-48.8 651.85,-48.8 651.85,-84.8"/>
<text text-anchor="middle" x="579" y="-62.6" font-family="Times,serif" font-size="14.00">NavbarDocComponent</text>
</g>
<!-- NavbarDocComponent&#45;&gt;MaterialDocModule -->
<g id="edge5" class="edge">
<title>NavbarDocComponent&#45;&gt;MaterialDocModule</title>
<path fill="none" stroke="black" d="M579,-84.91C579,-104.14 579,-131.8 579,-131.8 579,-131.8 1223.83,-131.8 1223.83,-131.8"/>
<polygon fill="black" stroke="black" points="1223.83,-135.3 1233.83,-131.8 1223.83,-128.3 1223.83,-135.3"/>
</g>
<!-- QrcodeDocComponent -->
<g id="node6" class="node">
<title>QrcodeDocComponent</title>
<polygon fill="#ffffb3" stroke="black" points="487.85,-84.8 342.15,-84.8 342.15,-48.8 487.85,-48.8 487.85,-84.8"/>
<text text-anchor="middle" x="415" y="-62.6" font-family="Times,serif" font-size="14.00">QrcodeDocComponent</text>
</g>
<!-- QrcodeDocComponent&#45;&gt;MaterialDocModule -->
<g id="edge6" class="edge">
<title>QrcodeDocComponent&#45;&gt;MaterialDocModule</title>
<path fill="none" stroke="black" d="M415,-84.83C415,-105.57 415,-136.8 415,-136.8 415,-136.8 1223.64,-136.8 1223.64,-136.8"/>
<polygon fill="black" stroke="black" points="1223.64,-140.3 1233.64,-136.8 1223.64,-133.3 1223.64,-140.3"/>
</g>
<!-- TableDocComponent -->
<g id="node7" class="node">
<title>TableDocComponent</title>
<polygon fill="#ffffb3" stroke="black" points="324.03,-84.8 187.97,-84.8 187.97,-48.8 324.03,-48.8 324.03,-84.8"/>
<text text-anchor="middle" x="256" y="-62.6" font-family="Times,serif" font-size="14.00">TableDocComponent</text>
</g>
<!-- TableDocComponent&#45;&gt;MaterialDocModule -->
<g id="edge7" class="edge">
<title>TableDocComponent&#45;&gt;MaterialDocModule</title>
<path fill="none" stroke="black" d="M256,-85.09C256,-107.01 256,-140.8 256,-140.8 256,-140.8 1223.76,-140.8 1223.76,-140.8"/>
<polygon fill="black" stroke="black" points="1223.76,-144.3 1233.76,-140.8 1223.76,-137.3 1223.76,-144.3"/>
</g>
<!-- TypingDocComponent -->
<g id="node8" class="node">
<title>TypingDocComponent</title>
<polygon fill="#ffffb3" stroke="black" points="169.6,-84.8 24.4,-84.8 24.4,-48.8 169.6,-48.8 169.6,-84.8"/>
<text text-anchor="middle" x="97" y="-62.6" font-family="Times,serif" font-size="14.00">TypingDocComponent</text>
</g>
<!-- TypingDocComponent&#45;&gt;MaterialDocModule -->
<g id="edge8" class="edge">
<title>TypingDocComponent&#45;&gt;MaterialDocModule</title>
<path fill="none" stroke="black" d="M97,-85.12C97,-108.46 97,-145.8 97,-145.8 97,-145.8 1223.52,-145.8 1223.52,-145.8"/>
<polygon fill="black" stroke="black" points="1223.52,-149.3 1233.52,-145.8 1223.52,-142.3 1223.52,-149.3"/>
</g>
<!-- CarouselModule -->
<g id="node10" class="node">
<title>CarouselModule</title>
<polygon fill="#8dd3c7" stroke="black" points="2238.81,-84.8 2235.81,-88.8 2214.81,-88.8 2211.81,-84.8 2129.19,-84.8 2129.19,-48.8 2238.81,-48.8 2238.81,-84.8"/>
<text text-anchor="middle" x="2184" y="-62.6" font-family="Times,serif" font-size="14.00">CarouselModule</text>
</g>
<!-- CarouselModule&#45;&gt;MaterialDocModule -->
<g id="edge9" class="edge">
<title>CarouselModule&#45;&gt;MaterialDocModule</title>
<path fill="none" stroke="black" d="M2184,-85.12C2184,-108.46 2184,-145.8 2184,-145.8 2184,-145.8 1374.44,-145.8 1374.44,-145.8"/>
<polygon fill="black" stroke="black" points="1374.44,-142.3 1364.44,-145.8 1374.44,-149.3 1374.44,-142.3"/>
</g>
<!-- ChartModule -->
<g id="node11" class="node">
<title>ChartModule</title>
<polygon fill="#8dd3c7" stroke="black" points="2111.15,-84.8 2108.15,-88.8 2087.15,-88.8 2084.15,-84.8 2020.85,-84.8 2020.85,-48.8 2111.15,-48.8 2111.15,-84.8"/>
<text text-anchor="middle" x="2066" y="-62.6" font-family="Times,serif" font-size="14.00">ChartModule</text>
</g>
<!-- ChartModule&#45;&gt;MaterialDocModule -->
<g id="edge10" class="edge">
<title>ChartModule&#45;&gt;MaterialDocModule</title>
<path fill="none" stroke="black" d="M2066,-85.09C2066,-107.01 2066,-140.8 2066,-140.8 2066,-140.8 1374.39,-140.8 1374.39,-140.8"/>
<polygon fill="black" stroke="black" points="1374.39,-137.3 1364.39,-140.8 1374.39,-144.3 1374.39,-137.3"/>
</g>
<!-- FormModule -->
<g id="node12" class="node">
<title>FormModule</title>
<polygon fill="#8dd3c7" stroke="black" points="2002.88,-84.8 1999.88,-88.8 1978.88,-88.8 1975.88,-84.8 1913.12,-84.8 1913.12,-48.8 2002.88,-48.8 2002.88,-84.8"/>
<text text-anchor="middle" x="1958" y="-62.6" font-family="Times,serif" font-size="14.00">FormModule</text>
</g>
<!-- FormModule&#45;&gt;MaterialDocModule -->
<g id="edge11" class="edge">
<title>FormModule&#45;&gt;MaterialDocModule</title>
<path fill="none" stroke="black" d="M1958,-84.83C1958,-105.57 1958,-136.8 1958,-136.8 1958,-136.8 1374.29,-136.8 1374.29,-136.8"/>
<polygon fill="black" stroke="black" points="1374.29,-133.3 1364.29,-136.8 1374.29,-140.3 1374.29,-133.3"/>
</g>
<!-- NavbarModule -->
<g id="node13" class="node">
<title>NavbarModule</title>
<polygon fill="#8dd3c7" stroke="black" points="1895.25,-84.8 1892.25,-88.8 1871.25,-88.8 1868.25,-84.8 1794.75,-84.8 1794.75,-48.8 1895.25,-48.8 1895.25,-84.8"/>
<text text-anchor="middle" x="1845" y="-62.6" font-family="Times,serif" font-size="14.00">NavbarModule</text>
</g>
<!-- NavbarModule&#45;&gt;MaterialDocModule -->
<g id="edge12" class="edge">
<title>NavbarModule&#45;&gt;MaterialDocModule</title>
<path fill="none" stroke="black" d="M1845,-84.91C1845,-104.14 1845,-131.8 1845,-131.8 1845,-131.8 1374.32,-131.8 1374.32,-131.8"/>
<polygon fill="black" stroke="black" points="1374.32,-128.3 1364.32,-131.8 1374.32,-135.3 1374.32,-128.3"/>
</g>
<!-- QrcodeModule -->
<g id="node14" class="node">
<title>QrcodeModule</title>
<polygon fill="#8dd3c7" stroke="black" points="1776.25,-84.8 1773.25,-88.8 1752.25,-88.8 1749.25,-84.8 1675.75,-84.8 1675.75,-48.8 1776.25,-48.8 1776.25,-84.8"/>
<text text-anchor="middle" x="1726" y="-62.6" font-family="Times,serif" font-size="14.00">QrcodeModule</text>
</g>
<!-- QrcodeModule&#45;&gt;MaterialDocModule -->
<g id="edge13" class="edge">
<title>QrcodeModule&#45;&gt;MaterialDocModule</title>
<path fill="none" stroke="black" d="M1726,-85.1C1726,-103.07 1726,-127.8 1726,-127.8 1726,-127.8 1374.32,-127.8 1374.32,-127.8"/>
<polygon fill="black" stroke="black" points="1374.32,-124.3 1364.32,-127.8 1374.32,-131.3 1374.32,-124.3"/>
</g>
<!-- SidenavModule -->
<g id="node15" class="node">
<title>SidenavModule</title>
<polygon fill="#8dd3c7" stroke="black" points="1657.15,-84.8 1654.15,-88.8 1633.15,-88.8 1630.15,-84.8 1552.85,-84.8 1552.85,-48.8 1657.15,-48.8 1657.15,-84.8"/>
<text text-anchor="middle" x="1605" y="-62.6" font-family="Times,serif" font-size="14.00">SidenavModule</text>
</g>
<!-- SidenavModule&#45;&gt;MaterialDocModule -->
<g id="edge14" class="edge">
<title>SidenavModule&#45;&gt;MaterialDocModule</title>
<path fill="none" stroke="black" d="M1605,-84.83C1605,-101.2 1605,-122.8 1605,-122.8 1605,-122.8 1374.27,-122.8 1374.27,-122.8"/>
<polygon fill="black" stroke="black" points="1374.27,-119.3 1364.27,-122.8 1374.27,-126.3 1374.27,-119.3"/>
</g>
<!-- TableModule -->
<g id="node16" class="node">
<title>TableModule</title>
<polygon fill="#8dd3c7" stroke="black" points="1534.92,-84.8 1531.92,-88.8 1510.92,-88.8 1507.92,-84.8 1443.08,-84.8 1443.08,-48.8 1534.92,-48.8 1534.92,-84.8"/>
<text text-anchor="middle" x="1489" y="-62.6" font-family="Times,serif" font-size="14.00">TableModule</text>
</g>
<!-- TableModule&#45;&gt;MaterialDocModule -->
<g id="edge15" class="edge">
<title>TableModule&#45;&gt;MaterialDocModule</title>
<path fill="none" stroke="black" d="M1489,-84.99C1489,-99.98 1489,-118.8 1489,-118.8 1489,-118.8 1374.39,-118.8 1374.39,-118.8"/>
<polygon fill="black" stroke="black" points="1374.39,-115.3 1364.39,-118.8 1374.39,-122.3 1374.39,-115.3"/>
</g>
<!-- TypingModule -->
<g id="node17" class="node">
<title>TypingModule</title>
<polygon fill="#8dd3c7" stroke="black" points="1424.99,-84.8 1421.99,-88.8 1400.99,-88.8 1397.99,-84.8 1325.01,-84.8 1325.01,-48.8 1424.99,-48.8 1424.99,-84.8"/>
<text text-anchor="middle" x="1375" y="-62.6" font-family="Times,serif" font-size="14.00">TypingModule</text>
</g>
<!-- TypingModule&#45;&gt;MaterialDocModule -->
<g id="edge16" class="edge">
<title>TypingModule&#45;&gt;MaterialDocModule</title>
<path fill="none" stroke="black" d="M1344.57,-84.91C1344.57,-84.91 1344.57,-103.79 1344.57,-103.79"/>
<polygon fill="black" stroke="black" points="1341.07,-103.79 1344.57,-113.79 1348.07,-103.79 1341.07,-103.79"/>
</g>
</g>
</svg>
