<?xml version="1.0" encoding="UTF-8" standalone="no"?>
<!DOCTYPE svg PUBLIC "-//W3C//DTD SVG 1.1//EN"
 "http://www.w3.org/Graphics/SVG/1.1/DTD/svg11.dtd">
<!-- Generated by graphviz version 2.47.3 (20210619.1520)
 -->
<!-- Title: dependencies Pages: 1 -->
<svg width="1000pt" height="250pt"
 viewBox="0.00 0.00 1000.00 249.80" xmlns="http://www.w3.org/2000/svg" xmlns:xlink="http://www.w3.org/1999/xlink">
<g id="graph0" class="graph" transform="scale(1 1) rotate(0) translate(4 245.8)">
<title>dependencies</title>
<polygon fill="white" stroke="transparent" points="-4,4 -4,-245.8 996,-245.8 996,4 -4,4"/>
<text text-anchor="middle" x="496" y="-8.2" font-family="sans-serif" font-size="14.00">dependencies</text>
<g id="clust1" class="cluster">
<title>cluster_ApiModule</title>
<polygon fill="none" stroke="black" stroke-dasharray="1,5" points="8,-32.8 8,-160.8 148,-160.8 148,-32.8 8,-32.8"/>
</g>
<g id="clust6" class="cluster">
<title>cluster_ApiModule_providers</title>
<polygon fill="none" stroke="black" points="16,-40.8 16,-92.8 140,-92.8 140,-40.8 16,-40.8"/>
</g>
<g id="clust7" class="cluster">
<title>cluster_AppModule</title>
<polygon fill="none" stroke="black" stroke-dasharray="1,5" points="156,-32.8 156,-233.8 446,-233.8 446,-32.8 156,-32.8"/>
</g>
<g id="clust8" class="cluster">
<title>cluster_AppModule_declarations</title>
<polygon fill="none" stroke="black" points="316,-40.8 316,-92.8 438,-92.8 438,-40.8 316,-40.8"/>
</g>
<g id="clust10" class="cluster">
<title>cluster_AppModule_imports</title>
<polygon fill="none" stroke="black" points="164,-40.8 164,-92.8 308,-92.8 308,-40.8 164,-40.8"/>
</g>
<g id="clust12" class="cluster">
<title>cluster_AppModule_bootstrap</title>
<polygon fill="none" stroke="black" points="244,-173.8 244,-225.8 368,-225.8 368,-173.8 244,-173.8"/>
</g>
<g id="clust20" class="cluster">
<title>cluster_GreetingModule</title>
<polygon fill="none" stroke="black" stroke-dasharray="1,5" points="454,-32.8 454,-233.8 620,-233.8 620,-32.8 454,-32.8"/>
</g>
<g id="clust21" class="cluster">
<title>cluster_GreetingModule_declarations</title>
<polygon fill="none" stroke="black" points="465,-40.8 465,-92.8 611,-92.8 611,-40.8 465,-40.8"/>
</g>
<g id="clust24" class="cluster">
<title>cluster_GreetingModule_exports</title>
<polygon fill="none" stroke="black" points="462,-173.8 462,-225.8 612,-225.8 612,-173.8 462,-173.8"/>
</g>
<g id="clust27" class="cluster">
<title>cluster_MaterialDocModule</title>
<polygon fill="none" stroke="black" stroke-dasharray="1,5" points="628,-100.8 628,-225.8 984,-225.8 984,-100.8 628,-100.8"/>
</g>
<g id="clust28" class="cluster">
<title>cluster_MaterialDocModule_declarations</title>
<polygon fill="none" stroke="black" points="636,-108.8 636,-160.8 976,-160.8 976,-108.8 636,-108.8"/>
</g>
<!-- ApiService -->
<g id="node1" class="node">
<title>ApiService</title>
<ellipse fill="#fdb462" stroke="black" cx="78" cy="-66.8" rx="54.45" ry="18"/>
<text text-anchor="middle" x="78" y="-62.6" font-family="Times,serif" font-size="14.00">ApiService</text>
</g>
<!-- ApiModule -->
<g id="node2" class="node">
<title>ApiModule</title>
<polygon fill="#8dd3c7" stroke="black" points="118.05,-152.8 115.05,-156.8 94.05,-156.8 91.05,-152.8 37.95,-152.8 37.95,-116.8 118.05,-116.8 118.05,-152.8"/>
<text text-anchor="middle" x="78" y="-130.6" font-family="Times,serif" font-size="14.00">ApiModule</text>
</g>
<!-- ApiService&#45;&gt;ApiModule -->
<g id="edge1" class="edge">
<title>ApiService&#45;&gt;ApiModule</title>
<path fill="none" stroke="black" d="M78,-85.02C78,-85.02 78,-106.53 78,-106.53"/>
<polygon fill="black" stroke="black" points="74.5,-106.53 78,-116.53 81.5,-106.53 74.5,-106.53"/>
</g>
<!-- AppComponent -->
<g id="node3" class="node">
<title>AppComponent</title>
<polygon fill="#ffffb3" stroke="black" points="429.94,-84.8 324.06,-84.8 324.06,-48.8 429.94,-48.8 429.94,-84.8"/>
<text text-anchor="middle" x="377" y="-62.6" font-family="Times,serif" font-size="14.00">AppComponent</text>
</g>
<!-- AppModule -->
<g id="node4" class="node">
<title>AppModule</title>
<polygon fill="#8dd3c7" stroke="black" points="347.66,-152.8 344.66,-156.8 323.66,-156.8 320.66,-152.8 264.34,-152.8 264.34,-116.8 347.66,-116.8 347.66,-152.8"/>
<text text-anchor="middle" x="306" y="-130.6" font-family="Times,serif" font-size="14.00">AppModule</text>
</g>
<!-- AppComponent&#45;&gt;AppModule -->
<g id="edge2" class="edge">
<title>AppComponent&#45;&gt;AppModule</title>
<path fill="none" stroke="black" d="M336.05,-85.02C336.05,-85.02 336.05,-106.53 336.05,-106.53"/>
<polygon fill="black" stroke="black" points="332.55,-106.53 336.05,-116.53 339.55,-106.53 332.55,-106.53"/>
</g>
<!-- AppComponent  -->
<g id="node6" class="node">
<title>AppComponent </title>
<polygon fill="#80b1d3" stroke="black" points="360.44,-217.8 251.56,-217.8 251.56,-181.8 360.44,-181.8 360.44,-217.8"/>
<text text-anchor="middle" x="306" y="-195.6" font-family="Times,serif" font-size="14.00">AppComponent </text>
</g>
<!-- AppModule&#45;&gt;AppComponent  -->
<g id="edge4" class="edge">
<title>AppModule&#45;&gt;AppComponent </title>
<path fill="none" stroke="black" stroke-dasharray="1,5" d="M306,-152.91C306,-152.91 306,-171.79 306,-171.79"/>
<polygon fill="black" stroke="black" points="302.5,-171.79 306,-181.79 309.5,-171.79 302.5,-171.79"/>
</g>
<!-- AppRoutingModule -->
<g id="node5" class="node">
<title>AppRoutingModule</title>
<polygon fill="#8dd3c7" stroke="black" points="300.27,-84.8 297.27,-88.8 276.27,-88.8 273.27,-84.8 171.73,-84.8 171.73,-48.8 300.27,-48.8 300.27,-84.8"/>
<text text-anchor="middle" x="236" y="-62.6" font-family="Times,serif" font-size="14.00">AppRoutingModule</text>
</g>
<!-- AppRoutingModule&#45;&gt;AppModule -->
<g id="edge3" class="edge">
<title>AppRoutingModule&#45;&gt;AppModule</title>
<path fill="none" stroke="black" d="M282.28,-85.02C282.28,-85.02 282.28,-106.53 282.28,-106.53"/>
<polygon fill="black" stroke="black" points="278.78,-106.53 282.28,-116.53 285.78,-106.53 278.78,-106.53"/>
</g>
<!-- GreetingComponent -->
<g id="node7" class="node">
<title>GreetingComponent</title>
<polygon fill="#ffffb3" stroke="black" points="603.31,-84.8 472.69,-84.8 472.69,-48.8 603.31,-48.8 603.31,-84.8"/>
<text text-anchor="middle" x="538" y="-62.6" font-family="Times,serif" font-size="14.00">GreetingComponent</text>
</g>
<!-- GreetingModule -->
<g id="node8" class="node">
<title>GreetingModule</title>
<polygon fill="#8dd3c7" stroke="black" points="592.03,-152.8 589.03,-156.8 568.03,-156.8 565.03,-152.8 483.97,-152.8 483.97,-116.8 592.03,-116.8 592.03,-152.8"/>
<text text-anchor="middle" x="538" y="-130.6" font-family="Times,serif" font-size="14.00">GreetingModule</text>
</g>
<!-- GreetingComponent&#45;&gt;GreetingModule -->
<g id="edge5" class="edge">
<title>GreetingComponent&#45;&gt;GreetingModule</title>
<path fill="none" stroke="black" d="M538,-85.02C538,-85.02 538,-106.53 538,-106.53"/>
<polygon fill="black" stroke="black" points="534.5,-106.53 538,-116.53 541.5,-106.53 534.5,-106.53"/>
</g>
<!-- GreetingComponent  -->
<g id="node9" class="node">
<title>GreetingComponent </title>
<polygon fill="#fb8072" stroke="black" points="603.81,-217.8 470.19,-217.8 470.19,-181.8 603.81,-181.8 603.81,-217.8"/>
<text text-anchor="middle" x="537" y="-195.6" font-family="Times,serif" font-size="14.00">GreetingComponent </text>
</g>
<!-- GreetingModule&#45;&gt;GreetingComponent  -->
<g id="edge6" class="edge">
<title>GreetingModule&#45;&gt;GreetingComponent </title>
<path fill="none" stroke="black" stroke-dasharray="5,2" d="M538,-152.91C538,-152.91 538,-171.79 538,-171.79"/>
<polygon fill="black" stroke="black" points="534.5,-171.79 538,-181.79 541.5,-171.79 534.5,-171.79"/>
</g>
<!-- MaterialDocModule -->
<g id="node12" class="node">
<title>MaterialDocModule</title>
<polygon fill="#8dd3c7" stroke="black" points="785.29,-217.8 782.29,-221.8 761.29,-221.8 758.29,-217.8 654.71,-217.8 654.71,-181.8 785.29,-181.8 785.29,-217.8"/>
<text text-anchor="middle" x="720" y="-195.6" font-family="Times,serif" font-size="14.00">MaterialDocModule</text>
</g>
<!-- GreetingModule&#45;&gt;MaterialDocModule -->
<g id="edge9" class="edge">
<title>GreetingModule&#45;&gt;MaterialDocModule</title>
<path fill="none" stroke="black" d="M592.42,-134.8C609.48,-134.8 623.93,-134.8 623.93,-134.8 623.93,-134.8 623.93,-199.8 623.93,-199.8 623.93,-199.8 644.59,-199.8 644.59,-199.8"/>
<polygon fill="black" stroke="black" points="644.59,-203.3 654.59,-199.8 644.59,-196.3 644.59,-203.3"/>
</g>
<!-- GreetingDocComponent -->
<g id="node10" class="node">
<title>GreetingDocComponent</title>
<polygon fill="#ffffb3" stroke="black" points="967.63,-152.8 814.37,-152.8 814.37,-116.8 967.63,-116.8 967.63,-152.8"/>
<text text-anchor="middle" x="891" y="-130.6" font-family="Times,serif" font-size="14.00">GreetingDocComponent</text>
</g>
<!-- GreetingDocComponent&#45;&gt;MaterialDocModule -->
<g id="edge7" class="edge">
<title>GreetingDocComponent&#45;&gt;MaterialDocModule</title>
<path fill="none" stroke="black" d="M891,-152.91C891,-172.14 891,-199.8 891,-199.8 891,-199.8 795.62,-199.8 795.62,-199.8"/>
<polygon fill="black" stroke="black" points="795.62,-196.3 785.62,-199.8 795.62,-203.3 795.62,-196.3"/>
</g>
<!-- MaterialDocComponent -->
<g id="node11" class="node">
<title>MaterialDocComponent</title>
<polygon fill="#ffffb3" stroke="black" points="796.07,-152.8 643.93,-152.8 643.93,-116.8 796.07,-116.8 796.07,-152.8"/>
<text text-anchor="middle" x="720" y="-130.6" font-family="Times,serif" font-size="14.00">MaterialDocComponent</text>
</g>
<!-- MaterialDocComponent&#45;&gt;MaterialDocModule -->
<g id="edge8" class="edge">
<title>MaterialDocComponent&#45;&gt;MaterialDocModule</title>
<path fill="none" stroke="black" d="M720,-152.91C720,-152.91 720,-171.79 720,-171.79"/>
<polygon fill="black" stroke="black" points="716.5,-171.79 720,-181.79 723.5,-171.79 716.5,-171.79"/>
</g>
</g>
</svg>
