<?xml version="1.0" encoding="UTF-8" standalone="no"?>
<!DOCTYPE svg PUBLIC "-//W3C//DTD SVG 1.1//EN"
 "http://www.w3.org/Graphics/SVG/1.1/DTD/svg11.dtd">
<!-- Generated by graphviz version 2.47.3 (20210619.1520)
 -->
<!-- Title: dependencies Pages: 1 -->
<svg width="1616pt" height="253pt"
 viewBox="0.00 0.00 1616.00 252.80" xmlns="http://www.w3.org/2000/svg" xmlns:xlink="http://www.w3.org/1999/xlink">
<g id="graph0" class="graph" transform="scale(1 1) rotate(0) translate(4 248.8)">
<title>dependencies</title>
<polygon fill="white" stroke="transparent" points="-4,4 -4,-248.8 1612,-248.8 1612,4 -4,4"/>
<text text-anchor="middle" x="804" y="-8.2" font-family="sans-serif" font-size="14.00">dependencies</text>
<g id="clust1" class="cluster">
<title>cluster_ApiModule</title>
<polygon fill="none" stroke="black" stroke-dasharray="1,5" points="8,-32.8 8,-160.8 148,-160.8 148,-32.8 8,-32.8"/>
</g>
<g id="clust6" class="cluster">
<title>cluster_ApiModule_providers</title>
<polygon fill="none" stroke="black" points="16,-40.8 16,-92.8 140,-92.8 140,-40.8 16,-40.8"/>
</g>
<g id="clust7" class="cluster">
<title>cluster_AppModule</title>
<polygon fill="none" stroke="black" stroke-dasharray="1,5" points="156,-32.8 156,-236.8 446,-236.8 446,-32.8 156,-32.8"/>
</g>
<g id="clust8" class="cluster">
<title>cluster_AppModule_declarations</title>
<polygon fill="none" stroke="black" points="316,-40.8 316,-92.8 438,-92.8 438,-40.8 316,-40.8"/>
</g>
<g id="clust10" class="cluster">
<title>cluster_AppModule_imports</title>
<polygon fill="none" stroke="black" points="164,-40.8 164,-92.8 308,-92.8 308,-40.8 164,-40.8"/>
</g>
<g id="clust12" class="cluster">
<title>cluster_AppModule_bootstrap</title>
<polygon fill="none" stroke="black" points="244,-176.8 244,-228.8 368,-228.8 368,-176.8 244,-176.8"/>
</g>
<g id="clust20" class="cluster">
<title>cluster_GreetingModule</title>
<polygon fill="none" stroke="black" stroke-dasharray="1,5" points="454,-32.8 454,-236.8 620,-236.8 620,-32.8 454,-32.8"/>
</g>
<g id="clust21" class="cluster">
<title>cluster_GreetingModule_declarations</title>
<polygon fill="none" stroke="black" points="465,-40.8 465,-92.8 611,-92.8 611,-40.8 465,-40.8"/>
</g>
<g id="clust24" class="cluster">
<title>cluster_GreetingModule_exports</title>
<polygon fill="none" stroke="black" points="462,-176.8 462,-228.8 612,-228.8 612,-176.8 462,-176.8"/>
</g>
<g id="clust27" class="cluster">
<title>cluster_MaterialDocModule</title>
<polygon fill="none" stroke="black" stroke-dasharray="1,5" points="628,-100.8 628,-228.8 1280,-228.8 1280,-100.8 628,-100.8"/>
</g>
<g id="clust28" class="cluster">
<title>cluster_MaterialDocModule_declarations</title>
<polygon fill="none" stroke="black" points="636,-108.8 636,-160.8 1144,-160.8 1144,-108.8 636,-108.8"/>
</g>
<g id="clust32" class="cluster">
<title>cluster_MaterialDocModule_imports</title>
<polygon fill="none" stroke="black" points="1152,-108.8 1152,-160.8 1272,-160.8 1272,-108.8 1152,-108.8"/>
</g>
<g id="clust36" class="cluster">
<title>cluster_SidenavModule</title>
<polygon fill="none" stroke="black" stroke-dasharray="1,5" points="1288,-168.8 1288,-236.8 1600,-236.8 1600,-168.8 1288,-168.8"/>
</g>
<g id="clust37" class="cluster">
<title>cluster_SidenavModule_declarations</title>
<polygon fill="none" stroke="black" points="1450,-176.8 1450,-228.8 1592,-228.8 1592,-176.8 1450,-176.8"/>
</g>
<g id="clust40" class="cluster">
<title>cluster_SidenavModule_exports</title>
<polygon fill="none" stroke="black" points="1296,-176.8 1296,-228.8 1442,-228.8 1442,-176.8 1296,-176.8"/>
</g>
<!-- ApiService -->
<g id="node1" class="node">
<title>ApiService</title>
<ellipse fill="#fdb462" stroke="black" cx="78" cy="-66.8" rx="54.45" ry="18"/>
<text text-anchor="middle" x="78" y="-62.6" font-family="Times,serif" font-size="14.00">ApiService</text>
</g>
<!-- ApiModule -->
<g id="node2" class="node">
<title>ApiModule</title>
<polygon fill="#8dd3c7" stroke="black" points="118.05,-152.8 115.05,-156.8 94.05,-156.8 91.05,-152.8 37.95,-152.8 37.95,-116.8 118.05,-116.8 118.05,-152.8"/>
<text text-anchor="middle" x="78" y="-130.6" font-family="Times,serif" font-size="14.00">ApiModule</text>
</g>
<!-- ApiService&#45;&gt;ApiModule -->
<g id="edge1" class="edge">
<title>ApiService&#45;&gt;ApiModule</title>
<path fill="none" stroke="black" d="M78,-85.02C78,-85.02 78,-106.53 78,-106.53"/>
<polygon fill="black" stroke="black" points="74.5,-106.53 78,-116.53 81.5,-106.53 74.5,-106.53"/>
</g>
<!-- AppComponent -->
<g id="node3" class="node">
<title>AppComponent</title>
<polygon fill="#ffffb3" stroke="black" points="429.94,-84.8 324.06,-84.8 324.06,-48.8 429.94,-48.8 429.94,-84.8"/>
<text text-anchor="middle" x="377" y="-62.6" font-family="Times,serif" font-size="14.00">AppComponent</text>
</g>
<!-- AppModule -->
<g id="node4" class="node">
<title>AppModule</title>
<polygon fill="#8dd3c7" stroke="black" points="347.66,-152.8 344.66,-156.8 323.66,-156.8 320.66,-152.8 264.34,-152.8 264.34,-116.8 347.66,-116.8 347.66,-152.8"/>
<text text-anchor="middle" x="306" y="-130.6" font-family="Times,serif" font-size="14.00">AppModule</text>
</g>
<!-- AppComponent&#45;&gt;AppModule -->
<g id="edge2" class="edge">
<title>AppComponent&#45;&gt;AppModule</title>
<path fill="none" stroke="black" d="M336.05,-85.02C336.05,-85.02 336.05,-106.53 336.05,-106.53"/>
<polygon fill="black" stroke="black" points="332.55,-106.53 336.05,-116.53 339.55,-106.53 332.55,-106.53"/>
</g>
<!-- AppComponent  -->
<g id="node6" class="node">
<title>AppComponent </title>
<polygon fill="#80b1d3" stroke="black" points="360.44,-220.8 251.56,-220.8 251.56,-184.8 360.44,-184.8 360.44,-220.8"/>
<text text-anchor="middle" x="306" y="-198.6" font-family="Times,serif" font-size="14.00">AppComponent </text>
</g>
<!-- AppModule&#45;&gt;AppComponent  -->
<g id="edge4" class="edge">
<title>AppModule&#45;&gt;AppComponent </title>
<path fill="none" stroke="black" stroke-dasharray="1,5" d="M306,-153.02C306,-153.02 306,-174.53 306,-174.53"/>
<polygon fill="black" stroke="black" points="302.5,-174.53 306,-184.53 309.5,-174.53 302.5,-174.53"/>
</g>
<!-- AppRoutingModule -->
<g id="node5" class="node">
<title>AppRoutingModule</title>
<polygon fill="#8dd3c7" stroke="black" points="300.27,-84.8 297.27,-88.8 276.27,-88.8 273.27,-84.8 171.73,-84.8 171.73,-48.8 300.27,-48.8 300.27,-84.8"/>
<text text-anchor="middle" x="236" y="-62.6" font-family="Times,serif" font-size="14.00">AppRoutingModule</text>
</g>
<!-- AppRoutingModule&#45;&gt;AppModule -->
<g id="edge3" class="edge">
<title>AppRoutingModule&#45;&gt;AppModule</title>
<path fill="none" stroke="black" d="M282.28,-85.02C282.28,-85.02 282.28,-106.53 282.28,-106.53"/>
<polygon fill="black" stroke="black" points="278.78,-106.53 282.28,-116.53 285.78,-106.53 278.78,-106.53"/>
</g>
<!-- GreetingComponent -->
<g id="node7" class="node">
<title>GreetingComponent</title>
<polygon fill="#ffffb3" stroke="black" points="603.31,-84.8 472.69,-84.8 472.69,-48.8 603.31,-48.8 603.31,-84.8"/>
<text text-anchor="middle" x="538" y="-62.6" font-family="Times,serif" font-size="14.00">GreetingComponent</text>
</g>
<!-- GreetingModule -->
<g id="node8" class="node">
<title>GreetingModule</title>
<polygon fill="#8dd3c7" stroke="black" points="592.03,-152.8 589.03,-156.8 568.03,-156.8 565.03,-152.8 483.97,-152.8 483.97,-116.8 592.03,-116.8 592.03,-152.8"/>
<text text-anchor="middle" x="538" y="-130.6" font-family="Times,serif" font-size="14.00">GreetingModule</text>
</g>
<!-- GreetingComponent&#45;&gt;GreetingModule -->
<g id="edge5" class="edge">
<title>GreetingComponent&#45;&gt;GreetingModule</title>
<path fill="none" stroke="black" d="M538,-85.02C538,-85.02 538,-106.53 538,-106.53"/>
<polygon fill="black" stroke="black" points="534.5,-106.53 538,-116.53 541.5,-106.53 534.5,-106.53"/>
</g>
<!-- GreetingComponent  -->
<g id="node9" class="node">
<title>GreetingComponent </title>
<polygon fill="#fb8072" stroke="black" points="603.81,-220.8 470.19,-220.8 470.19,-184.8 603.81,-184.8 603.81,-220.8"/>
<text text-anchor="middle" x="537" y="-198.6" font-family="Times,serif" font-size="14.00">GreetingComponent </text>
</g>
<!-- GreetingModule&#45;&gt;GreetingComponent  -->
<g id="edge6" class="edge">
<title>GreetingModule&#45;&gt;GreetingComponent </title>
<path fill="none" stroke="black" stroke-dasharray="5,2" d="M538,-153.02C538,-153.02 538,-174.53 538,-174.53"/>
<polygon fill="black" stroke="black" points="534.5,-174.53 538,-184.53 541.5,-174.53 534.5,-174.53"/>
</g>
<!-- MaterialDocModule -->
<g id="node13" class="node">
<title>MaterialDocModule</title>
<polygon fill="#8dd3c7" stroke="black" points="953.29,-220.8 950.29,-224.8 929.29,-224.8 926.29,-220.8 822.71,-220.8 822.71,-184.8 953.29,-184.8 953.29,-220.8"/>
<text text-anchor="middle" x="888" y="-198.6" font-family="Times,serif" font-size="14.00">MaterialDocModule</text>
</g>
<!-- GreetingModule&#45;&gt;MaterialDocModule -->
<g id="edge10" class="edge">
<title>GreetingModule&#45;&gt;MaterialDocModule</title>
<path fill="none" stroke="black" d="M592.47,-134.8C609.54,-134.8 624.01,-134.8 624.01,-134.8 624.01,-134.8 624.01,-208.8 624.01,-208.8 624.01,-208.8 812.74,-208.8 812.74,-208.8"/>
<polygon fill="black" stroke="black" points="812.74,-212.3 822.74,-208.8 812.74,-205.3 812.74,-212.3"/>
</g>
<!-- GreetingDocComponent -->
<g id="node10" class="node">
<title>GreetingDocComponent</title>
<polygon fill="#ffffb3" stroke="black" points="1135.63,-152.8 982.37,-152.8 982.37,-116.8 1135.63,-116.8 1135.63,-152.8"/>
<text text-anchor="middle" x="1059" y="-130.6" font-family="Times,serif" font-size="14.00">GreetingDocComponent</text>
</g>
<!-- GreetingDocComponent&#45;&gt;MaterialDocModule -->
<g id="edge7" class="edge">
<title>GreetingDocComponent&#45;&gt;MaterialDocModule</title>
<path fill="none" stroke="black" d="M1059,-152.82C1059,-170.17 1059,-193.8 1059,-193.8 1059,-193.8 963.62,-193.8 963.62,-193.8"/>
<polygon fill="black" stroke="black" points="963.62,-190.3 953.62,-193.8 963.62,-197.3 963.62,-190.3"/>
</g>
<!-- MaterialDocComponent -->
<g id="node11" class="node">
<title>MaterialDocComponent</title>
<polygon fill="#ffffb3" stroke="black" points="964.07,-152.8 811.93,-152.8 811.93,-116.8 964.07,-116.8 964.07,-152.8"/>
<text text-anchor="middle" x="888" y="-130.6" font-family="Times,serif" font-size="14.00">MaterialDocComponent</text>
</g>
<!-- MaterialDocComponent&#45;&gt;MaterialDocModule -->
<g id="edge8" class="edge">
<title>MaterialDocComponent&#45;&gt;MaterialDocModule</title>
<path fill="none" stroke="black" d="M888,-153.02C888,-153.02 888,-174.53 888,-174.53"/>
<polygon fill="black" stroke="black" points="884.5,-174.53 888,-184.53 891.5,-174.53 884.5,-174.53"/>
</g>
<!-- SidenavDocComponent -->
<g id="node12" class="node">
<title>SidenavDocComponent</title>
<polygon fill="#ffffb3" stroke="black" points="793.76,-152.8 644.24,-152.8 644.24,-116.8 793.76,-116.8 793.76,-152.8"/>
<text text-anchor="middle" x="719" y="-130.6" font-family="Times,serif" font-size="14.00">SidenavDocComponent</text>
</g>
<!-- SidenavDocComponent&#45;&gt;MaterialDocModule -->
<g id="edge9" class="edge">
<title>SidenavDocComponent&#45;&gt;MaterialDocModule</title>
<path fill="none" stroke="black" d="M719,-153.07C719,-171.36 719,-196.8 719,-196.8 719,-196.8 812.66,-196.8 812.66,-196.8"/>
<polygon fill="black" stroke="black" points="812.66,-200.3 822.66,-196.8 812.66,-193.3 812.66,-200.3"/>
</g>
<!-- SidenavModule -->
<g id="node14" class="node">
<title>SidenavModule</title>
<polygon fill="#8dd3c7" stroke="black" points="1264.15,-152.8 1261.15,-156.8 1240.15,-156.8 1237.15,-152.8 1159.85,-152.8 1159.85,-116.8 1264.15,-116.8 1264.15,-152.8"/>
<text text-anchor="middle" x="1212" y="-130.6" font-family="Times,serif" font-size="14.00">SidenavModule</text>
</g>
<!-- SidenavModule&#45;&gt;MaterialDocModule -->
<g id="edge11" class="edge">
<title>SidenavModule&#45;&gt;MaterialDocModule</title>
<path fill="none" stroke="black" d="M1194.56,-153.02C1194.56,-173.17 1194.56,-202.8 1194.56,-202.8 1194.56,-202.8 963.39,-202.8 963.39,-202.8"/>
<polygon fill="black" stroke="black" points="963.39,-199.3 953.39,-202.8 963.39,-206.3 963.39,-199.3"/>
</g>
<!-- SidenavComponent  -->
<g id="node16" class="node">
<title>SidenavComponent </title>
<polygon fill="#fb8072" stroke="black" points="1433.93,-220.8 1304.07,-220.8 1304.07,-184.8 1433.93,-184.8 1433.93,-220.8"/>
<text text-anchor="middle" x="1369" y="-198.6" font-family="Times,serif" font-size="14.00">SidenavComponent </text>
</g>
<!-- SidenavModule&#45;&gt;SidenavComponent  -->
<g id="edge13" class="edge">
<title>SidenavModule&#45;&gt;SidenavComponent </title>
<path fill="none" stroke="black" stroke-dasharray="5,2" d="M1229.44,-153.05C1229.44,-175.82 1229.44,-211.8 1229.44,-211.8 1229.44,-211.8 1293.72,-211.8 1293.72,-211.8"/>
<polygon fill="black" stroke="black" points="1293.72,-215.3 1303.72,-211.8 1293.72,-208.3 1293.72,-215.3"/>
</g>
<!-- SidenavComponent -->
<g id="node15" class="node">
<title>SidenavComponent</title>
<polygon fill="#ffffb3" stroke="black" points="1584.44,-220.8 1457.56,-220.8 1457.56,-184.8 1584.44,-184.8 1584.44,-220.8"/>
<text text-anchor="middle" x="1521" y="-198.6" font-family="Times,serif" font-size="14.00">SidenavComponent</text>
</g>
<!-- SidenavComponent&#45;&gt;SidenavModule -->
<g id="edge12" class="edge">
<title>SidenavComponent&#45;&gt;SidenavModule</title>
<path fill="none" stroke="black" d="M1521,-184.58C1521,-164.43 1521,-134.8 1521,-134.8 1521,-134.8 1274.42,-134.8 1274.42,-134.8"/>
<polygon fill="black" stroke="black" points="1274.42,-131.3 1264.42,-134.8 1274.42,-138.3 1274.42,-131.3"/>
</g>
</g>
</svg>
