<?xml version="1.0" encoding="UTF-8" standalone="no"?>
<!DOCTYPE svg PUBLIC "-//W3C//DTD SVG 1.1//EN"
 "http://www.w3.org/Graphics/SVG/1.1/DTD/svg11.dtd">
<!-- Generated by graphviz version 2.47.3 (20210619.1520)
 -->
<!-- Title: dependencies Pages: 1 -->
<svg width="314pt" height="247pt"
 viewBox="0.00 0.00 314.00 246.80" xmlns="http://www.w3.org/2000/svg" xmlns:xlink="http://www.w3.org/1999/xlink">
<g id="graph0" class="graph" transform="scale(1 1) rotate(0) translate(4 242.8)">
<title>dependencies</title>
<polygon fill="white" stroke="transparent" points="-4,4 -4,-242.8 310,-242.8 310,4 -4,4"/>
<text text-anchor="middle" x="153" y="-8.2" font-family="sans-serif" font-size="14.00">dependencies</text>
<g id="clust1" class="cluster">
<title>cluster_ChartModule</title>
<polygon fill="none" stroke="black" stroke-dasharray="1,5" points="8,-32.8 8,-230.8 298,-230.8 298,-32.8 8,-32.8"/>
</g>
<g id="clust5" class="cluster">
<title>cluster_ChartModule_exports</title>
<polygon fill="none" stroke="black" points="88,-170.8 88,-222.8 220,-222.8 220,-170.8 88,-170.8"/>
</g>
<g id="clust2" class="cluster">
<title>cluster_ChartModule_declarations</title>
<polygon fill="none" stroke="black" points="162,-40.8 162,-92.8 290,-92.8 290,-40.8 162,-40.8"/>
</g>
<g id="clust7" class="cluster">
<title>cluster_ChartModule_providers</title>
<polygon fill="none" stroke="black" points="16,-40.8 16,-92.8 154,-92.8 154,-40.8 16,-40.8"/>
</g>
<!-- ChartComponent -->
<g id="node1" class="node">
<title>ChartComponent</title>
<polygon fill="#ffffb3" stroke="black" points="282.44,-84.8 169.56,-84.8 169.56,-48.8 282.44,-48.8 282.44,-84.8"/>
<text text-anchor="middle" x="226" y="-62.6" font-family="Times,serif" font-size="14.00">ChartComponent</text>
</g>
<!-- ChartModule -->
<g id="node2" class="node">
<title>ChartModule</title>
<polygon fill="#8dd3c7" stroke="black" points="199.15,-149.8 196.15,-153.8 175.15,-153.8 172.15,-149.8 108.85,-149.8 108.85,-113.8 199.15,-113.8 199.15,-149.8"/>
<text text-anchor="middle" x="154" y="-127.6" font-family="Times,serif" font-size="14.00">ChartModule</text>
</g>
<!-- ChartComponent&#45;&gt;ChartModule -->
<g id="edge1" class="edge">
<title>ChartComponent&#45;&gt;ChartModule</title>
<path fill="none" stroke="black" d="M184.55,-84.91C184.55,-84.91 184.55,-103.79 184.55,-103.79"/>
<polygon fill="black" stroke="black" points="181.05,-103.79 184.55,-113.79 188.05,-103.79 181.05,-103.79"/>
</g>
<!-- ChartComponent  -->
<g id="node3" class="node">
<title>ChartComponent </title>
<polygon fill="#fb8072" stroke="black" points="211.93,-214.8 96.07,-214.8 96.07,-178.8 211.93,-178.8 211.93,-214.8"/>
<text text-anchor="middle" x="154" y="-192.6" font-family="Times,serif" font-size="14.00">ChartComponent </text>
</g>
<!-- ChartModule&#45;&gt;ChartComponent  -->
<g id="edge2" class="edge">
<title>ChartModule&#45;&gt;ChartComponent </title>
<path fill="none" stroke="black" stroke-dasharray="5,2" d="M154,-149.91C154,-149.91 154,-168.79 154,-168.79"/>
<polygon fill="black" stroke="black" points="150.5,-168.79 154,-178.79 157.5,-168.79 150.5,-168.79"/>
</g>
<!-- ChartService -->
<g id="node4" class="node">
<title>ChartService</title>
<ellipse fill="#fdb462" stroke="black" cx="85" cy="-66.8" rx="61.39" ry="18"/>
<text text-anchor="middle" x="85" y="-62.6" font-family="Times,serif" font-size="14.00">ChartService</text>
</g>
<!-- ChartService&#45;&gt;ChartModule -->
<g id="edge3" class="edge">
<title>ChartService&#45;&gt;ChartModule</title>
<path fill="none" stroke="black" d="M127.56,-79.95C127.56,-79.95 127.56,-103.49 127.56,-103.49"/>
<polygon fill="black" stroke="black" points="124.06,-103.49 127.56,-113.49 131.06,-103.49 124.06,-103.49"/>
</g>
</g>
</svg>
