<?xml version="1.0" encoding="UTF-8" standalone="no"?>
<!DOCTYPE svg PUBLIC "-//W3C//DTD SVG 1.1//EN"
 "http://www.w3.org/Graphics/SVG/1.1/DTD/svg11.dtd">
<!-- Generated by graphviz version 2.47.3 (20210619.1520)
 -->
<!-- Title: dependencies Pages: 1 -->
<svg width="262pt" height="247pt"
 viewBox="0.00 0.00 262.00 246.80" xmlns="http://www.w3.org/2000/svg" xmlns:xlink="http://www.w3.org/1999/xlink">
<g id="graph0" class="graph" transform="scale(1 1) rotate(0) translate(4 242.8)">
<title>dependencies</title>
<polygon fill="white" stroke="transparent" points="-4,4 -4,-242.8 258,-242.8 258,4 -4,4"/>
<text text-anchor="middle" x="127" y="-8.2" font-family="sans-serif" font-size="14.00">dependencies</text>
<g id="clust1" class="cluster">
<title>cluster_UtilsModule</title>
<polygon fill="none" stroke="black" stroke-dasharray="1,5" points="8,-32.8 8,-230.8 246,-230.8 246,-32.8 8,-32.8"/>
</g>
<g id="clust6" class="cluster">
<title>cluster_UtilsModule_exports</title>
<polygon fill="none" stroke="black" points="16,-170.8 16,-222.8 238,-222.8 238,-170.8 16,-170.8"/>
</g>
<g id="clust2" class="cluster">
<title>cluster_UtilsModule_declarations</title>
<polygon fill="none" stroke="black" points="20,-40.8 20,-92.8 234,-92.8 234,-40.8 20,-40.8"/>
</g>
<!-- AssetPipe -->
<g id="node1" class="node">
<title>AssetPipe</title>
<polygon fill="#ffffb3" stroke="black" points="225.99,-84.8 154.01,-84.8 154.01,-48.8 225.99,-48.8 225.99,-84.8"/>
<text text-anchor="middle" x="190" y="-62.6" font-family="Times,serif" font-size="14.00">AssetPipe</text>
</g>
<!-- UtilsModule -->
<g id="node3" class="node">
<title>UtilsModule</title>
<polygon fill="#8dd3c7" stroke="black" points="126.27,-149.8 123.27,-153.8 102.27,-153.8 99.27,-149.8 39.73,-149.8 39.73,-113.8 126.27,-113.8 126.27,-149.8"/>
<text text-anchor="middle" x="83" y="-127.6" font-family="Times,serif" font-size="14.00">UtilsModule</text>
</g>
<!-- AssetPipe&#45;&gt;UtilsModule -->
<g id="edge1" class="edge">
<title>AssetPipe&#45;&gt;UtilsModule</title>
<path fill="none" stroke="black" d="M202.08,-84.82C202.08,-102.17 202.08,-125.8 202.08,-125.8 202.08,-125.8 136.33,-125.8 136.33,-125.8"/>
<polygon fill="black" stroke="black" points="136.33,-122.3 126.33,-125.8 136.33,-129.3 136.33,-122.3"/>
</g>
<!-- UtilsComponent -->
<g id="node2" class="node">
<title>UtilsComponent</title>
<polygon fill="#ffffb3" stroke="black" points="136.06,-84.8 27.94,-84.8 27.94,-48.8 136.06,-48.8 136.06,-84.8"/>
<text text-anchor="middle" x="82" y="-62.6" font-family="Times,serif" font-size="14.00">UtilsComponent</text>
</g>
<!-- UtilsComponent&#45;&gt;UtilsModule -->
<g id="edge2" class="edge">
<title>UtilsComponent&#45;&gt;UtilsModule</title>
<path fill="none" stroke="black" d="M83,-84.91C83,-84.91 83,-103.79 83,-103.79"/>
<polygon fill="black" stroke="black" points="79.5,-103.79 83,-113.79 86.5,-103.79 79.5,-103.79"/>
</g>
<!-- AssetPipe  -->
<g id="node4" class="node">
<title>AssetPipe </title>
<polygon fill="#fb8072" stroke="black" points="229.99,-214.8 154.01,-214.8 154.01,-178.8 229.99,-178.8 229.99,-214.8"/>
<text text-anchor="middle" x="192" y="-192.6" font-family="Times,serif" font-size="14.00">AssetPipe </text>
</g>
<!-- UtilsModule&#45;&gt;AssetPipe  -->
<g id="edge3" class="edge">
<title>UtilsModule&#45;&gt;AssetPipe </title>
<path fill="none" stroke="black" stroke-dasharray="5,2" d="M126.41,-137.8C151.51,-137.8 178.17,-137.8 178.17,-137.8 178.17,-137.8 178.17,-168.78 178.17,-168.78"/>
<polygon fill="black" stroke="black" points="174.67,-168.78 178.17,-178.78 181.67,-168.78 174.67,-168.78"/>
</g>
<!-- UtilsComponent  -->
<g id="node5" class="node">
<title>UtilsComponent </title>
<polygon fill="#fb8072" stroke="black" points="136.06,-214.8 23.94,-214.8 23.94,-178.8 136.06,-178.8 136.06,-214.8"/>
<text text-anchor="middle" x="80" y="-192.6" font-family="Times,serif" font-size="14.00">UtilsComponent </text>
</g>
<!-- UtilsModule&#45;&gt;UtilsComponent  -->
<g id="edge4" class="edge">
<title>UtilsModule&#45;&gt;UtilsComponent </title>
<path fill="none" stroke="black" stroke-dasharray="5,2" d="M83,-149.91C83,-149.91 83,-168.79 83,-168.79"/>
<polygon fill="black" stroke="black" points="79.5,-168.79 83,-178.79 86.5,-168.79 79.5,-168.79"/>
</g>
</g>
</svg>
