<?xml version="1.0" encoding="UTF-8" standalone="no"?>
<!DOCTYPE svg PUBLIC "-//W3C//DTD SVG 1.1//EN"
 "http://www.w3.org/Graphics/SVG/1.1/DTD/svg11.dtd">
<!-- Generated by graphviz version 2.47.3 (20210619.1520)
 -->
<!-- Title: dependencies Pages: 1 -->
<svg width="390pt" height="247pt"
 viewBox="0.00 0.00 390.00 246.80" xmlns="http://www.w3.org/2000/svg" xmlns:xlink="http://www.w3.org/1999/xlink">
<g id="graph0" class="graph" transform="scale(1 1) rotate(0) translate(4 242.8)">
<title>dependencies</title>
<polygon fill="white" stroke="transparent" points="-4,4 -4,-242.8 386,-242.8 386,4 -4,4"/>
<text text-anchor="middle" x="191" y="-8.2" font-family="sans-serif" font-size="14.00">dependencies</text>
<g id="clust1" class="cluster">
<title>cluster_QrcodeModule</title>
<polygon fill="none" stroke="black" stroke-dasharray="1,5" points="8,-32.8 8,-230.8 374,-230.8 374,-32.8 8,-32.8"/>
</g>
<g id="clust6" class="cluster">
<title>cluster_QrcodeModule_exports</title>
<polygon fill="none" stroke="black" points="16,-170.8 16,-222.8 366,-222.8 366,-170.8 16,-170.8"/>
</g>
<g id="clust2" class="cluster">
<title>cluster_QrcodeModule_declarations</title>
<polygon fill="none" stroke="black" points="20,-40.8 20,-92.8 362,-92.8 362,-40.8 20,-40.8"/>
</g>
<!-- QrcodeGenComponent -->
<g id="node1" class="node">
<title>QrcodeGenComponent</title>
<polygon fill="#ffffb3" stroke="black" points="353.85,-84.8 208.15,-84.8 208.15,-48.8 353.85,-48.8 353.85,-84.8"/>
<text text-anchor="middle" x="281" y="-62.6" font-family="Times,serif" font-size="14.00">QrcodeGenComponent</text>
</g>
<!-- QrcodeModule -->
<g id="node3" class="node">
<title>QrcodeModule</title>
<polygon fill="#8dd3c7" stroke="black" points="160.25,-149.8 157.25,-153.8 136.25,-153.8 133.25,-149.8 59.75,-149.8 59.75,-113.8 160.25,-113.8 160.25,-149.8"/>
<text text-anchor="middle" x="110" y="-127.6" font-family="Times,serif" font-size="14.00">QrcodeModule</text>
</g>
<!-- QrcodeGenComponent&#45;&gt;QrcodeModule -->
<g id="edge1" class="edge">
<title>QrcodeGenComponent&#45;&gt;QrcodeModule</title>
<path fill="none" stroke="black" d="M305.39,-84.82C305.39,-102.17 305.39,-125.8 305.39,-125.8 305.39,-125.8 170.32,-125.8 170.32,-125.8"/>
<polygon fill="black" stroke="black" points="170.32,-122.3 160.32,-125.8 170.32,-129.3 170.32,-122.3"/>
</g>
<!-- QrcodeReaderComponent -->
<g id="node2" class="node">
<title>QrcodeReaderComponent</title>
<polygon fill="#ffffb3" stroke="black" points="190.17,-84.8 27.83,-84.8 27.83,-48.8 190.17,-48.8 190.17,-84.8"/>
<text text-anchor="middle" x="109" y="-62.6" font-family="Times,serif" font-size="14.00">QrcodeReaderComponent</text>
</g>
<!-- QrcodeReaderComponent&#45;&gt;QrcodeModule -->
<g id="edge2" class="edge">
<title>QrcodeReaderComponent&#45;&gt;QrcodeModule</title>
<path fill="none" stroke="black" d="M110,-84.91C110,-84.91 110,-103.79 110,-103.79"/>
<polygon fill="black" stroke="black" points="106.5,-103.79 110,-113.79 113.5,-103.79 106.5,-103.79"/>
</g>
<!-- QrcodeGenComponent  -->
<g id="node4" class="node">
<title>QrcodeGenComponent </title>
<polygon fill="#fb8072" stroke="black" points="357.85,-214.8 208.15,-214.8 208.15,-178.8 357.85,-178.8 357.85,-214.8"/>
<text text-anchor="middle" x="283" y="-192.6" font-family="Times,serif" font-size="14.00">QrcodeGenComponent </text>
</g>
<!-- QrcodeModule&#45;&gt;QrcodeGenComponent  -->
<g id="edge3" class="edge">
<title>QrcodeModule&#45;&gt;QrcodeGenComponent </title>
<path fill="none" stroke="black" stroke-dasharray="5,2" d="M160.54,-137.8C203.02,-137.8 256.86,-137.8 256.86,-137.8 256.86,-137.8 256.86,-168.78 256.86,-168.78"/>
<polygon fill="black" stroke="black" points="253.36,-168.78 256.86,-178.78 260.36,-168.78 253.36,-168.78"/>
</g>
<!-- QrcodeReaderComponent  -->
<g id="node5" class="node">
<title>QrcodeReaderComponent </title>
<polygon fill="#fb8072" stroke="black" points="189.67,-214.8 24.33,-214.8 24.33,-178.8 189.67,-178.8 189.67,-214.8"/>
<text text-anchor="middle" x="107" y="-192.6" font-family="Times,serif" font-size="14.00">QrcodeReaderComponent </text>
</g>
<!-- QrcodeModule&#45;&gt;QrcodeReaderComponent  -->
<g id="edge4" class="edge">
<title>QrcodeModule&#45;&gt;QrcodeReaderComponent </title>
<path fill="none" stroke="black" stroke-dasharray="5,2" d="M110,-149.91C110,-149.91 110,-168.79 110,-168.79"/>
<polygon fill="black" stroke="black" points="106.5,-168.79 110,-178.79 113.5,-168.79 106.5,-168.79"/>
</g>
</g>
</svg>
