<?xml version="1.0" encoding="UTF-8" standalone="no"?>
<!DOCTYPE svg PUBLIC "-//W3C//DTD SVG 1.1//EN"
 "http://www.w3.org/Graphics/SVG/1.1/DTD/svg11.dtd">
<!-- Generated by graphviz version 2.47.3 (20210619.1520)
 -->
<!-- Title: dependencies Pages: 1 -->
<svg width="236pt" height="247pt"
 viewBox="0.00 0.00 236.00 246.80" xmlns="http://www.w3.org/2000/svg" xmlns:xlink="http://www.w3.org/1999/xlink">
<g id="graph0" class="graph" transform="scale(1 1) rotate(0) translate(4 242.8)">
<title>dependencies</title>
<polygon fill="white" stroke="transparent" points="-4,4 -4,-242.8 232,-242.8 232,4 -4,4"/>
<text text-anchor="middle" x="114" y="-8.2" font-family="sans-serif" font-size="14.00">dependencies</text>
<g id="clust1" class="cluster">
<title>cluster_OrganizationModule</title>
<polygon fill="none" stroke="black" stroke-dasharray="1,5" points="8,-32.8 8,-230.8 220,-230.8 220,-32.8 8,-32.8"/>
</g>
<g id="clust6" class="cluster">
<title>cluster_OrganizationModule_providers</title>
<polygon fill="none" stroke="black" points="16,-40.8 16,-92.8 212,-92.8 212,-40.8 16,-40.8"/>
</g>
<g id="clust4" class="cluster">
<title>cluster_OrganizationModule_exports</title>
<polygon fill="none" stroke="black" points="39,-170.8 39,-222.8 189,-222.8 189,-170.8 39,-170.8"/>
</g>
<!-- OrganizationService  -->
<g id="node1" class="node">
<title>OrganizationService </title>
<polygon fill="#fb8072" stroke="black" points="181.06,-214.8 46.94,-214.8 46.94,-178.8 181.06,-178.8 181.06,-214.8"/>
<text text-anchor="middle" x="114" y="-192.6" font-family="Times,serif" font-size="14.00">OrganizationService </text>
</g>
<!-- OrganizationModule -->
<g id="node2" class="node">
<title>OrganizationModule</title>
<polygon fill="#8dd3c7" stroke="black" points="180.13,-149.8 177.13,-153.8 156.13,-153.8 153.13,-149.8 47.87,-149.8 47.87,-113.8 180.13,-113.8 180.13,-149.8"/>
<text text-anchor="middle" x="114" y="-127.6" font-family="Times,serif" font-size="14.00">OrganizationModule</text>
</g>
<!-- OrganizationModule&#45;&gt;OrganizationService  -->
<g id="edge1" class="edge">
<title>OrganizationModule&#45;&gt;OrganizationService </title>
<path fill="none" stroke="black" stroke-dasharray="5,2" d="M114,-149.91C114,-149.91 114,-168.79 114,-168.79"/>
<polygon fill="black" stroke="black" points="110.5,-168.79 114,-178.79 117.5,-168.79 110.5,-168.79"/>
</g>
<!-- OrganizationService -->
<g id="node3" class="node">
<title>OrganizationService</title>
<ellipse fill="#fdb462" stroke="black" cx="114" cy="-66.8" rx="90.31" ry="18"/>
<text text-anchor="middle" x="114" y="-62.6" font-family="Times,serif" font-size="14.00">OrganizationService</text>
</g>
<!-- OrganizationService&#45;&gt;OrganizationModule -->
<g id="edge2" class="edge">
<title>OrganizationService&#45;&gt;OrganizationModule</title>
<path fill="none" stroke="black" d="M114,-84.91C114,-84.91 114,-103.79 114,-103.79"/>
<polygon fill="black" stroke="black" points="110.5,-103.79 114,-113.79 117.5,-103.79 110.5,-103.79"/>
</g>
</g>
</svg>
