<?xml version="1.0" encoding="UTF-8" standalone="no"?>
<!DOCTYPE svg PUBLIC "-//W3C//DTD SVG 1.1//EN"
 "http://www.w3.org/Graphics/SVG/1.1/DTD/svg11.dtd">
<!-- Generated by graphviz version 2.47.3 (20210619.1520)
 -->
<!-- Title: dependencies Pages: 1 -->
<svg width="304pt" height="247pt"
 viewBox="0.00 0.00 304.00 246.80" xmlns="http://www.w3.org/2000/svg" xmlns:xlink="http://www.w3.org/1999/xlink">
<g id="graph0" class="graph" transform="scale(1 1) rotate(0) translate(4 242.8)">
<title>dependencies</title>
<polygon fill="white" stroke="transparent" points="-4,4 -4,-242.8 300,-242.8 300,4 -4,4"/>
<text text-anchor="middle" x="148" y="-8.2" font-family="sans-serif" font-size="14.00">dependencies</text>
<g id="clust1" class="cluster">
<title>cluster_InvoiceModule</title>
<polygon fill="none" stroke="black" stroke-dasharray="1,5" points="8,-32.8 8,-230.8 288,-230.8 288,-32.8 8,-32.8"/>
</g>
<g id="clust4" class="cluster">
<title>cluster_InvoiceModule_imports</title>
<polygon fill="none" stroke="black" points="164,-40.8 164,-92.8 280,-92.8 280,-40.8 164,-40.8"/>
</g>
<g id="clust5" class="cluster">
<title>cluster_InvoiceModule_exports</title>
<polygon fill="none" stroke="black" points="77,-170.8 77,-222.8 219,-222.8 219,-170.8 77,-170.8"/>
</g>
<g id="clust2" class="cluster">
<title>cluster_InvoiceModule_declarations</title>
<polygon fill="none" stroke="black" points="16,-40.8 16,-92.8 156,-92.8 156,-40.8 16,-40.8"/>
</g>
<!-- InvoiceComponent -->
<g id="node1" class="node">
<title>InvoiceComponent</title>
<polygon fill="#ffffb3" stroke="black" points="147.81,-84.8 24.19,-84.8 24.19,-48.8 147.81,-48.8 147.81,-84.8"/>
<text text-anchor="middle" x="86" y="-62.6" font-family="Times,serif" font-size="14.00">InvoiceComponent</text>
</g>
<!-- InvoiceModule -->
<g id="node2" class="node">
<title>InvoiceModule</title>
<polygon fill="#8dd3c7" stroke="black" points="198.53,-149.8 195.53,-153.8 174.53,-153.8 171.53,-149.8 97.47,-149.8 97.47,-113.8 198.53,-113.8 198.53,-149.8"/>
<text text-anchor="middle" x="148" y="-127.6" font-family="Times,serif" font-size="14.00">InvoiceModule</text>
</g>
<!-- InvoiceComponent&#45;&gt;InvoiceModule -->
<g id="edge1" class="edge">
<title>InvoiceComponent&#45;&gt;InvoiceModule</title>
<path fill="none" stroke="black" d="M122.45,-84.91C122.45,-84.91 122.45,-103.79 122.45,-103.79"/>
<polygon fill="black" stroke="black" points="118.95,-103.79 122.45,-113.79 125.95,-103.79 118.95,-103.79"/>
</g>
<!-- InvoiceComponent  -->
<g id="node4" class="node">
<title>InvoiceComponent </title>
<polygon fill="#fb8072" stroke="black" points="211.31,-214.8 84.69,-214.8 84.69,-178.8 211.31,-178.8 211.31,-214.8"/>
<text text-anchor="middle" x="148" y="-192.6" font-family="Times,serif" font-size="14.00">InvoiceComponent </text>
</g>
<!-- InvoiceModule&#45;&gt;InvoiceComponent  -->
<g id="edge3" class="edge">
<title>InvoiceModule&#45;&gt;InvoiceComponent </title>
<path fill="none" stroke="black" stroke-dasharray="5,2" d="M148,-149.91C148,-149.91 148,-168.79 148,-168.79"/>
<polygon fill="black" stroke="black" points="144.5,-168.79 148,-178.79 151.5,-168.79 144.5,-168.79"/>
</g>
<!-- QrcodeModule -->
<g id="node3" class="node">
<title>QrcodeModule</title>
<polygon fill="#8dd3c7" stroke="black" points="272.25,-84.8 269.25,-88.8 248.25,-88.8 245.25,-84.8 171.75,-84.8 171.75,-48.8 272.25,-48.8 272.25,-84.8"/>
<text text-anchor="middle" x="222" y="-62.6" font-family="Times,serif" font-size="14.00">QrcodeModule</text>
</g>
<!-- QrcodeModule&#45;&gt;InvoiceModule -->
<g id="edge2" class="edge">
<title>QrcodeModule&#45;&gt;InvoiceModule</title>
<path fill="none" stroke="black" d="M185.2,-84.91C185.2,-84.91 185.2,-103.79 185.2,-103.79"/>
<polygon fill="black" stroke="black" points="181.7,-103.79 185.2,-113.79 188.7,-103.79 181.7,-103.79"/>
</g>
</g>
</svg>
