<?xml version="1.0" encoding="UTF-8" standalone="no"?>
<!DOCTYPE svg PUBLIC "-//W3C//DTD SVG 1.1//EN"
 "http://www.w3.org/Graphics/SVG/1.1/DTD/svg11.dtd">
<!-- Generated by graphviz version 2.47.3 (20210619.1520)
 -->
<!-- Title: dependencies Pages: 1 -->
<svg width="409pt" height="247pt"
 viewBox="0.00 0.00 409.00 246.80" xmlns="http://www.w3.org/2000/svg" xmlns:xlink="http://www.w3.org/1999/xlink">
<g id="graph0" class="graph" transform="scale(1 1) rotate(0) translate(4 242.8)">
<title>dependencies</title>
<polygon fill="white" stroke="transparent" points="-4,4 -4,-242.8 405,-242.8 405,4 -4,4"/>
<text text-anchor="middle" x="200.5" y="-8.2" font-family="sans-serif" font-size="14.00">dependencies</text>
<g id="clust1" class="cluster">
<title>cluster_InvoiceModule</title>
<polygon fill="none" stroke="black" stroke-dasharray="1,5" points="8,-32.8 8,-230.8 393,-230.8 393,-32.8 8,-32.8"/>
</g>
<g id="clust4" class="cluster">
<title>cluster_InvoiceModule_imports</title>
<polygon fill="none" stroke="black" points="164,-40.8 164,-92.8 385,-92.8 385,-40.8 164,-40.8"/>
</g>
<g id="clust2" class="cluster">
<title>cluster_InvoiceModule_declarations</title>
<polygon fill="none" stroke="black" points="16,-40.8 16,-92.8 156,-92.8 156,-40.8 16,-40.8"/>
</g>
<g id="clust5" class="cluster">
<title>cluster_InvoiceModule_exports</title>
<polygon fill="none" stroke="black" points="144,-170.8 144,-222.8 286,-222.8 286,-170.8 144,-170.8"/>
</g>
<!-- InvoiceComponent -->
<g id="node1" class="node">
<title>InvoiceComponent</title>
<polygon fill="#ffffb3" stroke="black" points="147.81,-84.8 24.19,-84.8 24.19,-48.8 147.81,-48.8 147.81,-84.8"/>
<text text-anchor="middle" x="86" y="-62.6" font-family="Times,serif" font-size="14.00">InvoiceComponent</text>
</g>
<!-- InvoiceModule -->
<g id="node2" class="node">
<title>InvoiceModule</title>
<polygon fill="#8dd3c7" stroke="black" points="265.53,-149.8 262.53,-153.8 241.53,-153.8 238.53,-149.8 164.47,-149.8 164.47,-113.8 265.53,-113.8 265.53,-149.8"/>
<text text-anchor="middle" x="215" y="-127.6" font-family="Times,serif" font-size="14.00">InvoiceModule</text>
</g>
<!-- InvoiceComponent&#45;&gt;InvoiceModule -->
<g id="edge1" class="edge">
<title>InvoiceComponent&#45;&gt;InvoiceModule</title>
<path fill="none" stroke="black" d="M147.67,-66.8C159.31,-66.8 167.92,-66.8 167.92,-66.8 167.92,-66.8 167.92,-103.69 167.92,-103.69"/>
<polygon fill="black" stroke="black" points="164.42,-103.69 167.92,-113.69 171.42,-103.69 164.42,-103.69"/>
</g>
<!-- InvoiceComponent  -->
<g id="node5" class="node">
<title>InvoiceComponent </title>
<polygon fill="#fb8072" stroke="black" points="278.31,-214.8 151.69,-214.8 151.69,-178.8 278.31,-178.8 278.31,-214.8"/>
<text text-anchor="middle" x="215" y="-192.6" font-family="Times,serif" font-size="14.00">InvoiceComponent </text>
</g>
<!-- InvoiceModule&#45;&gt;InvoiceComponent  -->
<g id="edge4" class="edge">
<title>InvoiceModule&#45;&gt;InvoiceComponent </title>
<path fill="none" stroke="black" stroke-dasharray="5,2" d="M215,-149.91C215,-149.91 215,-168.79 215,-168.79"/>
<polygon fill="black" stroke="black" points="211.5,-168.79 215,-178.79 218.5,-168.79 211.5,-168.79"/>
</g>
<!-- QrcodeModule -->
<g id="node3" class="node">
<title>QrcodeModule</title>
<polygon fill="#8dd3c7" stroke="black" points="377.25,-84.8 374.25,-88.8 353.25,-88.8 350.25,-84.8 276.75,-84.8 276.75,-48.8 377.25,-48.8 377.25,-84.8"/>
<text text-anchor="middle" x="327" y="-62.6" font-family="Times,serif" font-size="14.00">QrcodeModule</text>
</g>
<!-- QrcodeModule&#45;&gt;InvoiceModule -->
<g id="edge2" class="edge">
<title>QrcodeModule&#45;&gt;InvoiceModule</title>
<path fill="none" stroke="black" d="M276.48,-66.8C268.1,-66.8 262.08,-66.8 262.08,-66.8 262.08,-66.8 262.08,-103.69 262.08,-103.69"/>
<polygon fill="black" stroke="black" points="258.58,-103.69 262.08,-113.69 265.58,-103.69 258.58,-103.69"/>
</g>
<!-- UtilsModule -->
<g id="node4" class="node">
<title>UtilsModule</title>
<polygon fill="#8dd3c7" stroke="black" points="258.27,-84.8 255.27,-88.8 234.27,-88.8 231.27,-84.8 171.73,-84.8 171.73,-48.8 258.27,-48.8 258.27,-84.8"/>
<text text-anchor="middle" x="215" y="-62.6" font-family="Times,serif" font-size="14.00">UtilsModule</text>
</g>
<!-- UtilsModule&#45;&gt;InvoiceModule -->
<g id="edge3" class="edge">
<title>UtilsModule&#45;&gt;InvoiceModule</title>
<path fill="none" stroke="black" d="M215,-84.91C215,-84.91 215,-103.79 215,-103.79"/>
<polygon fill="black" stroke="black" points="211.5,-103.79 215,-113.79 218.5,-103.79 211.5,-103.79"/>
</g>
</g>
</svg>
