<?xml version="1.0" encoding="UTF-8" standalone="no"?>
<!DOCTYPE svg PUBLIC "-//W3C//DTD SVG 1.1//EN"
 "http://www.w3.org/Graphics/SVG/1.1/DTD/svg11.dtd">
<!-- Generated by graphviz version 2.47.3 (20210619.1520)
 -->
<!-- Title: dependencies Pages: 1 -->
<svg width="409pt" height="247pt"
 viewBox="0.00 0.00 409.00 246.80" xmlns="http://www.w3.org/2000/svg" xmlns:xlink="http://www.w3.org/1999/xlink">
<g id="graph0" class="graph" transform="scale(1 1) rotate(0) translate(4 242.8)">
<title>dependencies</title>
<polygon fill="white" stroke="transparent" points="-4,4 -4,-242.8 405,-242.8 405,4 -4,4"/>
<text text-anchor="middle" x="200.5" y="-8.2" font-family="sans-serif" font-size="14.00">dependencies</text>
<g id="clust1" class="cluster">
<title>cluster_InvoiceModule</title>
<polygon fill="none" stroke="black" stroke-dasharray="1,5" points="8,-32.8 8,-230.8 393,-230.8 393,-32.8 8,-32.8"/>
</g>
<g id="clust2" class="cluster">
<title>cluster_InvoiceModule_declarations</title>
<polygon fill="none" stroke="black" points="245,-40.8 245,-92.8 385,-92.8 385,-40.8 245,-40.8"/>
</g>
<g id="clust5" class="cluster">
<title>cluster_InvoiceModule_exports</title>
<polygon fill="none" stroke="black" points="108,-170.8 108,-222.8 250,-222.8 250,-170.8 108,-170.8"/>
</g>
<g id="clust4" class="cluster">
<title>cluster_InvoiceModule_imports</title>
<polygon fill="none" stroke="black" points="16,-40.8 16,-92.8 237,-92.8 237,-40.8 16,-40.8"/>
</g>
<!-- InvoiceComponent -->
<g id="node1" class="node">
<title>InvoiceComponent</title>
<polygon fill="#ffffb3" stroke="black" points="376.81,-84.8 253.19,-84.8 253.19,-48.8 376.81,-48.8 376.81,-84.8"/>
<text text-anchor="middle" x="315" y="-62.6" font-family="Times,serif" font-size="14.00">InvoiceComponent</text>
</g>
<!-- InvoiceModule -->
<g id="node2" class="node">
<title>InvoiceModule</title>
<polygon fill="#8dd3c7" stroke="black" points="229.53,-149.8 226.53,-153.8 205.53,-153.8 202.53,-149.8 128.47,-149.8 128.47,-113.8 229.53,-113.8 229.53,-149.8"/>
<text text-anchor="middle" x="179" y="-127.6" font-family="Times,serif" font-size="14.00">InvoiceModule</text>
</g>
<!-- InvoiceComponent&#45;&gt;InvoiceModule -->
<g id="edge1" class="edge">
<title>InvoiceComponent&#45;&gt;InvoiceModule</title>
<path fill="none" stroke="black" d="M315,-84.91C315,-104.14 315,-131.8 315,-131.8 315,-131.8 239.64,-131.8 239.64,-131.8"/>
<polygon fill="black" stroke="black" points="239.64,-128.3 229.64,-131.8 239.64,-135.3 239.64,-128.3"/>
</g>
<!-- InvoiceComponent  -->
<g id="node5" class="node">
<title>InvoiceComponent </title>
<polygon fill="#fb8072" stroke="black" points="242.31,-214.8 115.69,-214.8 115.69,-178.8 242.31,-178.8 242.31,-214.8"/>
<text text-anchor="middle" x="179" y="-192.6" font-family="Times,serif" font-size="14.00">InvoiceComponent </text>
</g>
<!-- InvoiceModule&#45;&gt;InvoiceComponent  -->
<g id="edge4" class="edge">
<title>InvoiceModule&#45;&gt;InvoiceComponent </title>
<path fill="none" stroke="black" stroke-dasharray="5,2" d="M179,-149.91C179,-149.91 179,-168.79 179,-168.79"/>
<polygon fill="black" stroke="black" points="175.5,-168.79 179,-178.79 182.5,-168.79 175.5,-168.79"/>
</g>
<!-- QrcodeModule -->
<g id="node3" class="node">
<title>QrcodeModule</title>
<polygon fill="#8dd3c7" stroke="black" points="229.25,-84.8 226.25,-88.8 205.25,-88.8 202.25,-84.8 128.75,-84.8 128.75,-48.8 229.25,-48.8 229.25,-84.8"/>
<text text-anchor="middle" x="179" y="-62.6" font-family="Times,serif" font-size="14.00">QrcodeModule</text>
</g>
<!-- QrcodeModule&#45;&gt;InvoiceModule -->
<g id="edge2" class="edge">
<title>QrcodeModule&#45;&gt;InvoiceModule</title>
<path fill="none" stroke="black" d="M179,-84.91C179,-84.91 179,-103.79 179,-103.79"/>
<polygon fill="black" stroke="black" points="175.5,-103.79 179,-113.79 182.5,-103.79 175.5,-103.79"/>
</g>
<!-- UtilsModule -->
<g id="node4" class="node">
<title>UtilsModule</title>
<polygon fill="#8dd3c7" stroke="black" points="110.27,-84.8 107.27,-88.8 86.27,-88.8 83.27,-84.8 23.73,-84.8 23.73,-48.8 110.27,-48.8 110.27,-84.8"/>
<text text-anchor="middle" x="67" y="-62.6" font-family="Times,serif" font-size="14.00">UtilsModule</text>
</g>
<!-- UtilsModule&#45;&gt;InvoiceModule -->
<g id="edge3" class="edge">
<title>UtilsModule&#45;&gt;InvoiceModule</title>
<path fill="none" stroke="black" d="M67,-84.91C67,-104.14 67,-131.8 67,-131.8 67,-131.8 118.24,-131.8 118.24,-131.8"/>
<polygon fill="black" stroke="black" points="118.24,-135.3 128.24,-131.8 118.24,-128.3 118.24,-135.3"/>
</g>
</g>
</svg>
