<?xml version="1.0" encoding="UTF-8" standalone="no"?>
<!DOCTYPE svg PUBLIC "-//W3C//DTD SVG 1.1//EN"
 "http://www.w3.org/Graphics/SVG/1.1/DTD/svg11.dtd">
<!-- Generated by graphviz version 2.47.3 (20210619.1520)
 -->
<!-- Title: dependencies Pages: 1 -->
<svg width="2465pt" height="269pt"
 viewBox="0.00 0.00 2465.00 268.80" xmlns="http://www.w3.org/2000/svg" xmlns:xlink="http://www.w3.org/1999/xlink">
<g id="graph0" class="graph" transform="scale(1 1) rotate(0) translate(4 264.8)">
<title>dependencies</title>
<polygon fill="white" stroke="transparent" points="-4,4 -4,-264.8 2461,-264.8 2461,4 -4,4"/>
<text text-anchor="middle" x="1228.5" y="-8.2" font-family="sans-serif" font-size="14.00">dependencies</text>
<g id="clust1" class="cluster">
<title>cluster_AppModule</title>
<polygon fill="none" stroke="black" stroke-dasharray="1,5" points="8,-32.8 8,-252.8 298,-252.8 298,-32.8 8,-32.8"/>
</g>
<g id="clust2" class="cluster">
<title>cluster_AppModule_declarations</title>
<polygon fill="none" stroke="black" points="168,-40.8 168,-92.8 290,-92.8 290,-40.8 168,-40.8"/>
</g>
<g id="clust4" class="cluster">
<title>cluster_AppModule_imports</title>
<polygon fill="none" stroke="black" points="16,-40.8 16,-92.8 160,-92.8 160,-40.8 16,-40.8"/>
</g>
<g id="clust6" class="cluster">
<title>cluster_AppModule_bootstrap</title>
<polygon fill="none" stroke="black" points="96,-192.8 96,-244.8 220,-244.8 220,-192.8 96,-192.8"/>
</g>
<g id="clust14" class="cluster">
<title>cluster_AuthdareMaterialModule</title>
<polygon fill="none" stroke="black" stroke-dasharray="1,5" points="306,-32.8 306,-252.8 522,-252.8 522,-32.8 306,-32.8"/>
</g>
<g id="clust15" class="cluster">
<title>cluster_AuthdareMaterialModule_declarations</title>
<polygon fill="none" stroke="black" points="316,-40.8 316,-92.8 512,-92.8 512,-40.8 316,-40.8"/>
</g>
<g id="clust18" class="cluster">
<title>cluster_AuthdareMaterialModule_exports</title>
<polygon fill="none" stroke="black" points="314,-192.8 314,-244.8 514,-244.8 514,-192.8 314,-192.8"/>
</g>
<g id="clust21" class="cluster">
<title>cluster_ChartModule</title>
<polygon fill="none" stroke="black" stroke-dasharray="1,5" points="530,-32.8 530,-252.8 678,-252.8 678,-32.8 530,-32.8"/>
</g>
<g id="clust22" class="cluster">
<title>cluster_ChartModule_declarations</title>
<polygon fill="none" stroke="black" points="541,-40.8 541,-92.8 669,-92.8 669,-40.8 541,-40.8"/>
</g>
<g id="clust25" class="cluster">
<title>cluster_ChartModule_exports</title>
<polygon fill="none" stroke="black" points="538,-192.8 538,-244.8 670,-244.8 670,-192.8 538,-192.8"/>
</g>
<g id="clust28" class="cluster">
<title>cluster_DocModule</title>
<polygon fill="none" stroke="black" stroke-dasharray="1,5" points="1187,-108.8 1187,-244.8 1559,-244.8 1559,-108.8 1187,-108.8"/>
</g>
<g id="clust29" class="cluster">
<title>cluster_DocModule_declarations</title>
<polygon fill="none" stroke="black" points="1195,-116.8 1195,-168.8 1315,-168.8 1315,-116.8 1195,-116.8"/>
</g>
<g id="clust31" class="cluster">
<title>cluster_DocModule_imports</title>
<polygon fill="none" stroke="black" points="1323,-116.8 1323,-168.8 1551,-168.8 1551,-116.8 1323,-116.8"/>
</g>
<g id="clust35" class="cluster">
<title>cluster_FormModule</title>
<polygon fill="none" stroke="black" stroke-dasharray="1,5" points="686,-32.8 686,-100.8 2198,-100.8 2198,-32.8 686,-32.8"/>
</g>
<g id="clust36" class="cluster">
<title>cluster_FormModule_declarations</title>
<polygon fill="none" stroke="black" points="834,-40.8 834,-92.8 1900,-92.8 1900,-40.8 834,-40.8"/>
</g>
<g id="clust44" class="cluster">
<title>cluster_FormModule_imports</title>
<polygon fill="none" stroke="black" points="1908,-40.8 1908,-92.8 2190,-92.8 2190,-40.8 1908,-40.8"/>
</g>
<g id="clust45" class="cluster">
<title>cluster_FormModule_exports</title>
<polygon fill="none" stroke="black" points="694,-40.8 694,-92.8 826,-92.8 826,-40.8 694,-40.8"/>
</g>
<g id="clust54" class="cluster">
<title>cluster_NavbarModule</title>
<polygon fill="none" stroke="black" stroke-dasharray="1,5" points="2291,-32.8 2291,-252.8 2449,-252.8 2449,-32.8 2291,-32.8"/>
</g>
<g id="clust55" class="cluster">
<title>cluster_NavbarModule_declarations</title>
<polygon fill="none" stroke="black" points="2301,-40.8 2301,-92.8 2439,-92.8 2439,-40.8 2301,-40.8"/>
</g>
<g id="clust58" class="cluster">
<title>cluster_NavbarModule_exports</title>
<polygon fill="none" stroke="black" points="2299,-192.8 2299,-244.8 2441,-244.8 2441,-192.8 2299,-192.8"/>
</g>
<g id="clust61" class="cluster">
<title>cluster_SetAttributeModule</title>
<polygon fill="none" stroke="black" stroke-dasharray="1,5" points="1951,-108.8 1951,-176.8 2283,-176.8 2283,-108.8 1951,-108.8"/>
</g>
<g id="clust62" class="cluster">
<title>cluster_SetAttributeModule_declarations</title>
<polygon fill="none" stroke="black" points="2123,-116.8 2123,-168.8 2275,-168.8 2275,-116.8 2123,-116.8"/>
</g>
<g id="clust65" class="cluster">
<title>cluster_SetAttributeModule_exports</title>
<polygon fill="none" stroke="black" points="1959,-116.8 1959,-168.8 2115,-168.8 2115,-116.8 1959,-116.8"/>
</g>
<g id="clust68" class="cluster">
<title>cluster_SidenavModule</title>
<polygon fill="none" stroke="black" stroke-dasharray="1,5" points="1567,-184.8 1567,-252.8 1879,-252.8 1879,-184.8 1567,-184.8"/>
</g>
<g id="clust69" class="cluster">
<title>cluster_SidenavModule_declarations</title>
<polygon fill="none" stroke="black" points="1729,-192.8 1729,-244.8 1871,-244.8 1871,-192.8 1729,-192.8"/>
</g>
<g id="clust72" class="cluster">
<title>cluster_SidenavModule_exports</title>
<polygon fill="none" stroke="black" points="1575,-192.8 1575,-244.8 1721,-244.8 1721,-192.8 1575,-192.8"/>
</g>
<!-- AppComponent -->
<g id="node1" class="node">
<title>AppComponent</title>
<polygon fill="#ffffb3" stroke="black" points="281.94,-84.8 176.06,-84.8 176.06,-48.8 281.94,-48.8 281.94,-84.8"/>
<text text-anchor="middle" x="229" y="-62.6" font-family="Times,serif" font-size="14.00">AppComponent</text>
</g>
<!-- AppModule -->
<g id="node2" class="node">
<title>AppModule</title>
<polygon fill="#8dd3c7" stroke="black" points="199.66,-160.8 196.66,-164.8 175.66,-164.8 172.66,-160.8 116.34,-160.8 116.34,-124.8 199.66,-124.8 199.66,-160.8"/>
<text text-anchor="middle" x="158" y="-138.6" font-family="Times,serif" font-size="14.00">AppModule</text>
</g>
<!-- AppComponent&#45;&gt;AppModule -->
<g id="edge1" class="edge">
<title>AppComponent&#45;&gt;AppModule</title>
<path fill="none" stroke="black" d="M188.05,-84.81C188.05,-84.81 188.05,-114.65 188.05,-114.65"/>
<polygon fill="black" stroke="black" points="184.55,-114.65 188.05,-124.65 191.55,-114.65 184.55,-114.65"/>
</g>
<!-- AppComponent  -->
<g id="node4" class="node">
<title>AppComponent </title>
<polygon fill="#80b1d3" stroke="black" points="212.44,-236.8 103.56,-236.8 103.56,-200.8 212.44,-200.8 212.44,-236.8"/>
<text text-anchor="middle" x="158" y="-214.6" font-family="Times,serif" font-size="14.00">AppComponent </text>
</g>
<!-- AppModule&#45;&gt;AppComponent  -->
<g id="edge3" class="edge">
<title>AppModule&#45;&gt;AppComponent </title>
<path fill="none" stroke="black" stroke-dasharray="1,5" d="M158,-160.81C158,-160.81 158,-190.65 158,-190.65"/>
<polygon fill="black" stroke="black" points="154.5,-190.65 158,-200.65 161.5,-190.65 154.5,-190.65"/>
</g>
<!-- AppRoutingModule -->
<g id="node3" class="node">
<title>AppRoutingModule</title>
<polygon fill="#8dd3c7" stroke="black" points="152.27,-84.8 149.27,-88.8 128.27,-88.8 125.27,-84.8 23.73,-84.8 23.73,-48.8 152.27,-48.8 152.27,-84.8"/>
<text text-anchor="middle" x="88" y="-62.6" font-family="Times,serif" font-size="14.00">AppRoutingModule</text>
</g>
<!-- AppRoutingModule&#45;&gt;AppModule -->
<g id="edge2" class="edge">
<title>AppRoutingModule&#45;&gt;AppModule</title>
<path fill="none" stroke="black" d="M134.28,-84.81C134.28,-84.81 134.28,-114.65 134.28,-114.65"/>
<polygon fill="black" stroke="black" points="130.78,-114.65 134.28,-124.65 137.78,-114.65 130.78,-114.65"/>
</g>
<!-- AuthdareMaterialComponent -->
<g id="node5" class="node">
<title>AuthdareMaterialComponent</title>
<polygon fill="#ffffb3" stroke="black" points="504.34,-84.8 323.66,-84.8 323.66,-48.8 504.34,-48.8 504.34,-84.8"/>
<text text-anchor="middle" x="414" y="-62.6" font-family="Times,serif" font-size="14.00">AuthdareMaterialComponent</text>
</g>
<!-- AuthdareMaterialModule -->
<g id="node6" class="node">
<title>AuthdareMaterialModule</title>
<polygon fill="#8dd3c7" stroke="black" points="493.56,-160.8 490.56,-164.8 469.56,-164.8 466.56,-160.8 334.44,-160.8 334.44,-124.8 493.56,-124.8 493.56,-160.8"/>
<text text-anchor="middle" x="414" y="-138.6" font-family="Times,serif" font-size="14.00">AuthdareMaterialModule</text>
</g>
<!-- AuthdareMaterialComponent&#45;&gt;AuthdareMaterialModule -->
<g id="edge4" class="edge">
<title>AuthdareMaterialComponent&#45;&gt;AuthdareMaterialModule</title>
<path fill="none" stroke="black" d="M414,-84.81C414,-84.81 414,-114.65 414,-114.65"/>
<polygon fill="black" stroke="black" points="410.5,-114.65 414,-124.65 417.5,-114.65 410.5,-114.65"/>
</g>
<!-- AuthdareMaterialComponent  -->
<g id="node7" class="node">
<title>AuthdareMaterialComponent </title>
<polygon fill="#fb8072" stroke="black" points="506.34,-236.8 321.66,-236.8 321.66,-200.8 506.34,-200.8 506.34,-236.8"/>
<text text-anchor="middle" x="414" y="-214.6" font-family="Times,serif" font-size="14.00">AuthdareMaterialComponent </text>
</g>
<!-- AuthdareMaterialModule&#45;&gt;AuthdareMaterialComponent  -->
<g id="edge5" class="edge">
<title>AuthdareMaterialModule&#45;&gt;AuthdareMaterialComponent </title>
<path fill="none" stroke="black" stroke-dasharray="5,2" d="M414,-160.81C414,-160.81 414,-190.65 414,-190.65"/>
<polygon fill="black" stroke="black" points="410.5,-190.65 414,-200.65 417.5,-190.65 410.5,-190.65"/>
</g>
<!-- ChartComponent -->
<g id="node8" class="node">
<title>ChartComponent</title>
<polygon fill="#ffffb3" stroke="black" points="661.44,-84.8 548.56,-84.8 548.56,-48.8 661.44,-48.8 661.44,-84.8"/>
<text text-anchor="middle" x="605" y="-62.6" font-family="Times,serif" font-size="14.00">ChartComponent</text>
</g>
<!-- ChartModule -->
<g id="node9" class="node">
<title>ChartModule</title>
<polygon fill="#8dd3c7" stroke="black" points="650.15,-160.8 647.15,-164.8 626.15,-164.8 623.15,-160.8 559.85,-160.8 559.85,-124.8 650.15,-124.8 650.15,-160.8"/>
<text text-anchor="middle" x="605" y="-138.6" font-family="Times,serif" font-size="14.00">ChartModule</text>
</g>
<!-- ChartComponent&#45;&gt;ChartModule -->
<g id="edge6" class="edge">
<title>ChartComponent&#45;&gt;ChartModule</title>
<path fill="none" stroke="black" d="M605,-84.81C605,-84.81 605,-114.65 605,-114.65"/>
<polygon fill="black" stroke="black" points="601.5,-114.65 605,-124.65 608.5,-114.65 601.5,-114.65"/>
</g>
<!-- ChartComponent  -->
<g id="node10" class="node">
<title>ChartComponent </title>
<polygon fill="#fb8072" stroke="black" points="661.93,-236.8 546.07,-236.8 546.07,-200.8 661.93,-200.8 661.93,-236.8"/>
<text text-anchor="middle" x="604" y="-214.6" font-family="Times,serif" font-size="14.00">ChartComponent </text>
</g>
<!-- ChartModule&#45;&gt;ChartComponent  -->
<g id="edge7" class="edge">
<title>ChartModule&#45;&gt;ChartComponent </title>
<path fill="none" stroke="black" stroke-dasharray="5,2" d="M605,-160.81C605,-160.81 605,-190.65 605,-190.65"/>
<polygon fill="black" stroke="black" points="601.5,-190.65 605,-200.65 608.5,-190.65 601.5,-190.65"/>
</g>
<!-- DocModule -->
<g id="node12" class="node">
<title>DocModule</title>
<polygon fill="#8dd3c7" stroke="black" points="1356.37,-236.8 1353.37,-240.8 1332.37,-240.8 1329.37,-236.8 1273.63,-236.8 1273.63,-200.8 1356.37,-200.8 1356.37,-236.8"/>
<text text-anchor="middle" x="1315" y="-214.6" font-family="Times,serif" font-size="14.00">DocModule</text>
</g>
<!-- ChartModule&#45;&gt;DocModule -->
<g id="edge9" class="edge">
<title>ChartModule&#45;&gt;DocModule</title>
<path fill="none" stroke="black" d="M650.22,-142.8C689.73,-142.8 740.81,-142.8 740.81,-142.8 740.81,-142.8 740.81,-218.8 740.81,-218.8 740.81,-218.8 1263.24,-218.8 1263.24,-218.8"/>
<polygon fill="black" stroke="black" points="1263.24,-222.3 1273.24,-218.8 1263.24,-215.3 1263.24,-222.3"/>
</g>
<!-- DocComponent -->
<g id="node11" class="node">
<title>DocComponent</title>
<polygon fill="#ffffb3" stroke="black" points="1307.15,-160.8 1202.85,-160.8 1202.85,-124.8 1307.15,-124.8 1307.15,-160.8"/>
<text text-anchor="middle" x="1255" y="-138.6" font-family="Times,serif" font-size="14.00">DocComponent</text>
</g>
<!-- DocComponent&#45;&gt;DocModule -->
<g id="edge8" class="edge">
<title>DocComponent&#45;&gt;DocModule</title>
<path fill="none" stroke="black" d="M1290.45,-160.81C1290.45,-160.81 1290.45,-190.65 1290.45,-190.65"/>
<polygon fill="black" stroke="black" points="1286.95,-190.65 1290.45,-200.65 1293.95,-190.65 1286.95,-190.65"/>
</g>
<!-- FormModule -->
<g id="node13" class="node">
<title>FormModule</title>
<polygon fill="#8dd3c7" stroke="black" points="1420.88,-160.8 1417.88,-164.8 1396.88,-164.8 1393.88,-160.8 1331.12,-160.8 1331.12,-124.8 1420.88,-124.8 1420.88,-160.8"/>
<text text-anchor="middle" x="1376" y="-138.6" font-family="Times,serif" font-size="14.00">FormModule</text>
</g>
<!-- FormModule&#45;&gt;DocModule -->
<g id="edge10" class="edge">
<title>FormModule&#45;&gt;DocModule</title>
<path fill="none" stroke="black" d="M1343.75,-160.81C1343.75,-160.81 1343.75,-190.65 1343.75,-190.65"/>
<polygon fill="black" stroke="black" points="1340.25,-190.65 1343.75,-200.65 1347.25,-190.65 1340.25,-190.65"/>
</g>
<!-- FormComponent  -->
<g id="node24" class="node">
<title>FormComponent </title>
<polygon fill="#fb8072" stroke="black" points="817.67,-84.8 702.33,-84.8 702.33,-48.8 817.67,-48.8 817.67,-84.8"/>
<text text-anchor="middle" x="760" y="-62.6" font-family="Times,serif" font-size="14.00">FormComponent </text>
</g>
<!-- FormModule&#45;&gt;FormComponent  -->
<g id="edge21" class="edge">
<title>FormModule&#45;&gt;FormComponent </title>
<path fill="none" stroke="black" stroke-dasharray="5,2" d="M1339.23,-124.74C1339.23,-113.36 1339.23,-100.8 1339.23,-100.8 1339.23,-100.8 779.19,-100.8 779.19,-100.8 779.19,-100.8 779.19,-94.99 779.19,-94.99"/>
<polygon fill="black" stroke="black" points="782.69,-94.99 779.19,-84.99 775.69,-94.99 782.69,-94.99"/>
</g>
<!-- SidenavModule -->
<g id="node14" class="node">
<title>SidenavModule</title>
<polygon fill="#8dd3c7" stroke="black" points="1543.15,-160.8 1540.15,-164.8 1519.15,-164.8 1516.15,-160.8 1438.85,-160.8 1438.85,-124.8 1543.15,-124.8 1543.15,-160.8"/>
<text text-anchor="middle" x="1491" y="-138.6" font-family="Times,serif" font-size="14.00">SidenavModule</text>
</g>
<!-- SidenavModule&#45;&gt;DocModule -->
<g id="edge11" class="edge">
<title>SidenavModule&#45;&gt;DocModule</title>
<path fill="none" stroke="black" d="M1491,-160.81C1491,-183.29 1491,-218.8 1491,-218.8 1491,-218.8 1366.71,-218.8 1366.71,-218.8"/>
<polygon fill="black" stroke="black" points="1366.71,-215.3 1356.71,-218.8 1366.71,-222.3 1366.71,-215.3"/>
</g>
<!-- SidenavComponent  -->
<g id="node31" class="node">
<title>SidenavComponent </title>
<polygon fill="#fb8072" stroke="black" points="1712.93,-236.8 1583.07,-236.8 1583.07,-200.8 1712.93,-200.8 1712.93,-236.8"/>
<text text-anchor="middle" x="1648" y="-214.6" font-family="Times,serif" font-size="14.00">SidenavComponent </text>
</g>
<!-- SidenavModule&#45;&gt;SidenavComponent  -->
<g id="edge27" class="edge">
<title>SidenavModule&#45;&gt;SidenavComponent </title>
<path fill="none" stroke="black" stroke-dasharray="5,2" d="M1543.42,-148.8C1566.49,-148.8 1588.43,-148.8 1588.43,-148.8 1588.43,-148.8 1588.43,-190.77 1588.43,-190.77"/>
<polygon fill="black" stroke="black" points="1584.93,-190.77 1588.43,-200.77 1591.93,-190.77 1584.93,-190.77"/>
</g>
<!-- DateFieldComponent -->
<g id="node15" class="node">
<title>DateFieldComponent</title>
<polygon fill="#ffffb3" stroke="black" points="1892.04,-84.8 1755.96,-84.8 1755.96,-48.8 1892.04,-48.8 1892.04,-84.8"/>
<text text-anchor="middle" x="1824" y="-62.6" font-family="Times,serif" font-size="14.00">DateFieldComponent</text>
</g>
<!-- DateFieldComponent&#45;&gt;FormModule -->
<g id="edge12" class="edge">
<title>DateFieldComponent&#45;&gt;FormModule</title>
<path fill="none" stroke="black" d="M1809.47,-84.98C1809.47,-97.84 1809.47,-112.8 1809.47,-112.8 1809.47,-112.8 1396.43,-112.8 1396.43,-112.8 1396.43,-112.8 1396.43,-114.66 1396.43,-114.66"/>
<polygon fill="black" stroke="black" points="1392.93,-114.66 1396.43,-124.66 1399.93,-114.66 1392.93,-114.66"/>
</g>
<!-- FieldStatusComponent -->
<g id="node16" class="node">
<title>FieldStatusComponent</title>
<polygon fill="#ffffb3" stroke="black" points="1738.33,-84.8 1593.67,-84.8 1593.67,-48.8 1738.33,-48.8 1738.33,-84.8"/>
<text text-anchor="middle" x="1666" y="-62.6" font-family="Times,serif" font-size="14.00">FieldStatusComponent</text>
</g>
<!-- FieldStatusComponent&#45;&gt;FormModule -->
<g id="edge13" class="edge">
<title>FieldStatusComponent&#45;&gt;FormModule</title>
<path fill="none" stroke="black" d="M1653.4,-84.86C1653.4,-96.24 1653.4,-108.8 1653.4,-108.8 1653.4,-108.8 1388.26,-108.8 1388.26,-108.8 1388.26,-108.8 1388.26,-114.61 1388.26,-114.61"/>
<polygon fill="black" stroke="black" points="1384.76,-114.61 1388.26,-124.61 1391.76,-114.61 1384.76,-114.61"/>
</g>
<!-- FormComponent -->
<g id="node17" class="node">
<title>FormComponent</title>
<polygon fill="#ffffb3" stroke="black" points="1575.67,-84.8 1464.33,-84.8 1464.33,-48.8 1575.67,-48.8 1575.67,-84.8"/>
<text text-anchor="middle" x="1520" y="-62.6" font-family="Times,serif" font-size="14.00">FormComponent</text>
</g>
<!-- FormComponent&#45;&gt;FormModule -->
<g id="edge14" class="edge">
<title>FormComponent&#45;&gt;FormModule</title>
<path fill="none" stroke="black" d="M1503.75,-84.91C1503.75,-94.7 1503.75,-104.8 1503.75,-104.8 1503.75,-104.8 1380.09,-104.8 1380.09,-104.8 1380.09,-104.8 1380.09,-114.69 1380.09,-114.69"/>
<polygon fill="black" stroke="black" points="1376.59,-114.69 1380.09,-124.69 1383.59,-114.69 1376.59,-114.69"/>
</g>
<!-- FormFieldComponent -->
<g id="node18" class="node">
<title>FormFieldComponent</title>
<polygon fill="#ffffb3" stroke="black" points="1446.45,-84.8 1305.55,-84.8 1305.55,-48.8 1446.45,-48.8 1446.45,-84.8"/>
<text text-anchor="middle" x="1376" y="-62.6" font-family="Times,serif" font-size="14.00">FormFieldComponent</text>
</g>
<!-- FormFieldComponent&#45;&gt;FormModule -->
<g id="edge15" class="edge">
<title>FormFieldComponent&#45;&gt;FormModule</title>
<path fill="none" stroke="black" d="M1371.91,-84.81C1371.91,-84.81 1371.91,-114.65 1371.91,-114.65"/>
<polygon fill="black" stroke="black" points="1368.41,-114.65 1371.91,-124.65 1375.41,-114.65 1368.41,-114.65"/>
</g>
<!-- SelectFieldComponent -->
<g id="node19" class="node">
<title>SelectFieldComponent</title>
<polygon fill="#ffffb3" stroke="black" points="1288.32,-84.8 1143.68,-84.8 1143.68,-48.8 1288.32,-48.8 1288.32,-84.8"/>
<text text-anchor="middle" x="1216" y="-62.6" font-family="Times,serif" font-size="14.00">SelectFieldComponent</text>
</g>
<!-- SelectFieldComponent&#45;&gt;FormModule -->
<g id="edge16" class="edge">
<title>SelectFieldComponent&#45;&gt;FormModule</title>
<path fill="none" stroke="black" d="M1245.42,-84.97C1245.42,-87.25 1245.42,-88.8 1245.42,-88.8 1245.42,-88.8 1363.74,-88.8 1363.74,-88.8 1363.74,-88.8 1363.74,-114.52 1363.74,-114.52"/>
<polygon fill="black" stroke="black" points="1360.24,-114.52 1363.74,-124.52 1367.24,-114.52 1360.24,-114.52"/>
</g>
<!-- TextFieldComponent -->
<g id="node20" class="node">
<title>TextFieldComponent</title>
<polygon fill="#ffffb3" stroke="black" points="1125.77,-84.8 990.23,-84.8 990.23,-48.8 1125.77,-48.8 1125.77,-84.8"/>
<text text-anchor="middle" x="1058" y="-62.6" font-family="Times,serif" font-size="14.00">TextFieldComponent</text>
</g>
<!-- TextFieldComponent&#45;&gt;FormModule -->
<g id="edge17" class="edge">
<title>TextFieldComponent&#45;&gt;FormModule</title>
<path fill="none" stroke="black" d="M1058,-84.86C1058,-89.29 1058,-92.8 1058,-92.8 1058,-92.8 1355.57,-92.8 1355.57,-92.8 1355.57,-92.8 1355.57,-114.75 1355.57,-114.75"/>
<polygon fill="black" stroke="black" points="1352.07,-114.75 1355.57,-124.75 1359.07,-114.75 1352.07,-114.75"/>
</g>
<!-- ValidationErrorPipe -->
<g id="node21" class="node">
<title>ValidationErrorPipe</title>
<polygon fill="#ffffb3" stroke="black" points="971.52,-84.8 842.48,-84.8 842.48,-48.8 971.52,-48.8 971.52,-84.8"/>
<text text-anchor="middle" x="907" y="-62.6" font-family="Times,serif" font-size="14.00">ValidationErrorPipe</text>
</g>
<!-- ValidationErrorPipe&#45;&gt;FormModule -->
<g id="edge18" class="edge">
<title>ValidationErrorPipe&#45;&gt;FormModule</title>
<path fill="none" stroke="black" d="M907,-84.94C907,-91.26 907,-96.8 907,-96.8 907,-96.8 1347.4,-96.8 1347.4,-96.8 1347.4,-96.8 1347.4,-114.62 1347.4,-114.62"/>
<polygon fill="black" stroke="black" points="1343.9,-114.62 1347.4,-124.62 1350.9,-114.62 1343.9,-114.62"/>
</g>
<!-- FormStoreModule -->
<g id="node22" class="node">
<title>FormStoreModule</title>
<polygon fill="#8dd3c7" stroke="black" points="2035.93,-84.8 2032.93,-88.8 2011.93,-88.8 2008.93,-84.8 1916.07,-84.8 1916.07,-48.8 2035.93,-48.8 2035.93,-84.8"/>
<text text-anchor="middle" x="1976" y="-62.6" font-family="Times,serif" font-size="14.00">FormStoreModule</text>
</g>
<!-- FormStoreModule&#45;&gt;FormModule -->
<g id="edge19" class="edge">
<title>FormStoreModule&#45;&gt;FormModule</title>
<path fill="none" stroke="black" d="M1941.64,-84.85C1941.64,-99.17 1941.64,-116.8 1941.64,-116.8 1941.64,-116.8 1404.6,-116.8 1404.6,-116.8 1404.6,-116.8 1404.6,-117.59 1404.6,-117.59"/>
<polygon fill="black" stroke="black" points="1401.1,-114.74 1404.6,-124.74 1408.1,-114.74 1401.1,-114.74"/>
</g>
<!-- SetAttributeModule -->
<g id="node23" class="node">
<title>SetAttributeModule</title>
<polygon fill="#8dd3c7" stroke="black" points="2181.98,-84.8 2178.98,-88.8 2157.98,-88.8 2154.98,-84.8 2054.02,-84.8 2054.02,-48.8 2181.98,-48.8 2181.98,-84.8"/>
<text text-anchor="middle" x="2118" y="-62.6" font-family="Times,serif" font-size="14.00">SetAttributeModule</text>
</g>
<!-- SetAttributeModule&#45;&gt;FormModule -->
<g id="edge20" class="edge">
<title>SetAttributeModule&#45;&gt;FormModule</title>
<path fill="none" stroke="black" d="M2071.68,-85.08C2071.68,-100.75 2071.68,-120.8 2071.68,-120.8 2071.68,-120.8 1412.77,-120.8 1412.77,-120.8 1412.77,-120.8 1412.77,-121.18 1412.77,-121.18"/>
<polygon fill="black" stroke="black" points="1409.27,-114.63 1412.77,-124.63 1416.27,-114.63 1409.27,-114.63"/>
</g>
<!-- SetAttributeDirective  -->
<g id="node29" class="node">
<title>SetAttributeDirective </title>
<polygon fill="#fb8072" stroke="black" points="2107.01,-160.8 1966.99,-160.8 1966.99,-124.8 2107.01,-124.8 2107.01,-160.8"/>
<text text-anchor="middle" x="2037" y="-138.6" font-family="Times,serif" font-size="14.00">SetAttributeDirective </text>
</g>
<!-- SetAttributeModule&#45;&gt;SetAttributeDirective  -->
<g id="edge25" class="edge">
<title>SetAttributeModule&#45;&gt;SetAttributeDirective </title>
<path fill="none" stroke="black" stroke-dasharray="5,2" d="M2089.34,-84.81C2089.34,-84.81 2089.34,-114.65 2089.34,-114.65"/>
<polygon fill="black" stroke="black" points="2085.84,-114.65 2089.34,-124.65 2092.84,-114.65 2085.84,-114.65"/>
</g>
<!-- NavbarComponent -->
<g id="node25" class="node">
<title>NavbarComponent</title>
<polygon fill="#ffffb3" stroke="black" points="2431.03,-84.8 2308.97,-84.8 2308.97,-48.8 2431.03,-48.8 2431.03,-84.8"/>
<text text-anchor="middle" x="2370" y="-62.6" font-family="Times,serif" font-size="14.00">NavbarComponent</text>
</g>
<!-- NavbarModule -->
<g id="node26" class="node">
<title>NavbarModule</title>
<polygon fill="#8dd3c7" stroke="black" points="2420.25,-160.8 2417.25,-164.8 2396.25,-164.8 2393.25,-160.8 2319.75,-160.8 2319.75,-124.8 2420.25,-124.8 2420.25,-160.8"/>
<text text-anchor="middle" x="2370" y="-138.6" font-family="Times,serif" font-size="14.00">NavbarModule</text>
</g>
<!-- NavbarComponent&#45;&gt;NavbarModule -->
<g id="edge22" class="edge">
<title>NavbarComponent&#45;&gt;NavbarModule</title>
<path fill="none" stroke="black" d="M2370,-84.81C2370,-84.81 2370,-114.65 2370,-114.65"/>
<polygon fill="black" stroke="black" points="2366.5,-114.65 2370,-124.65 2373.5,-114.65 2366.5,-114.65"/>
</g>
<!-- NavbarComponent  -->
<g id="node27" class="node">
<title>NavbarComponent </title>
<polygon fill="#fb8072" stroke="black" points="2433.03,-236.8 2306.97,-236.8 2306.97,-200.8 2433.03,-200.8 2433.03,-236.8"/>
<text text-anchor="middle" x="2370" y="-214.6" font-family="Times,serif" font-size="14.00">NavbarComponent </text>
</g>
<!-- NavbarModule&#45;&gt;NavbarComponent  -->
<g id="edge23" class="edge">
<title>NavbarModule&#45;&gt;NavbarComponent </title>
<path fill="none" stroke="black" stroke-dasharray="5,2" d="M2370,-160.81C2370,-160.81 2370,-190.65 2370,-190.65"/>
<polygon fill="black" stroke="black" points="2366.5,-190.65 2370,-200.65 2373.5,-190.65 2366.5,-190.65"/>
</g>
<!-- SetAttributeDirective -->
<g id="node28" class="node">
<title>SetAttributeDirective</title>
<polygon fill="#ffffb3" stroke="black" points="2267.02,-160.8 2130.98,-160.8 2130.98,-124.8 2267.02,-124.8 2267.02,-160.8"/>
<text text-anchor="middle" x="2199" y="-138.6" font-family="Times,serif" font-size="14.00">SetAttributeDirective</text>
</g>
<!-- SetAttributeDirective&#45;&gt;SetAttributeModule -->
<g id="edge24" class="edge">
<title>SetAttributeDirective&#45;&gt;SetAttributeModule</title>
<path fill="none" stroke="black" d="M2156.37,-124.79C2156.37,-124.79 2156.37,-94.95 2156.37,-94.95"/>
<polygon fill="black" stroke="black" points="2159.87,-94.95 2156.37,-84.95 2152.87,-94.95 2159.87,-94.95"/>
</g>
<!-- SidenavComponent -->
<g id="node30" class="node">
<title>SidenavComponent</title>
<polygon fill="#ffffb3" stroke="black" points="1863.44,-236.8 1736.56,-236.8 1736.56,-200.8 1863.44,-200.8 1863.44,-236.8"/>
<text text-anchor="middle" x="1800" y="-214.6" font-family="Times,serif" font-size="14.00">SidenavComponent</text>
</g>
<!-- SidenavComponent&#45;&gt;SidenavModule -->
<g id="edge26" class="edge">
<title>SidenavComponent&#45;&gt;SidenavModule</title>
<path fill="none" stroke="black" d="M1746.95,-200.6C1746.95,-176.44 1746.95,-136.8 1746.95,-136.8 1746.95,-136.8 1553.41,-136.8 1553.41,-136.8"/>
<polygon fill="black" stroke="black" points="1553.41,-133.3 1543.41,-136.8 1553.41,-140.3 1553.41,-133.3"/>
</g>
</g>
</svg>
