<?xml version="1.0" encoding="UTF-8" standalone="no"?>
<!DOCTYPE svg PUBLIC "-//W3C//DTD SVG 1.1//EN"
 "http://www.w3.org/Graphics/SVG/1.1/DTD/svg11.dtd">
<!-- Generated by graphviz version 2.47.3 (20210619.1520)
 -->
<!-- Title: dependencies Pages: 1 -->
<svg width="864pt" height="247pt"
 viewBox="0.00 0.00 864.00 246.80" xmlns="http://www.w3.org/2000/svg" xmlns:xlink="http://www.w3.org/1999/xlink">
<g id="graph0" class="graph" transform="scale(1 1) rotate(0) translate(4 242.8)">
<title>dependencies</title>
<polygon fill="white" stroke="transparent" points="-4,4 -4,-242.8 860,-242.8 860,4 -4,4"/>
<text text-anchor="middle" x="428" y="-8.2" font-family="sans-serif" font-size="14.00">dependencies</text>
<g id="clust1" class="cluster">
<title>cluster_CarouselModule</title>
<polygon fill="none" stroke="black" stroke-dasharray="1,5" points="8,-32.8 8,-230.8 848,-230.8 848,-32.8 8,-32.8"/>
</g>
<g id="clust2" class="cluster">
<title>cluster_CarouselModule_declarations</title>
<polygon fill="none" stroke="black" points="188,-40.8 188,-92.8 840,-92.8 840,-40.8 188,-40.8"/>
</g>
<g id="clust8" class="cluster">
<title>cluster_CarouselModule_exports</title>
<polygon fill="none" stroke="black" points="65,-170.8 65,-222.8 638,-222.8 638,-170.8 65,-170.8"/>
</g>
<g id="clust10" class="cluster">
<title>cluster_CarouselModule_providers</title>
<polygon fill="none" stroke="black" points="16,-40.8 16,-92.8 180,-92.8 180,-40.8 16,-40.8"/>
</g>
<!-- CarouselComponent -->
<g id="node1" class="node">
<title>CarouselComponent</title>
<polygon fill="#ffffb3" stroke="black" points="831.59,-84.8 700.41,-84.8 700.41,-48.8 831.59,-48.8 831.59,-84.8"/>
<text text-anchor="middle" x="766" y="-62.6" font-family="Times,serif" font-size="14.00">CarouselComponent</text>
</g>
<!-- CarouselModule -->
<g id="node5" class="node">
<title>CarouselModule</title>
<polygon fill="#8dd3c7" stroke="black" points="433.81,-149.8 430.81,-153.8 409.81,-153.8 406.81,-149.8 324.19,-149.8 324.19,-113.8 433.81,-113.8 433.81,-149.8"/>
<text text-anchor="middle" x="379" y="-127.6" font-family="Times,serif" font-size="14.00">CarouselModule</text>
</g>
<!-- CarouselComponent&#45;&gt;CarouselModule -->
<g id="edge1" class="edge">
<title>CarouselComponent&#45;&gt;CarouselModule</title>
<path fill="none" stroke="black" d="M766,-84.91C766,-104.14 766,-131.8 766,-131.8 766,-131.8 444.04,-131.8 444.04,-131.8"/>
<polygon fill="black" stroke="black" points="444.04,-128.3 434.04,-131.8 444.04,-135.3 444.04,-128.3"/>
</g>
<!-- CarouselNavigationComponent -->
<g id="node2" class="node">
<title>CarouselNavigationComponent</title>
<polygon fill="#ffffb3" stroke="black" points="682.8,-84.8 489.2,-84.8 489.2,-48.8 682.8,-48.8 682.8,-84.8"/>
<text text-anchor="middle" x="586" y="-62.6" font-family="Times,serif" font-size="14.00">CarouselNavigationComponent</text>
</g>
<!-- CarouselNavigationComponent&#45;&gt;CarouselModule -->
<g id="edge2" class="edge">
<title>CarouselNavigationComponent&#45;&gt;CarouselModule</title>
<path fill="none" stroke="black" d="M540.57,-84.83C540.57,-101.2 540.57,-122.8 540.57,-122.8 540.57,-122.8 443.7,-122.8 443.7,-122.8"/>
<polygon fill="black" stroke="black" points="443.7,-119.3 433.7,-122.8 443.7,-126.3 443.7,-119.3"/>
</g>
<!-- CarouselPersistentComponent -->
<g id="node3" class="node">
<title>CarouselPersistentComponent</title>
<polygon fill="#ffffb3" stroke="black" points="471.53,-84.8 286.47,-84.8 286.47,-48.8 471.53,-48.8 471.53,-84.8"/>
<text text-anchor="middle" x="379" y="-62.6" font-family="Times,serif" font-size="14.00">CarouselPersistentComponent</text>
</g>
<!-- CarouselPersistentComponent&#45;&gt;CarouselModule -->
<g id="edge3" class="edge">
<title>CarouselPersistentComponent&#45;&gt;CarouselModule</title>
<path fill="none" stroke="black" d="M379,-84.91C379,-84.91 379,-103.79 379,-103.79"/>
<polygon fill="black" stroke="black" points="375.5,-103.79 379,-113.79 382.5,-103.79 375.5,-103.79"/>
</g>
<!-- WrapPipe -->
<g id="node4" class="node">
<title>WrapPipe</title>
<polygon fill="#ffffb3" stroke="black" points="267.98,-84.8 196.02,-84.8 196.02,-48.8 267.98,-48.8 267.98,-84.8"/>
<text text-anchor="middle" x="232" y="-62.6" font-family="Times,serif" font-size="14.00">WrapPipe</text>
</g>
<!-- WrapPipe&#45;&gt;CarouselModule -->
<g id="edge4" class="edge">
<title>WrapPipe&#45;&gt;CarouselModule</title>
<path fill="none" stroke="black" d="M240.35,-84.83C240.35,-101.2 240.35,-122.8 240.35,-122.8 240.35,-122.8 314.2,-122.8 314.2,-122.8"/>
<polygon fill="black" stroke="black" points="314.2,-126.3 324.2,-122.8 314.2,-119.3 314.2,-126.3"/>
</g>
<!-- CarouselComponent  -->
<g id="node6" class="node">
<title>CarouselComponent </title>
<polygon fill="#fb8072" stroke="black" points="630.09,-214.8 495.91,-214.8 495.91,-178.8 630.09,-178.8 630.09,-214.8"/>
<text text-anchor="middle" x="563" y="-192.6" font-family="Times,serif" font-size="14.00">CarouselComponent </text>
</g>
<!-- CarouselModule&#45;&gt;CarouselComponent  -->
<g id="edge5" class="edge">
<title>CarouselModule&#45;&gt;CarouselComponent </title>
<path fill="none" stroke="black" stroke-dasharray="5,2" d="M433.78,-140.8C494.93,-140.8 585.43,-140.8 585.43,-140.8 585.43,-140.8 585.43,-168.77 585.43,-168.77"/>
<polygon fill="black" stroke="black" points="581.93,-168.77 585.43,-178.77 588.93,-168.77 581.93,-168.77"/>
</g>
<!-- CarouselNavigationComponent  -->
<g id="node7" class="node">
<title>CarouselNavigationComponent </title>
<polygon fill="#fb8072" stroke="black" points="477.3,-214.8 280.7,-214.8 280.7,-178.8 477.3,-178.8 477.3,-214.8"/>
<text text-anchor="middle" x="379" y="-192.6" font-family="Times,serif" font-size="14.00">CarouselNavigationComponent </text>
</g>
<!-- CarouselModule&#45;&gt;CarouselNavigationComponent  -->
<g id="edge6" class="edge">
<title>CarouselModule&#45;&gt;CarouselNavigationComponent </title>
<path fill="none" stroke="black" stroke-dasharray="5,2" d="M379,-149.91C379,-149.91 379,-168.79 379,-168.79"/>
<polygon fill="black" stroke="black" points="375.5,-168.79 379,-178.79 382.5,-168.79 375.5,-168.79"/>
</g>
<!-- CarouselPersistentComponent  -->
<g id="node8" class="node">
<title>CarouselPersistentComponent </title>
<polygon fill="#fb8072" stroke="black" points="262.53,-214.8 73.47,-214.8 73.47,-178.8 262.53,-178.8 262.53,-214.8"/>
<text text-anchor="middle" x="168" y="-192.6" font-family="Times,serif" font-size="14.00">CarouselPersistentComponent </text>
</g>
<!-- CarouselModule&#45;&gt;CarouselPersistentComponent  -->
<g id="edge7" class="edge">
<title>CarouselModule&#45;&gt;CarouselPersistentComponent </title>
<path fill="none" stroke="black" stroke-dasharray="5,2" d="M324.1,-140.8C277.52,-140.8 218.18,-140.8 218.18,-140.8 218.18,-140.8 218.18,-168.77 218.18,-168.77"/>
<polygon fill="black" stroke="black" points="214.68,-168.77 218.18,-178.77 221.68,-168.77 214.68,-168.77"/>
</g>
<!-- CarouselService -->
<g id="node9" class="node">
<title>CarouselService</title>
<ellipse fill="#fdb462" stroke="black" cx="98" cy="-66.8" rx="74.13" ry="18"/>
<text text-anchor="middle" x="98" y="-62.6" font-family="Times,serif" font-size="14.00">CarouselService</text>
</g>
<!-- CarouselService&#45;&gt;CarouselModule -->
<g id="edge8" class="edge">
<title>CarouselService&#45;&gt;CarouselModule</title>
<path fill="none" stroke="black" d="M122.9,-83.88C122.9,-103.14 122.9,-131.8 122.9,-131.8 122.9,-131.8 314.06,-131.8 314.06,-131.8"/>
<polygon fill="black" stroke="black" points="314.06,-135.3 324.06,-131.8 314.06,-128.3 314.06,-135.3"/>
</g>
</g>
</svg>
