<?xml version="1.0" encoding="UTF-8" standalone="no"?>
<!DOCTYPE svg PUBLIC "-//W3C//DTD SVG 1.1//EN"
 "http://www.w3.org/Graphics/SVG/1.1/DTD/svg11.dtd">
<!-- Generated by graphviz version 2.47.3 (20210619.1520)
 -->
<!-- Title: dependencies Pages: 1 -->
<svg width="974pt" height="247pt"
 viewBox="0.00 0.00 974.00 246.80" xmlns="http://www.w3.org/2000/svg" xmlns:xlink="http://www.w3.org/1999/xlink">
<g id="graph0" class="graph" transform="scale(1 1) rotate(0) translate(4 242.8)">
<title>dependencies</title>
<polygon fill="white" stroke="transparent" points="-4,4 -4,-242.8 970,-242.8 970,4 -4,4"/>
<text text-anchor="middle" x="483" y="-8.2" font-family="sans-serif" font-size="14.00">dependencies</text>
<g id="clust1" class="cluster">
<title>cluster_CarouselModule</title>
<polygon fill="none" stroke="black" stroke-dasharray="1,5" points="8,-32.8 8,-230.8 958,-230.8 958,-32.8 8,-32.8"/>
</g>
<g id="clust2" class="cluster">
<title>cluster_CarouselModule_declarations</title>
<polygon fill="none" stroke="black" points="298,-40.8 298,-92.8 950,-92.8 950,-40.8 298,-40.8"/>
</g>
<g id="clust8" class="cluster">
<title>cluster_CarouselModule_exports</title>
<polygon fill="none" stroke="black" points="101,-170.8 101,-222.8 674,-222.8 674,-170.8 101,-170.8"/>
</g>
<g id="clust7" class="cluster">
<title>cluster_CarouselModule_imports</title>
<polygon fill="none" stroke="black" points="188,-40.8 188,-92.8 290,-92.8 290,-40.8 188,-40.8"/>
</g>
<g id="clust10" class="cluster">
<title>cluster_CarouselModule_providers</title>
<polygon fill="none" stroke="black" points="16,-40.8 16,-92.8 180,-92.8 180,-40.8 16,-40.8"/>
</g>
<!-- CarouselComponent -->
<g id="node1" class="node">
<title>CarouselComponent</title>
<polygon fill="#ffffb3" stroke="black" points="941.59,-84.8 810.41,-84.8 810.41,-48.8 941.59,-48.8 941.59,-84.8"/>
<text text-anchor="middle" x="876" y="-62.6" font-family="Times,serif" font-size="14.00">CarouselComponent</text>
</g>
<!-- CarouselModule -->
<g id="node5" class="node">
<title>CarouselModule</title>
<polygon fill="#8dd3c7" stroke="black" points="469.81,-149.8 466.81,-153.8 445.81,-153.8 442.81,-149.8 360.19,-149.8 360.19,-113.8 469.81,-113.8 469.81,-149.8"/>
<text text-anchor="middle" x="415" y="-127.6" font-family="Times,serif" font-size="14.00">CarouselModule</text>
</g>
<!-- CarouselComponent&#45;&gt;CarouselModule -->
<g id="edge1" class="edge">
<title>CarouselComponent&#45;&gt;CarouselModule</title>
<path fill="none" stroke="black" d="M876,-84.91C876,-104.14 876,-131.8 876,-131.8 876,-131.8 479.69,-131.8 479.69,-131.8"/>
<polygon fill="black" stroke="black" points="479.69,-128.3 469.69,-131.8 479.69,-135.3 479.69,-128.3"/>
</g>
<!-- CarouselNavigationComponent -->
<g id="node2" class="node">
<title>CarouselNavigationComponent</title>
<polygon fill="#ffffb3" stroke="black" points="792.8,-84.8 599.2,-84.8 599.2,-48.8 792.8,-48.8 792.8,-84.8"/>
<text text-anchor="middle" x="696" y="-62.6" font-family="Times,serif" font-size="14.00">CarouselNavigationComponent</text>
</g>
<!-- CarouselNavigationComponent&#45;&gt;CarouselModule -->
<g id="edge2" class="edge">
<title>CarouselNavigationComponent&#45;&gt;CarouselModule</title>
<path fill="none" stroke="black" d="M632.82,-84.83C632.82,-101.2 632.82,-122.8 632.82,-122.8 632.82,-122.8 479.68,-122.8 479.68,-122.8"/>
<polygon fill="black" stroke="black" points="479.68,-119.3 469.68,-122.8 479.68,-126.3 479.68,-119.3"/>
</g>
<!-- CarouselPersistentComponent -->
<g id="node3" class="node">
<title>CarouselPersistentComponent</title>
<polygon fill="#ffffb3" stroke="black" points="581.53,-84.8 396.47,-84.8 396.47,-48.8 581.53,-48.8 581.53,-84.8"/>
<text text-anchor="middle" x="489" y="-62.6" font-family="Times,serif" font-size="14.00">CarouselPersistentComponent</text>
</g>
<!-- CarouselPersistentComponent&#45;&gt;CarouselModule -->
<g id="edge3" class="edge">
<title>CarouselPersistentComponent&#45;&gt;CarouselModule</title>
<path fill="none" stroke="black" d="M432.95,-84.91C432.95,-84.91 432.95,-103.79 432.95,-103.79"/>
<polygon fill="black" stroke="black" points="429.45,-103.79 432.95,-113.79 436.45,-103.79 429.45,-103.79"/>
</g>
<!-- WrapPipe -->
<g id="node4" class="node">
<title>WrapPipe</title>
<polygon fill="#ffffb3" stroke="black" points="377.98,-84.8 306.02,-84.8 306.02,-48.8 377.98,-48.8 377.98,-84.8"/>
<text text-anchor="middle" x="342" y="-62.6" font-family="Times,serif" font-size="14.00">WrapPipe</text>
</g>
<!-- WrapPipe&#45;&gt;CarouselModule -->
<g id="edge4" class="edge">
<title>WrapPipe&#45;&gt;CarouselModule</title>
<path fill="none" stroke="black" d="M369.17,-84.91C369.17,-84.91 369.17,-103.79 369.17,-103.79"/>
<polygon fill="black" stroke="black" points="365.67,-103.79 369.17,-113.79 372.67,-103.79 365.67,-103.79"/>
</g>
<!-- CarouselComponent  -->
<g id="node7" class="node">
<title>CarouselComponent </title>
<polygon fill="#fb8072" stroke="black" points="666.09,-214.8 531.91,-214.8 531.91,-178.8 666.09,-178.8 666.09,-214.8"/>
<text text-anchor="middle" x="599" y="-192.6" font-family="Times,serif" font-size="14.00">CarouselComponent </text>
</g>
<!-- CarouselModule&#45;&gt;CarouselComponent  -->
<g id="edge6" class="edge">
<title>CarouselModule&#45;&gt;CarouselComponent </title>
<path fill="none" stroke="black" stroke-dasharray="5,2" d="M469.8,-140.8C509.68,-140.8 556.73,-140.8 556.73,-140.8 556.73,-140.8 556.73,-168.77 556.73,-168.77"/>
<polygon fill="black" stroke="black" points="553.23,-168.77 556.73,-178.77 560.23,-168.77 553.23,-168.77"/>
</g>
<!-- CarouselNavigationComponent  -->
<g id="node8" class="node">
<title>CarouselNavigationComponent </title>
<polygon fill="#fb8072" stroke="black" points="513.3,-214.8 316.7,-214.8 316.7,-178.8 513.3,-178.8 513.3,-214.8"/>
<text text-anchor="middle" x="415" y="-192.6" font-family="Times,serif" font-size="14.00">CarouselNavigationComponent </text>
</g>
<!-- CarouselModule&#45;&gt;CarouselNavigationComponent  -->
<g id="edge7" class="edge">
<title>CarouselModule&#45;&gt;CarouselNavigationComponent </title>
<path fill="none" stroke="black" stroke-dasharray="5,2" d="M415,-149.91C415,-149.91 415,-168.79 415,-168.79"/>
<polygon fill="black" stroke="black" points="411.5,-168.79 415,-178.79 418.5,-168.79 411.5,-168.79"/>
</g>
<!-- CarouselPersistentComponent  -->
<g id="node9" class="node">
<title>CarouselPersistentComponent </title>
<polygon fill="#fb8072" stroke="black" points="298.53,-214.8 109.47,-214.8 109.47,-178.8 298.53,-178.8 298.53,-214.8"/>
<text text-anchor="middle" x="204" y="-192.6" font-family="Times,serif" font-size="14.00">CarouselPersistentComponent </text>
</g>
<!-- CarouselModule&#45;&gt;CarouselPersistentComponent  -->
<g id="edge8" class="edge">
<title>CarouselModule&#45;&gt;CarouselPersistentComponent </title>
<path fill="none" stroke="black" stroke-dasharray="5,2" d="M360.01,-140.8C326.64,-140.8 290.45,-140.8 290.45,-140.8 290.45,-140.8 290.45,-168.77 290.45,-168.77"/>
<polygon fill="black" stroke="black" points="286.95,-168.77 290.45,-178.77 293.95,-168.77 286.95,-168.77"/>
</g>
<!-- UtilsModule -->
<g id="node6" class="node">
<title>UtilsModule</title>
<polygon fill="#8dd3c7" stroke="black" points="282.27,-84.8 279.27,-88.8 258.27,-88.8 255.27,-84.8 195.73,-84.8 195.73,-48.8 282.27,-48.8 282.27,-84.8"/>
<text text-anchor="middle" x="239" y="-62.6" font-family="Times,serif" font-size="14.00">UtilsModule</text>
</g>
<!-- UtilsModule&#45;&gt;CarouselModule -->
<g id="edge5" class="edge">
<title>UtilsModule&#45;&gt;CarouselModule</title>
<path fill="none" stroke="black" d="M239,-84.83C239,-101.2 239,-122.8 239,-122.8 239,-122.8 350.28,-122.8 350.28,-122.8"/>
<polygon fill="black" stroke="black" points="350.28,-126.3 360.28,-122.8 350.28,-119.3 350.28,-126.3"/>
</g>
<!-- CarouselService -->
<g id="node10" class="node">
<title>CarouselService</title>
<ellipse fill="#fdb462" stroke="black" cx="98" cy="-66.8" rx="74.13" ry="18"/>
<text text-anchor="middle" x="98" y="-62.6" font-family="Times,serif" font-size="14.00">CarouselService</text>
</g>
<!-- CarouselService&#45;&gt;CarouselModule -->
<g id="edge9" class="edge">
<title>CarouselService&#45;&gt;CarouselModule</title>
<path fill="none" stroke="black" d="M140.9,-81.55C140.9,-100.73 140.9,-131.8 140.9,-131.8 140.9,-131.8 350.19,-131.8 350.19,-131.8"/>
<polygon fill="black" stroke="black" points="350.19,-135.3 360.19,-131.8 350.19,-128.3 350.19,-135.3"/>
</g>
</g>
</svg>
