<?xml version="1.0" encoding="UTF-8" standalone="no"?>
<!DOCTYPE svg PUBLIC "-//W3C//DTD SVG 1.1//EN"
 "http://www.w3.org/Graphics/SVG/1.1/DTD/svg11.dtd">
<!-- Generated by graphviz version 2.47.3 (20210619.1520)
 -->
<!-- Title: dependencies Pages: 1 -->
<svg width="864pt" height="247pt"
 viewBox="0.00 0.00 864.00 246.80" xmlns="http://www.w3.org/2000/svg" xmlns:xlink="http://www.w3.org/1999/xlink">
<g id="graph0" class="graph" transform="scale(1 1) rotate(0) translate(4 242.8)">
<title>dependencies</title>
<polygon fill="white" stroke="transparent" points="-4,4 -4,-242.8 860,-242.8 860,4 -4,4"/>
<text text-anchor="middle" x="428" y="-8.2" font-family="sans-serif" font-size="14.00">dependencies</text>
<g id="clust1" class="cluster">
<title>cluster_CarouselModule</title>
<polygon fill="none" stroke="black" stroke-dasharray="1,5" points="8,-32.8 8,-230.8 848,-230.8 848,-32.8 8,-32.8"/>
</g>
<g id="clust10" class="cluster">
<title>cluster_CarouselModule_providers</title>
<polygon fill="none" stroke="black" points="676,-40.8 676,-92.8 840,-92.8 840,-40.8 676,-40.8"/>
</g>
<g id="clust8" class="cluster">
<title>cluster_CarouselModule_exports</title>
<polygon fill="none" stroke="black" points="100,-170.8 100,-222.8 673,-222.8 673,-170.8 100,-170.8"/>
</g>
<g id="clust2" class="cluster">
<title>cluster_CarouselModule_declarations</title>
<polygon fill="none" stroke="black" points="16,-40.8 16,-92.8 668,-92.8 668,-40.8 16,-40.8"/>
</g>
<!-- CarouselComponent -->
<g id="node1" class="node">
<title>CarouselComponent</title>
<polygon fill="#ffffb3" stroke="black" points="659.59,-84.8 528.41,-84.8 528.41,-48.8 659.59,-48.8 659.59,-84.8"/>
<text text-anchor="middle" x="594" y="-62.6" font-family="Times,serif" font-size="14.00">CarouselComponent</text>
</g>
<!-- CarouselModule -->
<g id="node5" class="node">
<title>CarouselModule</title>
<polygon fill="#8dd3c7" stroke="black" points="468.81,-149.8 465.81,-153.8 444.81,-153.8 441.81,-149.8 359.19,-149.8 359.19,-113.8 468.81,-113.8 468.81,-149.8"/>
<text text-anchor="middle" x="414" y="-127.6" font-family="Times,serif" font-size="14.00">CarouselModule</text>
</g>
<!-- CarouselComponent&#45;&gt;CarouselModule -->
<g id="edge1" class="edge">
<title>CarouselComponent&#45;&gt;CarouselModule</title>
<path fill="none" stroke="black" d="M616.6,-84.83C616.6,-101.2 616.6,-122.8 616.6,-122.8 616.6,-122.8 478.83,-122.8 478.83,-122.8"/>
<polygon fill="black" stroke="black" points="478.83,-119.3 468.83,-122.8 478.83,-126.3 478.83,-119.3"/>
</g>
<!-- CarouselNavigationComponent -->
<g id="node2" class="node">
<title>CarouselNavigationComponent</title>
<polygon fill="#ffffb3" stroke="black" points="510.8,-84.8 317.2,-84.8 317.2,-48.8 510.8,-48.8 510.8,-84.8"/>
<text text-anchor="middle" x="414" y="-62.6" font-family="Times,serif" font-size="14.00">CarouselNavigationComponent</text>
</g>
<!-- CarouselNavigationComponent&#45;&gt;CarouselModule -->
<g id="edge2" class="edge">
<title>CarouselNavigationComponent&#45;&gt;CarouselModule</title>
<path fill="none" stroke="black" d="M414,-84.91C414,-84.91 414,-103.79 414,-103.79"/>
<polygon fill="black" stroke="black" points="410.5,-103.79 414,-113.79 417.5,-103.79 410.5,-103.79"/>
</g>
<!-- CarouselPersistentComponent -->
<g id="node3" class="node">
<title>CarouselPersistentComponent</title>
<polygon fill="#ffffb3" stroke="black" points="299.53,-84.8 114.47,-84.8 114.47,-48.8 299.53,-48.8 299.53,-84.8"/>
<text text-anchor="middle" x="207" y="-62.6" font-family="Times,serif" font-size="14.00">CarouselPersistentComponent</text>
</g>
<!-- CarouselPersistentComponent&#45;&gt;CarouselModule -->
<g id="edge3" class="edge">
<title>CarouselPersistentComponent&#45;&gt;CarouselModule</title>
<path fill="none" stroke="black" d="M236.42,-84.83C236.42,-101.2 236.42,-122.8 236.42,-122.8 236.42,-122.8 349.27,-122.8 349.27,-122.8"/>
<polygon fill="black" stroke="black" points="349.27,-126.3 359.27,-122.8 349.27,-119.3 349.27,-126.3"/>
</g>
<!-- WrapPipe -->
<g id="node4" class="node">
<title>WrapPipe</title>
<polygon fill="#ffffb3" stroke="black" points="95.98,-84.8 24.02,-84.8 24.02,-48.8 95.98,-48.8 95.98,-84.8"/>
<text text-anchor="middle" x="60" y="-62.6" font-family="Times,serif" font-size="14.00">WrapPipe</text>
</g>
<!-- WrapPipe&#45;&gt;CarouselModule -->
<g id="edge4" class="edge">
<title>WrapPipe&#45;&gt;CarouselModule</title>
<path fill="none" stroke="black" d="M60,-84.91C60,-104.14 60,-131.8 60,-131.8 60,-131.8 349.08,-131.8 349.08,-131.8"/>
<polygon fill="black" stroke="black" points="349.08,-135.3 359.08,-131.8 349.08,-128.3 349.08,-135.3"/>
</g>
<!-- CarouselComponent  -->
<g id="node6" class="node">
<title>CarouselComponent </title>
<polygon fill="#fb8072" stroke="black" points="665.09,-214.8 530.91,-214.8 530.91,-178.8 665.09,-178.8 665.09,-214.8"/>
<text text-anchor="middle" x="598" y="-192.6" font-family="Times,serif" font-size="14.00">CarouselComponent </text>
</g>
<!-- CarouselModule&#45;&gt;CarouselComponent  -->
<g id="edge5" class="edge">
<title>CarouselModule&#45;&gt;CarouselComponent </title>
<path fill="none" stroke="black" stroke-dasharray="5,2" d="M468.94,-140.8C515.12,-140.8 573.65,-140.8 573.65,-140.8 573.65,-140.8 573.65,-168.77 573.65,-168.77"/>
<polygon fill="black" stroke="black" points="570.15,-168.77 573.65,-178.77 577.15,-168.77 570.15,-168.77"/>
</g>
<!-- CarouselNavigationComponent  -->
<g id="node7" class="node">
<title>CarouselNavigationComponent </title>
<polygon fill="#fb8072" stroke="black" points="512.3,-214.8 315.7,-214.8 315.7,-178.8 512.3,-178.8 512.3,-214.8"/>
<text text-anchor="middle" x="414" y="-192.6" font-family="Times,serif" font-size="14.00">CarouselNavigationComponent </text>
</g>
<!-- CarouselModule&#45;&gt;CarouselNavigationComponent  -->
<g id="edge6" class="edge">
<title>CarouselModule&#45;&gt;CarouselNavigationComponent </title>
<path fill="none" stroke="black" stroke-dasharray="5,2" d="M414,-149.91C414,-149.91 414,-168.79 414,-168.79"/>
<polygon fill="black" stroke="black" points="410.5,-168.79 414,-178.79 417.5,-168.79 410.5,-168.79"/>
</g>
<!-- CarouselPersistentComponent  -->
<g id="node8" class="node">
<title>CarouselPersistentComponent </title>
<polygon fill="#fb8072" stroke="black" points="297.53,-214.8 108.47,-214.8 108.47,-178.8 297.53,-178.8 297.53,-214.8"/>
<text text-anchor="middle" x="203" y="-192.6" font-family="Times,serif" font-size="14.00">CarouselPersistentComponent </text>
</g>
<!-- CarouselModule&#45;&gt;CarouselPersistentComponent  -->
<g id="edge7" class="edge">
<title>CarouselModule&#45;&gt;CarouselPersistentComponent </title>
<path fill="none" stroke="black" stroke-dasharray="5,2" d="M359.24,-140.8C288.78,-140.8 175.33,-140.8 175.33,-140.8 175.33,-140.8 175.33,-168.77 175.33,-168.77"/>
<polygon fill="black" stroke="black" points="171.83,-168.77 175.33,-178.77 178.83,-168.77 171.83,-168.77"/>
</g>
<!-- CarouselService -->
<g id="node9" class="node">
<title>CarouselService</title>
<ellipse fill="#fdb462" stroke="black" cx="758" cy="-66.8" rx="74.13" ry="18"/>
<text text-anchor="middle" x="758" y="-62.6" font-family="Times,serif" font-size="14.00">CarouselService</text>
</g>
<!-- CarouselService&#45;&gt;CarouselModule -->
<g id="edge8" class="edge">
<title>CarouselService&#45;&gt;CarouselModule</title>
<path fill="none" stroke="black" d="M758,-84.91C758,-104.14 758,-131.8 758,-131.8 758,-131.8 478.89,-131.8 478.89,-131.8"/>
<polygon fill="black" stroke="black" points="478.89,-128.3 468.89,-131.8 478.89,-135.3 478.89,-128.3"/>
</g>
</g>
</svg>
